<?xml version="1.0" standalone="no"?>
<!DOCTYPE svg PUBLIC "-//W3C//DTD SVG 1.1//EN" "http://www.w3.org/Graphics/SVG/1.1/DTD/svg11.dtd" >
<svg xmlns="http://www.w3.org/2000/svg" xmlns:xlink="http://www.w3.org/1999/xlink" version="1.1">
<metadata>
Created by FontForge 20170924 at Sun Jan  5 02:36:57 2020
 By www-data
Copyright 2019 The Trispace Project Authors (https://github.com/sursly/trispace)
</metadata>
<defs>
<font id="Trispace-Extended" horiz-adv-x="2200" >
  <font-face 
    font-family="Trispace Extended"
    font-weight="400"
    font-stretch="ultra-expanded"
    units-per-em="2000"
    panose-1="0 0 5 7 0 0 0 0 0 0"
    ascent="1600"
    descent="-400"
    x-height="1000"
    cap-height="1400"
    bbox="-1874 -594 2625 2227"
    underline-thickness="85"
    underline-position="-400"
    unicode-range="U+0020-25CA"
  />
<missing-glyph horiz-adv-x="600" 
d="M100 1188h348v-1042h-348v1042zM422 172v990h-296v-990h296zM202 902l-20 20l75 76l-75 76l20 20l75 -76l75 76l20 -20l-75 -76l75 -76l-20 -20l-75 76zM202 564l-20 20l75 76l-75 76l20 20l75 -76l75 76l20 -20l-75 -76l75 -76l-20 -20l-75 76zM202 226l-20 20l75 76
l-75 76l20 20l75 -76l75 76l20 -20l-75 -76l75 -76l-20 -20l-75 76z" />
    <glyph glyph-name=".notdef" horiz-adv-x="600" 
d="M100 1188h348v-1042h-348v1042zM422 172v990h-296v-990h296zM202 902l-20 20l75 76l-75 76l20 20l75 -76l75 76l20 -20l-75 -76l75 -76l-20 -20l-75 76zM202 564l-20 20l75 76l-75 76l20 20l75 -76l75 76l20 -20l-75 -76l75 -76l-20 -20l-75 76zM202 226l-20 20l75 76
l-75 76l20 20l75 -76l75 76l20 -20l-75 -76l75 -76l-20 -20l-75 76z" />
    <glyph glyph-name="space" unicode=" " horiz-adv-x="1800" 
 />
    <glyph glyph-name="A" unicode="A" horiz-adv-x="2163" 
d="M1701 0l-182 402h-931l-182 -402h-202l631 1400h437l633 -1400h-204zM653 545h801l-323 714h-155z" />
    <glyph glyph-name="Aacute" unicode="&#xc1;" horiz-adv-x="2163" 
d="M1701 0l-182 402h-931l-182 -402h-202l631 1400h437l633 -1400h-204zM653 545h801l-323 714h-155zM1061 1920h223l-286 -282h-160z" />
    <glyph glyph-name="Abreve" unicode="&#x102;" horiz-adv-x="2163" 
d="M1701 0l-182 402h-931l-182 -402h-202l631 1400h437l633 -1400h-204zM653 545h801l-323 714h-155zM1277 1785.5q-27 -61.5 -83.5 -101t-140.5 -39.5q-83 0 -138 39.5t-81 100.5t-26 128h136q0 -55 23.5 -108t87.5 -53q67 0 90 52t23 109h136q0 -66 -27 -127.5z" />
    <glyph glyph-name="uni01CD" unicode="&#x1cd;" horiz-adv-x="2163" 
d="M1701 0l-182 402h-931l-182 -402h-202l631 1400h437l633 -1400h-204zM653 545h801l-323 714h-155zM1129 1638h-149l-249 262h185l138 -166l138 166h185z" />
    <glyph glyph-name="Acircumflex" unicode="&#xc2;" horiz-adv-x="2163" 
d="M1701 0l-182 402h-931l-182 -402h-202l631 1400h437l633 -1400h-204zM653 545h801l-323 714h-155zM1193 1658l-137 166l-140 -166h-185l249 262h149l249 -262h-185z" />
    <glyph glyph-name="Adieresis" unicode="&#xc4;" horiz-adv-x="2163" 
d="M1701 0l-182 402h-931l-182 -402h-202l631 1400h437l633 -1400h-204zM653 545h801l-323 714h-155zM752 1734.5q-37 37.5 -37 90.5q0 54 36.5 91.5t89.5 37.5t90 -37.5t37 -91.5q0 -53 -37 -90.5t-90 -37.5q-52 0 -89 37.5zM1165 1734.5q-37 37.5 -37 90.5q0 54 37 91.5
t90 37.5q55 0 92.5 -37.5t37.5 -91.5t-37.5 -91t-92.5 -37q-53 0 -90 37.5z" />
    <glyph glyph-name="Agrave" unicode="&#xc0;" horiz-adv-x="2163" 
d="M1701 0l-182 402h-931l-182 -402h-202l631 1400h437l633 -1400h-204zM653 545h801l-323 714h-155zM1114 1638l-284 282h225l220 -282h-161z" />
    <glyph glyph-name="Amacron" unicode="&#x100;" horiz-adv-x="2163" 
d="M1701 0l-182 402h-931l-182 -402h-202l631 1400h437l633 -1400h-204zM653 545h801l-323 714h-155zM1468 1845v-130h-834v130h834z" />
    <glyph glyph-name="Aogonek" unicode="&#x104;" horiz-adv-x="2163" 
d="M1701 0l-182 402h-931l-182 -402h-202l631 1400h437l633 -1400h-204zM653 545h801l-323 714h-155zM1748.5 -87q-50.5 -52 -50.5 -100q0 -43 52 -62t125 -19q47 0 93.5 7t69.5 15l50 -128q-45 -14 -113.5 -21.5t-136.5 -7.5q-85 0 -161 18.5t-123.5 57t-47.5 95.5
q0 49 30 95t75 81t92 56h158q-62 -35 -112.5 -87z" />
    <glyph glyph-name="Aring" unicode="&#xc5;" horiz-adv-x="2163" 
d="M1701 0l-182 402h-931l-182 -402h-202l631 1400h437l633 -1400h-204zM653 545h801l-323 714h-155zM958.5 1664.5q-42.5 24.5 -68 67t-25.5 94.5q0 50 25.5 92t68.5 67t93 25q49 0 91.5 -25t67.5 -67.5t25 -91.5q0 -52 -25 -94.5t-67.5 -67t-91.5 -24.5q-51 0 -93.5 24.5z
M1108 1767.5q23 22.5 23 59.5q0 33 -23 54.5t-56 21.5q-34 0 -57 -21.5t-23 -54.5q0 -37 23 -59.5t57 -22.5q33 0 56 22.5z" />
    <glyph glyph-name="Atilde" unicode="&#xc3;" horiz-adv-x="2163" 
d="M1701 0l-182 402h-931l-182 -402h-202l631 1400h437l633 -1400h-204zM653 545h801l-323 714h-155zM1126 1674q-43 18 -94 53q-41 29 -71 42.5t-70 13.5q-59 0 -107.5 -29.5t-72.5 -66.5l-115 85q11 20 50.5 53t102.5 60t139 27q46 0 81.5 -10t60.5 -24t60 -38
q40 -29 70.5 -43t71.5 -14q59 0 105.5 30t69.5 68l115 -88q-11 -21 -49 -53t-100 -58t-139 -26q-65 0 -108 18z" />
    <glyph glyph-name="AE" unicode="&#xc6;" horiz-adv-x="2600" 
d="M2432 1259h-887v-501h796v-140h-796v-477h887v-141h-1070v348h-823l-223 -348h-211l911 1400h1416v-141zM625 482h737v777h-238z" />
    <glyph glyph-name="AE.ss01" 
d="M2041 1259h-794v-501h648v-140h-648v-477h794v-141h-979v400h-564l-208 -400h-197l733 1400h1215v-141zM575 549h487v710h-118z" />
    <glyph glyph-name="B" unicode="B" 
d="M1167 1400q173 0 305.5 -23.5t222.5 -98.5t90 -220q0 -89 -35.5 -156t-89.5 -107.5t-110 -54.5q83 -7 163.5 -46.5t133.5 -113.5t53 -180q0 -195 -141 -297.5t-434 -102.5h-923v1400h765zM1433 820q74 28 115.5 83t41.5 133q0 125 -99.5 174t-267.5 49h-632v-467h671
q97 0 171 28zM1603.5 204q98.5 63 98.5 207q0 131 -101 186t-252 55h-758v-511h727q187 0 285.5 63z" />
    <glyph glyph-name="C" unicode="C" 
d="M1610.5 33q-176.5 -55 -429.5 -55q-244 0 -440.5 78t-313 239.5t-116.5 400.5q0 240 117 401t314.5 238t441.5 77q251 0 430 -60t291 -156l-136 -115q-83 80 -232.5 133.5t-355.5 53.5q-202 0 -354 -64.5t-236 -193t-84 -314.5t83.5 -315t234.5 -194t353 -65
q206 0 357 50t234 126l125 -122q-107 -88 -283.5 -143z" />
    <glyph glyph-name="Cacute" unicode="&#x106;" 
d="M1610.5 33q-176.5 -55 -429.5 -55q-244 0 -440.5 78t-313 239.5t-116.5 400.5q0 240 117 401t314.5 238t441.5 77q251 0 430 -60t291 -156l-136 -115q-83 80 -232.5 133.5t-355.5 53.5q-202 0 -354 -64.5t-236 -193t-84 -314.5t83.5 -315t234.5 -194t353 -65
q206 0 357 50t234 126l125 -122q-107 -88 -283.5 -143zM1190 1920h223l-286 -282h-160z" />
    <glyph glyph-name="Ccaron" unicode="&#x10c;" 
d="M1610.5 33q-176.5 -55 -429.5 -55q-244 0 -440.5 78t-313 239.5t-116.5 400.5q0 240 117 401t314.5 238t441.5 77q251 0 430 -60t291 -156l-136 -115q-83 80 -232.5 133.5t-355.5 53.5q-202 0 -354 -64.5t-236 -193t-84 -314.5t83.5 -315t234.5 -194t353 -65
q206 0 357 50t234 126l125 -122q-107 -88 -283.5 -143zM1258 1638h-149l-249 262h185l138 -166l138 166h185z" />
    <glyph glyph-name="Ccedilla" unicode="&#xc7;" 
d="M1631.5 39q-162.5 -54 -392.5 -60l-35 -81q22 14 55.5 22.5t70.5 8.5q67 0 113.5 -29t45.5 -90q0 -69 -46 -115.5t-123 -68.5t-170 -22q-89 0 -177 20l37 99q79 -23 163 -23q82 0 134.5 24t52.5 69q0 29 -21.5 42.5t-55.5 13.5q-30 0 -62 -9.5t-53 -23.5l-107 27l53 136
q-228 11 -409.5 92.5t-287.5 239t-106 385.5q0 240 117 401t314.5 238t441.5 77q251 0 430 -60t291 -156l-136 -115q-83 80 -232.5 133.5t-355.5 53.5q-202 0 -354 -64.5t-236 -193t-84 -314.5t83.5 -315t234.5 -194t353 -65q206 0 357 50t234 126l125 -122
q-100 -83 -262.5 -137z" />
    <glyph glyph-name="Cdotaccent" unicode="&#x10a;" 
d="M1610.5 33q-176.5 -55 -429.5 -55q-244 0 -440.5 78t-313 239.5t-116.5 400.5q0 240 117 401t314.5 238t441.5 77q251 0 430 -60t291 -156l-136 -115q-83 80 -232.5 133.5t-355.5 53.5q-202 0 -354 -64.5t-236 -193t-84 -314.5t83.5 -315t234.5 -194t353 -65
q206 0 357 50t234 126l125 -122q-107 -88 -283.5 -143zM1128 1718q-29 17 -46 46.5t-17 64.5t17 64.5t46 46.5t63 17q53 0 90.5 -37t37.5 -91t-37.5 -91t-90.5 -37q-34 0 -63 17z" />
    <glyph glyph-name="D" unicode="D" 
d="M1486.5 1341q186.5 -59 296.5 -213.5t110 -427.5t-110 -427.5t-296.5 -213.5t-447.5 -59h-678v1400h678q261 0 447.5 -59zM1414 194.5q137 53.5 208.5 177t71.5 328.5q0 206 -72 329t-209 176.5t-344 53.5h-520v-1118h520q208 0 345 53.5z" />
    <glyph glyph-name="Eth" unicode="&#xd0;" 
d="M1499.5 1341q186.5 -59 296 -213.5t109.5 -427.5t-109.5 -427.5t-296 -213.5t-448.5 -59h-677v635h-277v130h277v635h677q262 0 448.5 -59zM1427 194.5q137 53.5 208 177t71 328.5q0 206 -71.5 329t-208.5 176.5t-344 53.5h-520v-494h506v-130h-506v-494h520
q208 0 345 53.5z" />
    <glyph glyph-name="Dcaron" unicode="&#x10e;" 
d="M1486.5 1341q186.5 -59 296.5 -213.5t110 -427.5t-110 -427.5t-296.5 -213.5t-447.5 -59h-678v1400h678q261 0 447.5 -59zM1414 194.5q137 53.5 208.5 177t71.5 328.5q0 206 -72 329t-209 176.5t-344 53.5h-520v-1118h520q208 0 345 53.5zM1076 1638h-149l-249 262h185
l138 -166l138 166h185z" />
    <glyph glyph-name="Dcroat" unicode="&#x110;" 
d="M1499.5 1341q186.5 -59 296 -213.5t109.5 -427.5t-109.5 -427.5t-296 -213.5t-448.5 -59h-677v635h-277v130h277v635h677q262 0 448.5 -59zM1427 194.5q137 53.5 208 177t71 328.5q0 206 -71.5 329t-208.5 176.5t-344 53.5h-520v-494h506v-130h-506v-494h520
q208 0 345 53.5z" />
    <glyph glyph-name="E" unicode="E" 
d="M547 1259v-501h1181v-140h-1181v-477h1276v-141h-1466v1400h1466v-141h-1276z" />
    <glyph glyph-name="Eacute" unicode="&#xc9;" 
d="M547 1259v-501h1181v-140h-1181v-477h1276v-141h-1466v1400h1466v-141h-1276zM1112 1920h223l-286 -282h-160z" />
    <glyph glyph-name="Ecaron" unicode="&#x11a;" 
d="M547 1259v-501h1181v-140h-1181v-477h1276v-141h-1466v1400h1466v-141h-1276zM1179 1638h-149l-249 262h185l138 -166l138 166h185z" />
    <glyph glyph-name="Ecircumflex" unicode="&#xca;" 
d="M547 1259v-501h1181v-140h-1181v-477h1276v-141h-1466v1400h1466v-141h-1276zM1244 1658l-137 166l-140 -166h-185l249 262h149l249 -262h-185z" />
    <glyph glyph-name="Edieresis" unicode="&#xcb;" 
d="M547 1259v-501h1181v-140h-1181v-477h1276v-141h-1466v1400h1466v-141h-1276zM803 1734.5q-37 37.5 -37 90.5q0 54 36.5 91.5t89.5 37.5t90 -37.5t37 -91.5q0 -53 -37 -90.5t-90 -37.5q-52 0 -89 37.5zM1216 1734.5q-37 37.5 -37 90.5q0 54 37 91.5t90 37.5
q55 0 92.5 -37.5t37.5 -91.5t-37.5 -91t-92.5 -37q-53 0 -90 37.5z" />
    <glyph glyph-name="Edotaccent" unicode="&#x116;" 
d="M547 1259v-501h1181v-140h-1181v-477h1276v-141h-1466v1400h1466v-141h-1276zM1049 1718q-29 17 -46 46.5t-17 64.5t17 64.5t46 46.5t63 17q53 0 90.5 -37t37.5 -91t-37.5 -91t-90.5 -37q-34 0 -63 17z" />
    <glyph glyph-name="Egrave" unicode="&#xc8;" 
d="M547 1259v-501h1181v-140h-1181v-477h1276v-141h-1466v1400h1466v-141h-1276zM1165 1638l-284 282h225l220 -282h-161z" />
    <glyph glyph-name="Emacron" unicode="&#x112;" 
d="M547 1259v-501h1181v-140h-1181v-477h1276v-141h-1466v1400h1466v-141h-1276zM1519 1845v-130h-834v130h834z" />
    <glyph glyph-name="Eogonek" unicode="&#x118;" 
d="M547 1259v-501h1181v-140h-1181v-477h1276v-141h-1466v1400h1466v-141h-1276zM1451.5 -87q-50.5 -52 -50.5 -100q0 -43 52 -62t125 -19q47 0 93.5 7t69.5 15l50 -128q-45 -14 -113.5 -21.5t-136.5 -7.5q-85 0 -161 18.5t-123.5 57t-47.5 95.5q0 49 30 95t75 81t92 56h158
q-62 -35 -112.5 -87z" />
    <glyph glyph-name="F" unicode="F" 
d="M687 1259v-505h1130v-141h-1130v-613h-188v1400h1393v-141h-1205z" />
    <glyph glyph-name="G" unicode="G" 
d="M1867 653q0 -237 -113.5 -388.5t-290 -219t-374.5 -67.5q-227 0 -419 69.5t-312.5 230t-120.5 418.5t123 418t317.5 229t422.5 69q167 0 307.5 -31.5t239.5 -80.5t158 -103l-148 -113q-46 47 -126.5 89t-192.5 69t-243 27q-177 0 -326 -54.5t-243 -182.5t-94 -336
q0 -211 92.5 -339.5t238 -182t317.5 -53.5q167 0 301.5 50.5t217 160.5t87.5 281h-609v140h790v-100z" />
    <glyph glyph-name="Gbreve" unicode="&#x11e;" 
d="M1271 1785.5q-27 -61.5 -83.5 -101t-140.5 -39.5q-83 0 -138 39.5t-81 100.5t-26 128h136q0 -55 23.5 -108t87.5 -53q67 0 90 52t23 109h136q0 -66 -27 -127.5zM1867 653q0 -237 -113.5 -388.5t-290 -219t-374.5 -67.5q-227 0 -419 69.5t-312.5 230t-120.5 418.5t123 418
t317.5 229t422.5 69q167 0 307.5 -31.5t239.5 -80.5t158 -103l-148 -113q-46 47 -126.5 89t-192.5 69t-243 27q-177 0 -326 -54.5t-243 -182.5t-94 -336q0 -211 92.5 -339.5t238 -182t317.5 -53.5q167 0 301.5 50.5t217 160.5t87.5 281h-609v140h790v-100z" />
    <glyph glyph-name="uni0122" unicode="&#x122;" 
d="M1867 653q0 -237 -113.5 -388.5t-290 -219t-374.5 -67.5q-227 0 -419 69.5t-312.5 230t-120.5 418.5t123 418t317.5 229t422.5 69q167 0 307.5 -31.5t239.5 -80.5t158 -103l-148 -113q-46 47 -126.5 89t-192.5 69t-243 27q-177 0 -326 -54.5t-243 -182.5t-94 -336
q0 -211 92.5 -339.5t238 -182t317.5 -53.5q167 0 301.5 50.5t217 160.5t87.5 281h-609v140h790v-100zM1012.5 -289q-26.5 32 -26.5 78q0 53 37 90t90 37q35 0 64.5 -17t46.5 -46.5t17 -63.5q0 -42 -19 -78l-166 -304l-89 39l119 220q-47 13 -73.5 45z" />
    <glyph glyph-name="Gdotaccent" unicode="&#x120;" 
d="M985 1718q-29 17 -46 46.5t-17 64.5t17 64.5t46 46.5t63 17q53 0 90.5 -37t37.5 -91t-37.5 -91t-90.5 -37q-34 0 -63 17zM1867 653q0 -237 -113.5 -388.5t-290 -219t-374.5 -67.5q-227 0 -419 69.5t-312.5 230t-120.5 418.5t123 418t317.5 229t422.5 69
q167 0 307.5 -31.5t239.5 -80.5t158 -103l-148 -113q-46 47 -126.5 89t-192.5 69t-243 27q-177 0 -326 -54.5t-243 -182.5t-94 -336q0 -211 92.5 -339.5t238 -182t317.5 -53.5q167 0 301.5 50.5t217 160.5t87.5 281h-609v140h790v-100z" />
    <glyph glyph-name="H" unicode="H" 
d="M1797 1400v-1400h-188v658h-1124v-658h-188v1400h188v-602h1124v602h188z" />
    <glyph glyph-name="Hbar" unicode="&#x126;" 
d="M1962 1199v-129h-131v-1070h-187v658h-1125v-658h-188v1070h-130v129h130v201h188v-201h1125v201h187v-201h131zM1644 798v272h-1125v-272h1125z" />
    <glyph glyph-name="I" unicode="I" horiz-adv-x="1800" 
d="M991 1259v-1118h587v-141h-1359v141h584v1118h-584v141h1359v-141h-587z" />
    <glyph glyph-name="Iacute" unicode="&#xcd;" horiz-adv-x="1800" 
d="M991 1259v-1118h587v-141h-1359v141h584v1118h-584v141h1359v-141h-587zM909 1920h223l-286 -282h-160z" />
    <glyph glyph-name="uni01CF" unicode="&#x1cf;" horiz-adv-x="1800" 
d="M991 1259v-1118h587v-141h-1359v141h584v1118h-584v141h1359v-141h-587zM977 1638h-149l-249 262h185l138 -166l138 166h185z" />
    <glyph glyph-name="Icircumflex" unicode="&#xce;" horiz-adv-x="1800" 
d="M991 1259v-1118h587v-141h-1359v141h584v1118h-584v141h1359v-141h-587zM1041 1658l-137 166l-140 -166h-185l249 262h149l249 -262h-185z" />
    <glyph glyph-name="Idieresis" unicode="&#xcf;" horiz-adv-x="1800" 
d="M991 1259v-1118h587v-141h-1359v141h584v1118h-584v141h1359v-141h-587zM600 1734.5q-37 37.5 -37 90.5q0 54 36.5 91.5t89.5 37.5t90 -37.5t37 -91.5q0 -53 -37 -90.5t-90 -37.5q-52 0 -89 37.5zM1013 1734.5q-37 37.5 -37 90.5q0 54 37 91.5t90 37.5q55 0 92.5 -37.5
t37.5 -91.5t-37.5 -91t-92.5 -37q-53 0 -90 37.5z" />
    <glyph glyph-name="Idotaccent" unicode="&#x130;" horiz-adv-x="1800" 
d="M991 1259v-1118h587v-141h-1359v141h584v1118h-584v141h1359v-141h-587zM847 1718q-29 17 -46 46.5t-17 64.5t17 64.5t46 46.5t63 17q53 0 90.5 -37t37.5 -91t-37.5 -91t-90.5 -37q-34 0 -63 17z" />
    <glyph glyph-name="Igrave" unicode="&#xcc;" horiz-adv-x="1800" 
d="M991 1259v-1118h587v-141h-1359v141h584v1118h-584v141h1359v-141h-587zM963 1638l-284 282h225l220 -282h-161z" />
    <glyph glyph-name="Imacron" unicode="&#x12a;" horiz-adv-x="1800" 
d="M991 1259v-1118h587v-141h-1359v141h584v1118h-584v141h1359v-141h-587zM1317 1845v-130h-834v130h834z" />
    <glyph glyph-name="Iogonek" unicode="&#x12e;" horiz-adv-x="1800" 
d="M991 1259v-1118h587v-141h-1359v141h584v1118h-584v141h1359v-141h-587zM889.5 -87q-50.5 -52 -50.5 -100q0 -43 52 -62t125 -19q47 0 93.5 7t69.5 15l50 -128q-45 -14 -113.5 -21.5t-136.5 -7.5q-85 0 -161 18.5t-123.5 57t-47.5 95.5q0 49 30 95t75 81t92 56h158
q-62 -35 -112.5 -87z" />
    <glyph glyph-name="J" unicode="J" 
d="M460.5 118q-203.5 140 -203.5 440h185q0 -217 153 -324.5t414 -107.5q260 0 409.5 105.5t153.5 324.5v703h-1072v141h1262v-824q0 -311 -203 -454.5t-550 -143.5q-345 0 -548.5 140z" />
    <glyph glyph-name="K" unicode="K" 
d="M1197 721l725 -721h-217l-657 648h-540v-648h-187v1400h187v-612h539l618 612h211z" />
    <glyph glyph-name="uni0136" unicode="&#x136;" 
d="M1197 721l725 -721h-217l-657 648h-540v-648h-187v1400h187v-612h539l618 612h211zM990.5 -289q-26.5 32 -26.5 78q0 53 37 90t90 37q35 0 64.5 -17t46.5 -46.5t17 -63.5q0 -42 -19 -78l-166 -304l-89 39l119 220q-47 13 -73.5 45z" />
    <glyph glyph-name="L" unicode="L" horiz-adv-x="1800" 
d="M1558 141v-141h-1222v1400h190v-1259h1032z" />
    <glyph glyph-name="Lacute" unicode="&#x139;" horiz-adv-x="1800" 
d="M1558 141v-141h-1222v1400h190v-1259h1032zM905 1920h223l-286 -282h-160z" />
    <glyph glyph-name="Lcaron" unicode="&#x13d;" horiz-adv-x="1800" 
d="M1558 141v-141h-1222v1400h190v-1259h1032zM1564.5 1207q-26.5 32 -26.5 78q0 53 37 90t90 37q35 0 64.5 -17t46.5 -46.5t17 -63.5q0 -42 -19 -78l-166 -304l-89 39l119 220q-47 13 -73.5 45z" />
    <glyph glyph-name="uni013B" unicode="&#x13b;" horiz-adv-x="1800" 
d="M1558 141v-141h-1222v1400h190v-1259h1032zM862.5 -289q-26.5 32 -26.5 78q0 53 37 90t90 37q35 0 64.5 -17t46.5 -46.5t17 -63.5q0 -42 -19 -78l-166 -304l-89 39l119 220q-47 13 -73.5 45z" />
    <glyph glyph-name="Lslash" unicode="&#x141;" 
d="M786 141h1032v-141h-1222v534l-319 -195v181l319 196v684h190v-568l394 242v-183l-394 -241v-509z" />
    <glyph glyph-name="M" unicode="M" horiz-adv-x="2600" 
d="M2347 0h-196l-191 1229l-542 -1122h-243l-537 1116l-191 -1223h-196l240 1400h249l548 -1138l10 -30l11 30l547 1138h249z" />
    <glyph glyph-name="N" unicode="N" 
d="M1667 1400h187v-1400h-273l-1102 1231v-1231h-188v1400h272l1104 -1235v1235z" />
    <glyph glyph-name="Nacute" unicode="&#x143;" 
d="M1667 1400h187v-1400h-273l-1102 1231v-1231h-188v1400h272l1104 -1235v1235zM1078 1920h223l-286 -282h-160z" />
    <glyph glyph-name="Ncaron" unicode="&#x147;" 
d="M1667 1400h187v-1400h-273l-1102 1231v-1231h-188v1400h272l1104 -1235v1235zM1146 1638h-149l-249 262h185l138 -166l138 166h185z" />
    <glyph glyph-name="uni0145" unicode="&#x145;" 
d="M1667 1400h187v-1400h-273l-1102 1231v-1231h-188v1400h272l1104 -1235v1235zM983.5 -289q-26.5 32 -26.5 78q0 53 37 90t90 37q35 0 64.5 -17t46.5 -46.5t17 -63.5q0 -42 -19 -78l-166 -304l-89 39l119 220q-47 13 -73.5 45z" />
    <glyph glyph-name="Eng" unicode="&#x14a;" 
d="M1758 11q0 -215 -137.5 -305t-353.5 -90q-98 0 -233.5 16t-187.5 28l42 151q46 -11 158 -26.5t191 -15.5q307 0 307 231l-966 1220v-1220h-180v1400h254l927 -1169v1169h179v-1389z" />
    <glyph glyph-name="Ntilde" unicode="&#xd1;" 
d="M1667 1400h187v-1400h-273l-1102 1231v-1231h-188v1400h272l1104 -1235v1235zM1143 1674q-43 18 -94 53q-41 29 -71 42.5t-70 13.5q-59 0 -107.5 -29.5t-72.5 -66.5l-115 85q11 20 50.5 53t102.5 60t139 27q46 0 81.5 -10t60.5 -24t60 -38q40 -29 70.5 -43t71.5 -14
q59 0 105.5 30t69.5 68l115 -88q-11 -21 -49 -53t-100 -58t-139 -26q-65 0 -108 18z" />
    <glyph glyph-name="O" unicode="O" 
d="M622.5 44.5q-202.5 66.5 -336.5 227t-134 424.5q0 263 134 423t336.5 226.5t424.5 66.5q220 0 421.5 -66.5t335 -226.5t133.5 -423q0 -264 -133.5 -424.5t-335 -227t-421.5 -66.5q-222 0 -424.5 66.5zM1377.5 174.5q157.5 52.5 262.5 180.5t105 341q0 212 -105 339.5
t-262.5 180t-330.5 52.5q-175 0 -333.5 -52.5t-264 -180t-105.5 -339.5q0 -213 105.5 -341t264 -180.5t333.5 -52.5q173 0 330.5 52.5z" />
    <glyph glyph-name="Oacute" unicode="&#xd3;" 
d="M622.5 44.5q-202.5 66.5 -336.5 227t-134 424.5q0 263 134 423t336.5 226.5t424.5 66.5q220 0 421.5 -66.5t335 -226.5t133.5 -423q0 -264 -133.5 -424.5t-335 -227t-421.5 -66.5q-222 0 -424.5 66.5zM1377.5 174.5q157.5 52.5 262.5 180.5t105 341q0 212 -105 339.5
t-262.5 180t-330.5 52.5q-175 0 -333.5 -52.5t-264 -180t-105.5 -339.5q0 -213 105.5 -341t264 -180.5t333.5 -52.5q173 0 330.5 52.5zM1049 1920h223l-286 -282h-160z" />
    <glyph glyph-name="uni01D1" unicode="&#x1d1;" 
d="M622.5 44.5q-202.5 66.5 -336.5 227t-134 424.5q0 263 134 423t336.5 226.5t424.5 66.5q220 0 421.5 -66.5t335 -226.5t133.5 -423q0 -264 -133.5 -424.5t-335 -227t-421.5 -66.5q-222 0 -424.5 66.5zM1377.5 174.5q157.5 52.5 262.5 180.5t105 341q0 212 -105 339.5
t-262.5 180t-330.5 52.5q-175 0 -333.5 -52.5t-264 -180t-105.5 -339.5q0 -213 105.5 -341t264 -180.5t333.5 -52.5q173 0 330.5 52.5zM1117 1638h-149l-249 262h185l138 -166l138 166h185z" />
    <glyph glyph-name="Ocircumflex" unicode="&#xd4;" 
d="M622.5 44.5q-202.5 66.5 -336.5 227t-134 424.5q0 263 134 423t336.5 226.5t424.5 66.5q220 0 421.5 -66.5t335 -226.5t133.5 -423q0 -264 -133.5 -424.5t-335 -227t-421.5 -66.5q-222 0 -424.5 66.5zM1377.5 174.5q157.5 52.5 262.5 180.5t105 341q0 212 -105 339.5
t-262.5 180t-330.5 52.5q-175 0 -333.5 -52.5t-264 -180t-105.5 -339.5q0 -213 105.5 -341t264 -180.5t333.5 -52.5q173 0 330.5 52.5zM1181 1658l-137 166l-140 -166h-185l249 262h149l249 -262h-185z" />
    <glyph glyph-name="Odieresis" unicode="&#xd6;" 
d="M622.5 44.5q-202.5 66.5 -336.5 227t-134 424.5q0 263 134 423t336.5 226.5t424.5 66.5q220 0 421.5 -66.5t335 -226.5t133.5 -423q0 -264 -133.5 -424.5t-335 -227t-421.5 -66.5q-222 0 -424.5 66.5zM1377.5 174.5q157.5 52.5 262.5 180.5t105 341q0 212 -105 339.5
t-262.5 180t-330.5 52.5q-175 0 -333.5 -52.5t-264 -180t-105.5 -339.5q0 -213 105.5 -341t264 -180.5t333.5 -52.5q173 0 330.5 52.5zM740 1734.5q-37 37.5 -37 90.5q0 54 36.5 91.5t89.5 37.5t90 -37.5t37 -91.5q0 -53 -37 -90.5t-90 -37.5q-52 0 -89 37.5zM1153 1734.5
q-37 37.5 -37 90.5q0 54 37 91.5t90 37.5q55 0 92.5 -37.5t37.5 -91.5t-37.5 -91t-92.5 -37q-53 0 -90 37.5z" />
    <glyph glyph-name="Ograve" unicode="&#xd2;" 
d="M622.5 44.5q-202.5 66.5 -336.5 227t-134 424.5q0 263 134 423t336.5 226.5t424.5 66.5q220 0 421.5 -66.5t335 -226.5t133.5 -423q0 -264 -133.5 -424.5t-335 -227t-421.5 -66.5q-222 0 -424.5 66.5zM1377.5 174.5q157.5 52.5 262.5 180.5t105 341q0 212 -105 339.5
t-262.5 180t-330.5 52.5q-175 0 -333.5 -52.5t-264 -180t-105.5 -339.5q0 -213 105.5 -341t264 -180.5t333.5 -52.5q173 0 330.5 52.5zM1103 1638l-284 282h225l220 -282h-161z" />
    <glyph glyph-name="Ohungarumlaut" unicode="&#x150;" 
d="M622.5 44.5q-202.5 66.5 -336.5 227t-134 424.5q0 263 134 423t336.5 226.5t424.5 66.5q220 0 421.5 -66.5t335 -226.5t133.5 -423q0 -264 -133.5 -424.5t-335 -227t-421.5 -66.5q-222 0 -424.5 66.5zM1377.5 174.5q157.5 52.5 262.5 180.5t105 341q0 212 -105 339.5
t-262.5 180t-330.5 52.5q-175 0 -333.5 -52.5t-264 -180t-105.5 -339.5q0 -213 105.5 -341t264 -180.5t333.5 -52.5q173 0 330.5 52.5zM847 1920h180l-167 -282h-135zM1181 1920h188l-232 -282h-130z" />
    <glyph glyph-name="Omacron" unicode="&#x14c;" 
d="M622.5 44.5q-202.5 66.5 -336.5 227t-134 424.5q0 263 134 423t336.5 226.5t424.5 66.5q220 0 421.5 -66.5t335 -226.5t133.5 -423q0 -264 -133.5 -424.5t-335 -227t-421.5 -66.5q-222 0 -424.5 66.5zM1377.5 174.5q157.5 52.5 262.5 180.5t105 341q0 212 -105 339.5
t-262.5 180t-330.5 52.5q-175 0 -333.5 -52.5t-264 -180t-105.5 -339.5q0 -213 105.5 -341t264 -180.5t333.5 -52.5q173 0 330.5 52.5zM1457 1845v-130h-834v130h834z" />
    <glyph glyph-name="Oslash" unicode="&#xd8;" 
d="M1829 1083.5q108 -152.5 108 -387.5q0 -264 -133.5 -424.5t-335 -227t-421.5 -66.5q-236 0 -429 68l-91 -126h-145l126 174q-165 84 -260.5 232.5t-95.5 369.5q0 263 134 423t336.5 226.5t424.5 66.5q202 0 378 -52l87 120h145l-118 -163q182 -81 290 -233.5z
M413.5 409.5q69.5 -115.5 189.5 -184.5l728 1005q-132 38 -284 38q-175 0 -333.5 -52.5t-264 -180t-105.5 -339.5q0 -171 69.5 -286.5zM1377.5 174.5q157.5 52.5 262.5 180.5t105 341q0 184 -81 305t-219 187l-733 -1013q151 -53 335 -53q173 0 330.5 52.5z" />
    <glyph glyph-name="Otilde" unicode="&#xd5;" 
d="M622.5 44.5q-202.5 66.5 -336.5 227t-134 424.5q0 263 134 423t336.5 226.5t424.5 66.5q220 0 421.5 -66.5t335 -226.5t133.5 -423q0 -264 -133.5 -424.5t-335 -227t-421.5 -66.5q-222 0 -424.5 66.5zM1377.5 174.5q157.5 52.5 262.5 180.5t105 341q0 212 -105 339.5
t-262.5 180t-330.5 52.5q-175 0 -333.5 -52.5t-264 -180t-105.5 -339.5q0 -213 105.5 -341t264 -180.5t333.5 -52.5q173 0 330.5 52.5zM1114 1674q-43 18 -94 53q-41 29 -71 42.5t-70 13.5q-59 0 -107.5 -29.5t-72.5 -66.5l-115 85q11 20 50.5 53t102.5 60t139 27
q46 0 81.5 -10t60.5 -24t60 -38q40 -29 70.5 -43t71.5 -14q59 0 105.5 30t69.5 68l115 -88q-11 -21 -49 -53t-100 -58t-139 -26q-65 0 -108 18z" />
    <glyph glyph-name="OE" unicode="&#x152;" horiz-adv-x="2600" 
d="M1755 1259v-489l1 -12h781v-140h-782v-477h870v-141h-1056v211q-126 -122 -313 -177.5t-388 -55.5q-222 0 -424.5 66.5t-336.5 227t-134 424.5q0 263 134 423t336.5 226.5t424.5 66.5q200 0 387.5 -55.5t313.5 -176.5v220h1056v-141h-870zM1198.5 174.5
q157.5 52.5 262.5 180.5t105 341q0 212 -105 339.5t-262.5 180t-330.5 52.5q-175 0 -333.5 -52.5t-264 -180t-105.5 -339.5q0 -213 105.5 -341t264 -180.5t333.5 -52.5q173 0 330.5 52.5z" />
    <glyph glyph-name="OE.ss01" 
d="M1430 1259v-501h613v-140h-613v-477h687v-141h-872v165q-97 -99 -231 -143t-280 -44q-179 0 -335 64t-259 224t-103 430q0 269 103 428.5t259.5 223.5t334.5 64q146 0 280 -44t231 -143v175h872v-141h-687zM981.5 175.5q111.5 53.5 181.5 181.5t70 339t-70 338.5
t-181.5 180.5t-247.5 53q-138 0 -251 -53t-183.5 -180.5t-70.5 -338.5t70.5 -339t183.5 -181.5t251 -53.5q136 0 247.5 53.5z" />
    <glyph glyph-name="P" unicode="P" 
d="M609 0h-188v1400h754q187 0 337.5 -34t251 -134t100.5 -284q0 -462 -689 -462h-566v-486zM1163 627q156 0 265.5 25.5t174.5 96.5t65 199t-65 196.5t-173 91.5t-267 23h-554v-632h554z" />
    <glyph glyph-name="Thorn" unicode="&#xde;" 
d="M1390 1149.5q140 -26.5 242 -123.5t102 -292q0 -204 -102.5 -309.5t-245 -137t-317.5 -31.5h-450v-256h-180v1400h180v-224h450q181 0 321 -26.5zM1305 419q102 22 171.5 96t69.5 219q0 135 -69 201t-168 83t-245 17h-445v-638h445q139 0 241 22z" />
    <glyph glyph-name="Q" unicode="Q" 
d="M1135 -164h756v-139h-921v283q-211 11 -395 82.5t-303.5 228.5t-119.5 405q0 263 134 423t336.5 226.5t424.5 66.5q220 0 421.5 -66.5t335 -226.5t133.5 -423q0 -246 -117 -402t-297 -228.5t-388 -84.5v-145zM449.5 355q105.5 -128 264 -180.5t333.5 -52.5
q173 0 330.5 52.5t262.5 180.5t105 341q0 212 -105 339.5t-262.5 180t-330.5 52.5q-175 0 -333.5 -52.5t-264 -180t-105.5 -339.5q0 -213 105.5 -341z" />
    <glyph glyph-name="R" unicode="R" 
d="M1483 592l382 -592h-222l-360 578h-739v-578h-188v1400h902q174 0 306.5 -31.5t216.5 -118.5t84 -245q0 -348 -382 -413zM544 721h733q199 0 295 62.5t96 211.5q0 100 -44.5 157.5t-131.5 82t-226 24.5h-722v-538z" />
    <glyph glyph-name="Racute" unicode="&#x154;" 
d="M1483 592l382 -592h-222l-360 578h-739v-578h-188v1400h902q174 0 306.5 -31.5t216.5 -118.5t84 -245q0 -348 -382 -413zM544 721h733q199 0 295 62.5t96 211.5q0 100 -44.5 157.5t-131.5 82t-226 24.5h-722v-538zM1025 1920h223l-286 -282h-160z" />
    <glyph glyph-name="Rcaron" unicode="&#x158;" 
d="M1483 592l382 -592h-222l-360 578h-739v-578h-188v1400h902q174 0 306.5 -31.5t216.5 -118.5t84 -245q0 -348 -382 -413zM544 721h733q199 0 295 62.5t96 211.5q0 100 -44.5 157.5t-131.5 82t-226 24.5h-722v-538zM1093 1638h-149l-249 262h185l138 -166l138 166h185z
" />
    <glyph glyph-name="uni0156" unicode="&#x156;" 
d="M1483 592l382 -592h-222l-360 578h-739v-578h-188v1400h902q174 0 306.5 -31.5t216.5 -118.5t84 -245q0 -348 -382 -413zM544 721h733q199 0 295 62.5t96 211.5q0 100 -44.5 157.5t-131.5 82t-226 24.5h-722v-538zM929.5 -289q-26.5 32 -26.5 78q0 53 37 90t90 37
q35 0 64.5 -17t46.5 -46.5t17 -63.5q0 -42 -19 -78l-166 -304l-89 39l119 220q-47 13 -73.5 45z" />
    <glyph glyph-name="S" unicode="S" 
d="M542.5 216.5q100.5 -39.5 237 -66t290.5 -26.5q193 0 336.5 28t222 81t78.5 127q0 72 -73.5 119t-213 80t-379.5 68q-225 32 -379 79.5t-240.5 126.5t-86.5 197q0 129 106.5 214.5t285 126.5t397.5 41q229 0 415 -45.5t302 -109.5l-118 -133q-96 56 -256 99t-353 43
q-149 0 -281 -26.5t-213.5 -79t-81.5 -126.5q0 -68 68 -114.5t190.5 -77t311.5 -56.5q256 -36 427.5 -82.5t273.5 -126.5t102 -203q0 -136 -110 -224.5t-300.5 -130t-437.5 -41.5q-259 0 -465 56t-333 128l120 135q57 -41 157.5 -80.5z" />
    <glyph glyph-name="Sacute" unicode="&#x15a;" 
d="M542.5 216.5q100.5 -39.5 237 -66t290.5 -26.5q193 0 336.5 28t222 81t78.5 127q0 72 -73.5 119t-213 80t-379.5 68q-225 32 -379 79.5t-240.5 126.5t-86.5 197q0 129 106.5 214.5t285 126.5t397.5 41q229 0 415 -45.5t302 -109.5l-118 -133q-96 56 -256 99t-353 43
q-149 0 -281 -26.5t-213.5 -79t-81.5 -126.5q0 -68 68 -114.5t190.5 -77t311.5 -56.5q256 -36 427.5 -82.5t273.5 -126.5t102 -203q0 -136 -110 -224.5t-300.5 -130t-437.5 -41.5q-259 0 -465 56t-333 128l120 135q57 -41 157.5 -80.5zM1069 1920h223l-286 -282h-160z" />
    <glyph glyph-name="Scaron" unicode="&#x160;" 
d="M542.5 216.5q100.5 -39.5 237 -66t290.5 -26.5q193 0 336.5 28t222 81t78.5 127q0 72 -73.5 119t-213 80t-379.5 68q-225 32 -379 79.5t-240.5 126.5t-86.5 197q0 129 106.5 214.5t285 126.5t397.5 41q229 0 415 -45.5t302 -109.5l-118 -133q-96 56 -256 99t-353 43
q-149 0 -281 -26.5t-213.5 -79t-81.5 -126.5q0 -68 68 -114.5t190.5 -77t311.5 -56.5q256 -36 427.5 -82.5t273.5 -126.5t102 -203q0 -136 -110 -224.5t-300.5 -130t-437.5 -41.5q-259 0 -465 56t-333 128l120 135q57 -41 157.5 -80.5zM1137 1638h-149l-249 262h185
l138 -166l138 166h185z" />
    <glyph glyph-name="Scedilla" unicode="&#x15e;" 
d="M1811.5 158.5q-99.5 -86.5 -273.5 -130t-402 -49.5l-35 -82q22 14 55.5 22.5t70.5 8.5q67 0 113.5 -29t45.5 -90q0 -69 -46 -115.5t-123 -68.5t-170 -22q-89 0 -177 20l37 99q79 -23 163 -23q82 0 134.5 24t52.5 69q0 29 -21.5 42.5t-55.5 13.5q-30 0 -62 -9.5t-53 -23.5
l-107 27l54 137q-242 6 -435 60.5t-312 122.5l120 135q57 -41 157.5 -80.5t237 -66t290.5 -26.5q193 0 336.5 28t222 81t78.5 127q0 72 -73.5 119t-213 80t-379.5 68q-225 32 -379 79.5t-240.5 126.5t-86.5 197q0 129 106.5 214.5t285 126.5t397.5 41q229 0 415 -45.5
t302 -109.5l-118 -133q-96 56 -256 99t-353 43q-149 0 -281 -26.5t-213.5 -79t-81.5 -126.5q0 -68 68 -114.5t190.5 -77t311.5 -56.5q256 -36 427.5 -82.5t273.5 -126.5t102 -203q0 -129 -99.5 -215.5z" />
    <glyph glyph-name="uni0218" unicode="&#x218;" 
d="M542.5 216.5q100.5 -39.5 237 -66t290.5 -26.5q193 0 336.5 28t222 81t78.5 127q0 72 -73.5 119t-213 80t-379.5 68q-225 32 -379 79.5t-240.5 126.5t-86.5 197q0 129 106.5 214.5t285 126.5t397.5 41q229 0 415 -45.5t302 -109.5l-118 -133q-96 56 -256 99t-353 43
q-149 0 -281 -26.5t-213.5 -79t-81.5 -126.5q0 -68 68 -114.5t190.5 -77t311.5 -56.5q256 -36 427.5 -82.5t273.5 -126.5t102 -203q0 -136 -110 -224.5t-300.5 -130t-437.5 -41.5q-259 0 -465 56t-333 128l120 135q57 -41 157.5 -80.5zM991.5 -290q-26.5 32 -26.5 78
q0 53 37 90t90 37q35 0 64.5 -17t46.5 -46.5t17 -63.5q0 -42 -19 -78l-166 -304l-89 39l119 220q-47 13 -73.5 45z" />
    <glyph glyph-name="uni1E9E" unicode="&#x1e9e;" 
d="M1444 793q171 -37 282 -128t111 -242q0 -154 -113 -255.5t-298 -149.5t-406 -48q-140 0 -259 17.5t-194 40.5l66 155q54 -19 160.5 -37.5t239.5 -18.5q269 0 436 67.5t167 229.5q0 285 -705 285l-118 129l591 416h-742q-89 0 -145.5 -29t-85.5 -99t-29 -192v-934h-218
v965q0 435 493 435h1003v-140l-607 -430q200 0 371 -37z" />
    <glyph glyph-name="T" unicode="T" 
d="M1882 1259h-733v-1259h-188v1259h-730v141h1651v-141z" />
    <glyph glyph-name="Tbar" unicode="&#x166;" 
d="M1882 1259h-733v-494h347v-130h-347v-635h-188v635h-339v130h339v494h-730v141h1651v-141z" />
    <glyph glyph-name="Tcaron" unicode="&#x164;" 
d="M1882 1259h-733v-1259h-188v1259h-730v141h1651v-141zM1134 1638h-149l-249 262h185l138 -166l138 166h185z" />
    <glyph glyph-name="uni0162" unicode="&#x162;" 
d="M1119 0l-44 -102q22 14 55.5 22.5t70.5 8.5q67 0 113.5 -29t45.5 -90q0 -69 -46 -115.5t-123 -68.5t-170 -22q-89 0 -177 20l37 99q79 -23 163 -23q82 0 134.5 24t52.5 69q0 29 -21.5 42.5t-55.5 13.5q-30 0 -62 -9.5t-53 -23.5l-107 27l62 157h-33v1259h-730v141h1651
v-141h-733v-1259h-30z" />
    <glyph glyph-name="uni021A" unicode="&#x21a;" 
d="M1882 1259h-733v-1259h-188v1259h-730v141h1651v-141zM965.5 -289q-26.5 32 -26.5 78q0 53 37 90t90 37q35 0 64.5 -17t46.5 -46.5t17 -63.5q0 -42 -19 -78l-166 -304l-89 39l119 220q-47 13 -73.5 45z" />
    <glyph glyph-name="U" unicode="U" 
d="M483 126q-215 148 -215 477v797h189v-809q0 -465 599 -465q285 0 439 110.5t154 354.5v809h189v-797q0 -330 -211 -477.5t-571 -147.5q-358 0 -573 148z" />
    <glyph glyph-name="Uacute" unicode="&#xda;" 
d="M483 126q-215 148 -215 477v797h189v-809q0 -465 599 -465q285 0 439 110.5t154 354.5v809h189v-797q0 -330 -211 -477.5t-571 -147.5q-358 0 -573 148zM1059 1920h223l-286 -282h-160z" />
    <glyph glyph-name="uni01D3" unicode="&#x1d3;" 
d="M483 126q-215 148 -215 477v797h189v-809q0 -465 599 -465q285 0 439 110.5t154 354.5v809h189v-797q0 -330 -211 -477.5t-571 -147.5q-358 0 -573 148zM1126 1638h-149l-249 262h185l138 -166l138 166h185z" />
    <glyph glyph-name="Ucircumflex" unicode="&#xdb;" 
d="M483 126q-215 148 -215 477v797h189v-809q0 -465 599 -465q285 0 439 110.5t154 354.5v809h189v-797q0 -330 -211 -477.5t-571 -147.5q-358 0 -573 148zM1191 1658l-137 166l-140 -166h-185l249 262h149l249 -262h-185z" />
    <glyph glyph-name="Udieresis" unicode="&#xdc;" 
d="M483 126q-215 148 -215 477v797h189v-809q0 -465 599 -465q285 0 439 110.5t154 354.5v809h189v-797q0 -330 -211 -477.5t-571 -147.5q-358 0 -573 148zM750 1734.5q-37 37.5 -37 90.5q0 54 36.5 91.5t89.5 37.5t90 -37.5t37 -91.5q0 -53 -37 -90.5t-90 -37.5
q-52 0 -89 37.5zM1163 1734.5q-37 37.5 -37 90.5q0 54 37 91.5t90 37.5q55 0 92.5 -37.5t37.5 -91.5t-37.5 -91t-92.5 -37q-53 0 -90 37.5z" />
    <glyph glyph-name="uni01D7" unicode="&#x1d7;" 
d="M483 126q-215 148 -215 477v797h189v-809q0 -465 599 -465q285 0 439 110.5t154 354.5v809h189v-797q0 -330 -211 -477.5t-571 -147.5q-358 0 -573 148zM742 1575.5q-37 37.5 -37 90.5q0 54 36.5 91.5t89.5 37.5t90 -37.5t37 -91.5q0 -53 -37 -90.5t-90 -37.5
q-52 0 -89 37.5zM1155 1575.5q-37 37.5 -37 90.5q0 54 37 91.5t90 37.5q55 0 92.5 -37.5t37.5 -91.5t-37.5 -91t-92.5 -37q-53 0 -90 37.5zM1024 2227h223l-286 -282h-160z" />
    <glyph glyph-name="uni01D9" unicode="&#x1d9;" 
d="M483 126q-215 148 -215 477v797h189v-809q0 -465 599 -465q285 0 439 110.5t154 354.5v809h189v-797q0 -330 -211 -477.5t-571 -147.5q-358 0 -573 148zM1117 1866h-149l-249 262h185l138 -166l138 166h185zM747 1575.5q-37 37.5 -37 90.5q0 54 36.5 91.5t89.5 37.5
t90 -37.5t37 -91.5q0 -53 -37 -90.5t-90 -37.5q-52 0 -89 37.5zM1160 1575.5q-37 37.5 -37 90.5q0 54 37 91.5t90 37.5q55 0 92.5 -37.5t37.5 -91.5t-37.5 -91t-92.5 -37q-53 0 -90 37.5z" />
    <glyph glyph-name="uni01DB" unicode="&#x1db;" 
d="M483 126q-215 148 -215 477v797h189v-809q0 -465 599 -465q285 0 439 110.5t154 354.5v809h189v-797q0 -330 -211 -477.5t-571 -147.5q-358 0 -573 148zM1102 1888l-284 282h225l220 -282h-161zM745 1575.5q-37 37.5 -37 90.5q0 54 36.5 91.5t89.5 37.5t90 -37.5
t37 -91.5q0 -53 -37 -90.5t-90 -37.5q-52 0 -89 37.5zM1158 1575.5q-37 37.5 -37 90.5q0 54 37 91.5t90 37.5q55 0 92.5 -37.5t37.5 -91.5t-37.5 -91t-92.5 -37q-53 0 -90 37.5z" />
    <glyph glyph-name="uni01D5" unicode="&#x1d5;" 
d="M483 126q-215 148 -215 477v797h189v-809q0 -465 599 -465q285 0 439 110.5t154 354.5v809h189v-797q0 -330 -211 -477.5t-571 -147.5q-358 0 -573 148zM1450 2038v-130h-834v130h834zM741 1575.5q-37 37.5 -37 90.5q0 54 36.5 91.5t89.5 37.5t90 -37.5t37 -91.5
q0 -53 -37 -90.5t-90 -37.5q-52 0 -89 37.5zM1154 1575.5q-37 37.5 -37 90.5q0 54 37 91.5t90 37.5q55 0 92.5 -37.5t37.5 -91.5t-37.5 -91t-92.5 -37q-53 0 -90 37.5z" />
    <glyph glyph-name="Ugrave" unicode="&#xd9;" 
d="M483 126q-215 148 -215 477v797h189v-809q0 -465 599 -465q285 0 439 110.5t154 354.5v809h189v-797q0 -330 -211 -477.5t-571 -147.5q-358 0 -573 148zM1112 1638l-284 282h225l220 -282h-161z" />
    <glyph glyph-name="Uhungarumlaut" unicode="&#x170;" 
d="M483 126q-215 148 -215 477v797h189v-809q0 -465 599 -465q285 0 439 110.5t154 354.5v809h189v-797q0 -330 -211 -477.5t-571 -147.5q-358 0 -573 148zM857 1920h180l-167 -282h-135zM1191 1920h188l-232 -282h-130z" />
    <glyph glyph-name="Umacron" unicode="&#x16a;" 
d="M483 126q-215 148 -215 477v797h189v-809q0 -465 599 -465q285 0 439 110.5t154 354.5v809h189v-797q0 -330 -211 -477.5t-571 -147.5q-358 0 -573 148zM1466 1845v-130h-834v130h834z" />
    <glyph glyph-name="Uogonek" unicode="&#x172;" 
d="M1838 1400v-797q0 -270 -144.5 -417.5t-400.5 -189.5q-59 -36 -103.5 -85t-44.5 -94q0 -43 52 -62t125 -19q47 0 93.5 7t69.5 15l50 -128q-46 -14 -114 -21.5t-137 -7.5q-85 0 -161 18.5t-123.5 57t-47.5 95.5q0 60 43.5 114t106.5 93q-15 -1 -46 -1q-358 0 -573 148
t-215 477v797h189v-809q0 -465 599 -465q285 0 439 110.5t154 354.5v809h189z" />
    <glyph glyph-name="Uring" unicode="&#x16e;" 
d="M483 126q-215 148 -215 477v797h189v-809q0 -465 599 -465q285 0 439 110.5t154 354.5v809h189v-797q0 -330 -211 -477.5t-571 -147.5q-358 0 -573 148zM956.5 1664.5q-42.5 24.5 -68 67t-25.5 94.5q0 50 25.5 92t68.5 67t93 25q49 0 91.5 -25t67.5 -67.5t25 -91.5
q0 -52 -25 -94.5t-67.5 -67t-91.5 -24.5q-51 0 -93.5 24.5zM1106 1767.5q23 22.5 23 59.5q0 33 -23 54.5t-56 21.5q-34 0 -57 -21.5t-23 -54.5q0 -37 23 -59.5t57 -22.5q33 0 56 22.5z" />
    <glyph glyph-name="V" unicode="V" 
d="M1881 1400l-616 -1400h-427l-617 1400h198l554 -1259h156l554 1259h198z" />
    <glyph glyph-name="W" unicode="W" horiz-adv-x="2600" 
d="M2246 1400h208l-401 -1400h-303l-433 1204l-433 -1204h-305l-400 1400h209l346 -1279l2 -10l3 12l452 1267h253l451 -1261l3 -14l3 13z" />
    <glyph glyph-name="Wacute" unicode="&#x1e82;" horiz-adv-x="2600" 
d="M2246 1400h208l-401 -1400h-303l-433 1204l-433 -1204h-305l-400 1400h209l346 -1279l2 -10l3 12l452 1267h253l451 -1261l3 -14l3 13zM1319 1920h223l-286 -282h-160z" />
    <glyph glyph-name="Wcircumflex" unicode="&#x174;" horiz-adv-x="2600" 
d="M2246 1400h208l-401 -1400h-303l-433 1204l-433 -1204h-305l-400 1400h209l346 -1279l2 -10l3 12l452 1267h253l451 -1261l3 -14l3 13zM1451 1658l-137 166l-140 -166h-185l249 262h149l249 -262h-185z" />
    <glyph glyph-name="Wdieresis" unicode="&#x1e84;" horiz-adv-x="2600" 
d="M2246 1400h208l-401 -1400h-303l-433 1204l-433 -1204h-305l-400 1400h209l346 -1279l2 -10l3 12l452 1267h253l451 -1261l3 -14l3 13zM1011 1734.5q-37 37.5 -37 90.5q0 54 36.5 91.5t89.5 37.5t90 -37.5t37 -91.5q0 -53 -37 -90.5t-90 -37.5q-52 0 -89 37.5z
M1424 1734.5q-37 37.5 -37 90.5q0 54 37 91.5t90 37.5q55 0 92.5 -37.5t37.5 -91.5t-37.5 -91t-92.5 -37q-53 0 -90 37.5z" />
    <glyph glyph-name="Wgrave" unicode="&#x1e80;" horiz-adv-x="2600" 
d="M2246 1400h208l-401 -1400h-303l-433 1204l-433 -1204h-305l-400 1400h209l346 -1279l2 -10l3 12l452 1267h253l451 -1261l3 -14l3 13zM1373 1638l-284 282h225l220 -282h-161z" />
    <glyph glyph-name="X" unicode="X" 
d="M738 690l-516 710h219l455 -638h343l455 638h219l-516 -710l516 -690h-219l-465 622h-324l-464 -622h-219z" />
    <glyph glyph-name="Y" unicode="Y" 
d="M989 578l-702 822h217l582 -691l577 691h218l-699 -822v-578h-193v578z" />
    <glyph glyph-name="Yacute" unicode="&#xdd;" 
d="M989 578l-702 822h217l582 -691l577 691h218l-699 -822v-578h-193v578zM1091 1920h223l-286 -282h-160z" />
    <glyph glyph-name="Ycircumflex" unicode="&#x176;" 
d="M989 578l-702 822h217l582 -691l577 691h218l-699 -822v-578h-193v578zM1223 1658l-137 166l-140 -166h-185l249 262h149l249 -262h-185z" />
    <glyph glyph-name="Ydieresis" unicode="&#x178;" 
d="M989 578l-702 822h217l582 -691l577 691h218l-699 -822v-578h-193v578zM782 1734.5q-37 37.5 -37 90.5q0 54 36.5 91.5t89.5 37.5t90 -37.5t37 -91.5q0 -53 -37 -90.5t-90 -37.5q-52 0 -89 37.5zM1195 1734.5q-37 37.5 -37 90.5q0 54 37 91.5t90 37.5q55 0 92.5 -37.5
t37.5 -91.5t-37.5 -91t-92.5 -37q-53 0 -90 37.5z" />
    <glyph glyph-name="Ygrave" unicode="&#x1ef2;" 
d="M989 578l-702 822h217l582 -691l577 691h218l-699 -822v-578h-193v578zM1145 1638l-284 282h225l220 -282h-161z" />
    <glyph glyph-name="Z" unicode="Z" 
d="M1814 141v-141h-1566v141l1307 1118h-1281v141h1517v-141l-1303 -1118h1326z" />
    <glyph glyph-name="Zacute" unicode="&#x179;" 
d="M1814 141v-141h-1566v141l1307 1118h-1281v141h1517v-141l-1303 -1118h1326zM1010 1920h223l-286 -282h-160z" />
    <glyph glyph-name="Zcaron" unicode="&#x17d;" 
d="M1814 141v-141h-1566v141l1307 1118h-1281v141h1517v-141l-1303 -1118h1326zM1078 1638h-149l-249 262h185l138 -166l138 166h185z" />
    <glyph glyph-name="Zdotaccent" unicode="&#x17b;" 
d="M1814 141v-141h-1566v141l1307 1118h-1281v141h1517v-141l-1303 -1118h1326zM948 1718q-29 17 -46 46.5t-17 64.5t17 64.5t46 46.5t63 17q53 0 90.5 -37t37.5 -91t-37.5 -91t-90.5 -37q-34 0 -63 17z" />
    <glyph glyph-name="a" unicode="a" 
d="M1384.5 71q-88.5 -37 -223 -65t-296.5 -28q-268 0 -415.5 82t-147.5 248q0 108 80 182t225 110.5t340 35.5q172 -1 322 -24.5t245 -55.5v79q0 140 -143.5 191.5t-364.5 51.5q-106 0 -218 -14t-203.5 -35t-138.5 -41l-80 147q53 18 153 38.5t229 35.5t259 15
q295 0 491 -80t196 -281v-522h293v-141h-442l-26 139q-46 -31 -134.5 -68zM1287.5 482.5q-151.5 21.5 -322.5 21.5q-238 0 -360.5 -50.5t-122.5 -145.5q0 -101 111 -147t308 -46q150 0 279.5 26t214 57t119.5 52v189q-75 22 -226.5 43.5z" />
    <glyph glyph-name="a.ss01" 
d="M1653 1000v-1000h-184l-8 157v39q-88 -97 -234 -157.5t-324 -60.5q-184 0 -334.5 59t-239 177.5t-88.5 288.5q0 171 82 287.5t225 174t327 57.5q188 0 341.5 -59.5t244.5 -155.5v193h192zM1177 164q106 38 182 99.5t102 127.5v227q-33 65 -109.5 124t-183.5 95.5
t-227 36.5q-236 0 -372.5 -89t-136.5 -282q0 -128 68.5 -212.5t187 -124.5t270.5 -40q113 0 219 38z" />
    <glyph glyph-name="aacute" unicode="&#xe1;" 
d="M1384.5 71q-88.5 -37 -223 -65t-296.5 -28q-268 0 -415.5 82t-147.5 248q0 108 80 182t225 110.5t340 35.5q172 -1 322 -24.5t245 -55.5v79q0 140 -143.5 191.5t-364.5 51.5q-106 0 -218 -14t-203.5 -35t-138.5 -41l-80 147q53 18 153 38.5t229 35.5t259 15
q295 0 491 -80t196 -281v-522h293v-141h-442l-26 139q-46 -31 -134.5 -68zM1287.5 482.5q-151.5 21.5 -322.5 21.5q-238 0 -360.5 -50.5t-122.5 -145.5q0 -101 111 -147t308 -46q150 0 279.5 26t214 57t119.5 52v189q-75 22 -226.5 43.5zM1054 1520h223l-286 -282h-160z" />
    <glyph glyph-name="abreve" unicode="&#x103;" 
d="M1384.5 71q-88.5 -37 -223 -65t-296.5 -28q-268 0 -415.5 82t-147.5 248q0 108 80 182t225 110.5t340 35.5q172 -1 322 -24.5t245 -55.5v79q0 140 -143.5 191.5t-364.5 51.5q-106 0 -218 -14t-203.5 -35t-138.5 -41l-80 147q53 18 153 38.5t229 35.5t259 15
q295 0 491 -80t196 -281v-522h293v-141h-442l-26 139q-46 -31 -134.5 -68zM1287.5 482.5q-151.5 21.5 -322.5 21.5q-238 0 -360.5 -50.5t-122.5 -145.5q0 -101 111 -147t308 -46q150 0 279.5 26t214 57t119.5 52v189q-75 22 -226.5 43.5zM1270 1385.5q-27 -61.5 -83.5 -101
t-140.5 -39.5q-83 0 -138 39.5t-81 100.5t-26 128h136q0 -55 23.5 -108t87.5 -53q67 0 90 52t23 109h136q0 -66 -27 -127.5z" />
    <glyph glyph-name="uni01CE" unicode="&#x1ce;" 
d="M1384.5 71q-88.5 -37 -223 -65t-296.5 -28q-268 0 -415.5 82t-147.5 248q0 108 80 182t225 110.5t340 35.5q172 -1 322 -24.5t245 -55.5v79q0 140 -143.5 191.5t-364.5 51.5q-106 0 -218 -14t-203.5 -35t-138.5 -41l-80 147q53 18 153 38.5t229 35.5t259 15
q295 0 491 -80t196 -281v-522h293v-141h-442l-26 139q-46 -31 -134.5 -68zM1287.5 482.5q-151.5 21.5 -322.5 21.5q-238 0 -360.5 -50.5t-122.5 -145.5q0 -101 111 -147t308 -46q150 0 279.5 26t214 57t119.5 52v189q-75 22 -226.5 43.5zM1122 1238h-149l-249 262h185
l138 -166l138 166h185z" />
    <glyph glyph-name="acircumflex" unicode="&#xe2;" 
d="M1384.5 71q-88.5 -37 -223 -65t-296.5 -28q-268 0 -415.5 82t-147.5 248q0 108 80 182t225 110.5t340 35.5q172 -1 322 -24.5t245 -55.5v79q0 140 -143.5 191.5t-364.5 51.5q-106 0 -218 -14t-203.5 -35t-138.5 -41l-80 147q53 18 153 38.5t229 35.5t259 15
q295 0 491 -80t196 -281v-522h293v-141h-442l-26 139q-46 -31 -134.5 -68zM1287.5 482.5q-151.5 21.5 -322.5 21.5q-238 0 -360.5 -50.5t-122.5 -145.5q0 -101 111 -147t308 -46q150 0 279.5 26t214 57t119.5 52v189q-75 22 -226.5 43.5zM1186 1258l-137 166l-140 -166h-185
l249 262h149l249 -262h-185z" />
    <glyph glyph-name="adieresis" unicode="&#xe4;" 
d="M1384.5 71q-88.5 -37 -223 -65t-296.5 -28q-268 0 -415.5 82t-147.5 248q0 108 80 182t225 110.5t340 35.5q172 -1 322 -24.5t245 -55.5v79q0 140 -143.5 191.5t-364.5 51.5q-106 0 -218 -14t-203.5 -35t-138.5 -41l-80 147q53 18 153 38.5t229 35.5t259 15
q295 0 491 -80t196 -281v-522h293v-141h-442l-26 139q-46 -31 -134.5 -68zM1287.5 482.5q-151.5 21.5 -322.5 21.5q-238 0 -360.5 -50.5t-122.5 -145.5q0 -101 111 -147t308 -46q150 0 279.5 26t214 57t119.5 52v189q-75 22 -226.5 43.5zM745 1334.5q-37 37.5 -37 90.5
q0 54 36.5 91.5t89.5 37.5t90 -37.5t37 -91.5q0 -53 -37 -90.5t-90 -37.5q-52 0 -89 37.5zM1158 1334.5q-37 37.5 -37 90.5q0 54 37 91.5t90 37.5q55 0 92.5 -37.5t37.5 -91.5t-37.5 -91t-92.5 -37q-53 0 -90 37.5z" />
    <glyph glyph-name="agrave" unicode="&#xe0;" 
d="M1384.5 71q-88.5 -37 -223 -65t-296.5 -28q-268 0 -415.5 82t-147.5 248q0 108 80 182t225 110.5t340 35.5q172 -1 322 -24.5t245 -55.5v79q0 140 -143.5 191.5t-364.5 51.5q-106 0 -218 -14t-203.5 -35t-138.5 -41l-80 147q53 18 153 38.5t229 35.5t259 15
q295 0 491 -80t196 -281v-522h293v-141h-442l-26 139q-46 -31 -134.5 -68zM1287.5 482.5q-151.5 21.5 -322.5 21.5q-238 0 -360.5 -50.5t-122.5 -145.5q0 -101 111 -147t308 -46q150 0 279.5 26t214 57t119.5 52v189q-75 22 -226.5 43.5zM1107 1238l-284 282h225l220 -282
h-161z" />
    <glyph glyph-name="amacron" unicode="&#x101;" 
d="M1384.5 71q-88.5 -37 -223 -65t-296.5 -28q-268 0 -415.5 82t-147.5 248q0 108 80 182t225 110.5t340 35.5q172 -1 322 -24.5t245 -55.5v79q0 140 -143.5 191.5t-364.5 51.5q-106 0 -218 -14t-203.5 -35t-138.5 -41l-80 147q53 18 153 38.5t229 35.5t259 15
q295 0 491 -80t196 -281v-522h293v-141h-442l-26 139q-46 -31 -134.5 -68zM1287.5 482.5q-151.5 21.5 -322.5 21.5q-238 0 -360.5 -50.5t-122.5 -145.5q0 -101 111 -147t308 -46q150 0 279.5 26t214 57t119.5 52v189q-75 22 -226.5 43.5zM1461 1445v-130h-834v130h834z" />
    <glyph glyph-name="aogonek" unicode="&#x105;" 
d="M1605 -80.5q-37 -44.5 -37 -85.5q0 -42 52 -61t125 -19q46 0 92.5 7t70.5 14l50 -128q-46 -14 -115 -21.5t-135 -7.5q-85 0 -161 18.5t-123.5 57.5t-47.5 96q0 68 54.5 127.5t126.5 96.5l-23 125q-46 -31 -134.5 -68t-223 -65t-296.5 -28q-268 0 -415.5 82t-147.5 248
q0 108 80 182t225 110.5t340 35.5q172 -1 322 -24.5t245 -55.5v79q0 140 -143.5 191.5t-364.5 51.5q-106 0 -218 -14t-203.5 -35t-138.5 -41l-80 147q53 18 153 38.5t229 35.5t259 15q295 0 491 -80t196 -281v-522h293v-141h-307q-53 -36 -90 -80.5zM1529 439
q-75 22 -226.5 43.5t-322.5 21.5q-238 0 -360.5 -50.5t-122.5 -145.5q0 -101 111 -147t308 -46q150 0 279.5 26t214 57t119.5 52v189z" />
    <glyph glyph-name="aring" unicode="&#xe5;" 
d="M1384.5 71q-88.5 -37 -223 -65t-296.5 -28q-268 0 -415.5 82t-147.5 248q0 108 80 182t225 110.5t340 35.5q172 -1 322 -24.5t245 -55.5v79q0 140 -143.5 191.5t-364.5 51.5q-106 0 -218 -14t-203.5 -35t-138.5 -41l-80 147q53 18 153 38.5t229 35.5t259 15
q295 0 491 -80t196 -281v-522h293v-141h-442l-26 139q-46 -31 -134.5 -68zM1287.5 482.5q-151.5 21.5 -322.5 21.5q-238 0 -360.5 -50.5t-122.5 -145.5q0 -101 111 -147t308 -46q150 0 279.5 26t214 57t119.5 52v189q-75 22 -226.5 43.5zM951.5 1264.5q-42.5 24.5 -68 67
t-25.5 94.5q0 50 25.5 92t68.5 67t93 25q49 0 91.5 -25t67.5 -67.5t25 -91.5q0 -52 -25 -94.5t-67.5 -67t-91.5 -24.5q-51 0 -93.5 24.5zM1101 1367.5q23 22.5 23 59.5q0 33 -23 54.5t-56 21.5q-34 0 -57 -21.5t-23 -54.5q0 -37 23 -59.5t57 -22.5q33 0 56 22.5z" />
    <glyph glyph-name="atilde" unicode="&#xe3;" 
d="M1384.5 71q-88.5 -37 -223 -65t-296.5 -28q-268 0 -415.5 82t-147.5 248q0 108 80 182t225 110.5t340 35.5q172 -1 322 -24.5t245 -55.5v79q0 140 -143.5 191.5t-364.5 51.5q-106 0 -218 -14t-203.5 -35t-138.5 -41l-80 147q53 18 153 38.5t229 35.5t259 15
q295 0 491 -80t196 -281v-522h293v-141h-442l-26 139q-46 -31 -134.5 -68zM1287.5 482.5q-151.5 21.5 -322.5 21.5q-238 0 -360.5 -50.5t-122.5 -145.5q0 -101 111 -147t308 -46q150 0 279.5 26t214 57t119.5 52v189q-75 22 -226.5 43.5zM1119 1274q-43 18 -94 53
q-41 29 -71 42.5t-70 13.5q-59 0 -107.5 -29.5t-72.5 -66.5l-115 85q11 20 50.5 53t102.5 60t139 27q46 0 81.5 -10t60.5 -24t60 -38q40 -29 70.5 -43t71.5 -14q59 0 105.5 30t69.5 68l115 -88q-11 -21 -49 -53t-100 -58t-139 -26q-65 0 -108 18z" />
    <glyph glyph-name="ae" unicode="&#xe6;" horiz-adv-x="2600" 
d="M2599 442h-1273q16 -97 84.5 -169.5t188.5 -112.5t285 -40q137 0 246.5 24t180.5 58t106 68l160 -102q-64 -52 -167.5 -95t-239 -69t-287.5 -26q-200 0 -366 58.5t-264 170.5q-84 -103 -256.5 -166t-419.5 -63q-245 0 -399 80t-154 249q0 108 77.5 182t216 111t320.5 36
q164 -1 274.5 -20.5t227.5 -53.5v73q0 141 -128.5 192t-342.5 51q-151 0 -301 -28.5t-235 -61.5l-80 145q99 32 265 61.5t352 29.5q211 0 372 -44.5t232 -152.5q100 97 260.5 147t351.5 50q202 0 364 -63.5t256 -184t94 -286.5q0 -36 -1 -48zM2409 570q0 82 -67 154
t-187 115.5t-270 43.5q-232 0 -381 -78.5t-177 -234.5h1082zM1140 445l-27 6q-94 23 -195.5 38t-244.5 15q-141 0 -247 -23t-164 -67t-58 -107q0 -106 108 -149t280 -43q164 0 289 38t192 97.5t67 120.5v74z" />
    <glyph glyph-name="ae.ss01" 
d="M1736 160q76 44 114 106l145 -62q-68 -114 -189 -170t-284 -56q-157 0 -272.5 53.5t-180.5 159.5q-39 -59 -110.5 -107.5t-168 -77t-206.5 -28.5q-218 0 -347 80.5t-129 241.5q0 105 71.5 169.5t177 91.5t215.5 27h418q-3 64 -39.5 131.5t-118 115t-210.5 47.5
q-127 0 -221 -36.5t-158 -82.5l-104 114q34 31 99 64.5t162.5 58t215.5 24.5q161 0 273 -63t170 -166q63 115 181 172t275 57q272 0 385.5 -147t113.5 -403h-869q6 -180 100 -269t280 -89q135 0 211 44zM1259 808q-90 -75 -110 -222h696q-2 72 -33 139t-105 112.5t-196 45.5
q-162 0 -252 -75zM792.5 147q90.5 36 148.5 87.5t72 94.5q-18 70 -19 145h-387q-135 0 -238 -36t-103 -135q0 -103 94.5 -147.5t235.5 -44.5q106 0 196.5 36z" />
    <glyph glyph-name="b" unicode="b" 
d="M1585.5 962.5q140.5 -59.5 216 -175.5t75.5 -284q0 -166 -83.5 -284.5t-232.5 -179.5t-343 -61q-191 0 -346.5 66.5t-245.5 170.5l-13 -215h-174v1500h192v-707q61 65 155 117t213.5 82t252.5 30q193 0 333.5 -59.5zM1447.5 170q115.5 44 178 129t62.5 204
q0 180 -126.5 275.5t-363.5 95.5q-122 0 -243 -38t-208.5 -100t-115.5 -131v-197q22 -71 105.5 -136t201 -105.5t237.5 -40.5q157 0 272.5 44z" />
    <glyph glyph-name="c" unicode="c" 
d="M823.5 32q-172.5 54 -286 172t-113.5 298q0 181 113.5 298.5t285.5 170.5t354 53q140 0 269 -26.5t226.5 -71t147.5 -98.5l-118 -113q-67 75 -200.5 121t-317.5 46q-150 0 -277.5 -40.5t-206.5 -125.5t-79 -214q0 -127 78.5 -212.5t206.5 -127t276 -41.5q122 0 227 25
t178.5 63.5t109.5 78.5l123 -125q-40 -44 -139 -87t-232.5 -70.5t-271.5 -27.5q-181 0 -353.5 54z" />
    <glyph glyph-name="cacute" unicode="&#x107;" 
d="M823.5 32q-172.5 54 -286 172t-113.5 298q0 181 113.5 298.5t285.5 170.5t354 53q140 0 269 -26.5t226.5 -71t147.5 -98.5l-118 -113q-67 75 -200.5 121t-317.5 46q-150 0 -277.5 -40.5t-206.5 -125.5t-79 -214q0 -127 78.5 -212.5t206.5 -127t276 -41.5q122 0 227 25
t178.5 63.5t109.5 78.5l123 -125q-40 -44 -139 -87t-232.5 -70.5t-271.5 -27.5q-181 0 -353.5 54zM1161 1520h223l-286 -282h-160z" />
    <glyph glyph-name="ccaron" unicode="&#x10d;" 
d="M823.5 32q-172.5 54 -286 172t-113.5 298q0 181 113.5 298.5t285.5 170.5t354 53q140 0 269 -26.5t226.5 -71t147.5 -98.5l-118 -113q-67 75 -200.5 121t-317.5 46q-150 0 -277.5 -40.5t-206.5 -125.5t-79 -214q0 -127 78.5 -212.5t206.5 -127t276 -41.5q122 0 227 25
t178.5 63.5t109.5 78.5l123 -125q-40 -44 -139 -87t-232.5 -70.5t-271.5 -27.5q-181 0 -353.5 54zM1228 1238h-149l-249 262h185l138 -166l138 166h185z" />
    <glyph glyph-name="ccedilla" unicode="&#xe7;" 
d="M1409 146q105 25 178.5 63.5t109.5 78.5l123 -125q-39 -43 -133.5 -84.5t-222 -69.5t-261.5 -31l-34 -80q22 14 55.5 22.5t70.5 8.5q67 0 113.5 -29t45.5 -90q0 -69 -46 -115.5t-123 -68.5t-170 -22q-89 0 -177 20l37 99q79 -23 163 -23q82 0 134.5 24t52.5 69
q0 29 -21.5 42.5t-55.5 13.5q-30 0 -62 -9.5t-53 -23.5l-107 27l54 139q-169 14 -317.5 72.5t-243.5 171t-95 276.5q0 181 113.5 298.5t285.5 170.5t354 53q140 0 269 -26.5t226.5 -71t147.5 -98.5l-118 -113q-67 75 -200.5 121t-317.5 46q-150 0 -277.5 -40.5
t-206.5 -125.5t-79 -214q0 -127 78.5 -212.5t206.5 -127t276 -41.5q122 0 227 25z" />
    <glyph glyph-name="cdotaccent" unicode="&#x10b;" 
d="M823.5 32q-172.5 54 -286 172t-113.5 298q0 181 113.5 298.5t285.5 170.5t354 53q140 0 269 -26.5t226.5 -71t147.5 -98.5l-118 -113q-67 75 -200.5 121t-317.5 46q-150 0 -277.5 -40.5t-206.5 -125.5t-79 -214q0 -127 78.5 -212.5t206.5 -127t276 -41.5q122 0 227 25
t178.5 63.5t109.5 78.5l123 -125q-40 -44 -139 -87t-232.5 -70.5t-271.5 -27.5q-181 0 -353.5 54zM1098 1318q-29 17 -46 46.5t-17 64.5t17 64.5t46 46.5t63 17q53 0 90.5 -37t37.5 -91t-37.5 -91t-90.5 -37q-34 0 -63 17z" />
    <glyph glyph-name="d" unicode="d" 
d="M1699 1500v-1500h-174l-13 216q-90 -105 -245 -171.5t-347 -66.5q-194 0 -343 61t-232.5 179.5t-83.5 284.5q0 168 75.5 284t216 175.5t333.5 59.5q133 0 253 -30t214 -82t155 -117v707h191zM1202.5 167q118.5 41 201.5 107.5t104 137.5v191q-27 69 -114.5 131.5
t-209 101t-244.5 38.5q-237 0 -363 -95.5t-126 -275.5q0 -119 62.5 -204t178 -129t272.5 -44q120 0 238.5 41z" />
    <glyph glyph-name="eth" unicode="&#xf0;" 
d="M1540.5 1229.5q132.5 -124.5 208 -279t75.5 -326.5q0 -344 -203 -495t-553 -151q-219 0 -388.5 62.5t-264.5 181t-95 280.5q0 169 93.5 286.5t257.5 176.5t376 59q157 0 284 -38t218 -101q-68 138 -191 254.5t-281 198.5l-222 -150l-94 95l177 117q-171 65 -339 80
l97 127q211 -26 401 -102l175 116l74 -102l-112 -76q174 -89 306.5 -213.5zM1352.5 172.5q122.5 46.5 195 150.5t72.5 268q0 19 -2 55q-25 55 -105.5 108.5t-200 87.5t-253.5 34q-151 0 -274.5 -41t-197 -125t-73.5 -208q0 -116 75.5 -201.5t203.5 -130t280 -44.5
q157 0 279.5 46.5z" />
    <glyph glyph-name="dcaron" unicode="&#x10f;" 
d="M1731 1500v-1500h-174l-13 216q-90 -105 -245 -171.5t-347 -66.5q-194 0 -343 61t-232.5 179.5t-83.5 284.5q0 168 75.5 284t216 175.5t333.5 59.5q133 0 253 -30t214 -82t155 -117v707h191zM1234.5 167q118.5 41 201.5 107.5t104 137.5v191q-27 69 -114.5 131.5
t-209 101t-244.5 38.5q-237 0 -363 -95.5t-126 -275.5q0 -119 62.5 -204t178 -129t272.5 -44q120 0 238.5 41zM1020.5 -252q-26.5 32 -26.5 78q0 53 37 90t90 37q35 0 64.5 -17t46.5 -46.5t17 -63.5q0 -42 -19 -78l-166 -304l-89 39l119 220q-47 13 -73.5 45z" />
    <glyph glyph-name="dcroat" unicode="&#x111;" 
d="M1982 1233h-283v-1233h-174l-13 216q-90 -105 -245 -171.5t-347 -66.5q-194 0 -343 61t-232.5 179.5t-83.5 284.5q0 168 75.5 284t216 175.5t333.5 59.5q133 0 253 -30t214 -82t155 -117v440h-289v130h289v137h191v-137h283v-130zM1202.5 167q118.5 41 201.5 107.5
t104 137.5v191q-27 69 -114.5 131.5t-209 101t-244.5 38.5q-237 0 -363 -95.5t-126 -275.5q0 -119 62.5 -204t178 -129t272.5 -44q120 0 238.5 41z" />
    <glyph glyph-name="e" unicode="e" 
d="M1804 442h-1273q16 -97 84.5 -169.5t188.5 -112.5t285 -40q137 0 246.5 24t181 58t106.5 68l159 -102q-64 -52 -167 -95t-238.5 -69t-287.5 -26q-204 0 -373 61t-269 181t-100 289q0 168 100.5 284t269.5 173.5t374 57.5q202 0 364 -63.5t256 -184t94 -286.5
q0 -36 -1 -48zM1614 570q0 82 -67 154t-186.5 115.5t-269.5 43.5q-233 0 -382 -78.5t-177 -234.5h1082z" />
    <glyph glyph-name="eacute" unicode="&#xe9;" 
d="M1804 442h-1273q16 -97 84.5 -169.5t188.5 -112.5t285 -40q137 0 246.5 24t181 58t106.5 68l159 -102q-64 -52 -167 -95t-238.5 -69t-287.5 -26q-204 0 -373 61t-269 181t-100 289q0 168 100.5 284t269.5 173.5t374 57.5q202 0 364 -63.5t256 -184t94 -286.5
q0 -36 -1 -48zM1614 570q0 82 -67 154t-186.5 115.5t-269.5 43.5q-233 0 -382 -78.5t-177 -234.5h1082zM1117 1520h223l-286 -282h-160z" />
    <glyph glyph-name="ecaron" unicode="&#x11b;" 
d="M1804 442h-1273q16 -97 84.5 -169.5t188.5 -112.5t285 -40q137 0 246.5 24t181 58t106.5 68l159 -102q-64 -52 -167 -95t-238.5 -69t-287.5 -26q-204 0 -373 61t-269 181t-100 289q0 168 100.5 284t269.5 173.5t374 57.5q202 0 364 -63.5t256 -184t94 -286.5
q0 -36 -1 -48zM1614 570q0 82 -67 154t-186.5 115.5t-269.5 43.5q-233 0 -382 -78.5t-177 -234.5h1082zM1185 1238h-149l-249 262h185l138 -166l138 166h185z" />
    <glyph glyph-name="ecircumflex" unicode="&#xea;" 
d="M1804 442h-1273q16 -97 84.5 -169.5t188.5 -112.5t285 -40q137 0 246.5 24t181 58t106.5 68l159 -102q-64 -52 -167 -95t-238.5 -69t-287.5 -26q-204 0 -373 61t-269 181t-100 289q0 168 100.5 284t269.5 173.5t374 57.5q202 0 364 -63.5t256 -184t94 -286.5
q0 -36 -1 -48zM1614 570q0 82 -67 154t-186.5 115.5t-269.5 43.5q-233 0 -382 -78.5t-177 -234.5h1082zM1249 1258l-137 166l-140 -166h-185l249 262h149l249 -262h-185z" />
    <glyph glyph-name="edieresis" unicode="&#xeb;" 
d="M1804 442h-1273q16 -97 84.5 -169.5t188.5 -112.5t285 -40q137 0 246.5 24t181 58t106.5 68l159 -102q-64 -52 -167 -95t-238.5 -69t-287.5 -26q-204 0 -373 61t-269 181t-100 289q0 168 100.5 284t269.5 173.5t374 57.5q202 0 364 -63.5t256 -184t94 -286.5
q0 -36 -1 -48zM1614 570q0 82 -67 154t-186.5 115.5t-269.5 43.5q-233 0 -382 -78.5t-177 -234.5h1082zM809 1334.5q-37 37.5 -37 90.5q0 54 36.5 91.5t89.5 37.5t90 -37.5t37 -91.5q0 -53 -37 -90.5t-90 -37.5q-52 0 -89 37.5zM1222 1334.5q-37 37.5 -37 90.5q0 54 37 91.5
t90 37.5q55 0 92.5 -37.5t37.5 -91.5t-37.5 -91t-92.5 -37q-53 0 -90 37.5z" />
    <glyph glyph-name="edotaccent" unicode="&#x117;" 
d="M1804 442h-1273q16 -97 84.5 -169.5t188.5 -112.5t285 -40q137 0 246.5 24t181 58t106.5 68l159 -102q-64 -52 -167 -95t-238.5 -69t-287.5 -26q-204 0 -373 61t-269 181t-100 289q0 168 100.5 284t269.5 173.5t374 57.5q202 0 364 -63.5t256 -184t94 -286.5
q0 -36 -1 -48zM1614 570q0 82 -67 154t-186.5 115.5t-269.5 43.5q-233 0 -382 -78.5t-177 -234.5h1082zM1055 1318q-29 17 -46 46.5t-17 64.5t17 64.5t46 46.5t63 17q53 0 90.5 -37t37.5 -91t-37.5 -91t-90.5 -37q-34 0 -63 17z" />
    <glyph glyph-name="egrave" unicode="&#xe8;" 
d="M1804 442h-1273q16 -97 84.5 -169.5t188.5 -112.5t285 -40q137 0 246.5 24t181 58t106.5 68l159 -102q-64 -52 -167 -95t-238.5 -69t-287.5 -26q-204 0 -373 61t-269 181t-100 289q0 168 100.5 284t269.5 173.5t374 57.5q202 0 364 -63.5t256 -184t94 -286.5
q0 -36 -1 -48zM1614 570q0 82 -67 154t-186.5 115.5t-269.5 43.5q-233 0 -382 -78.5t-177 -234.5h1082zM1171 1238l-284 282h225l220 -282h-161z" />
    <glyph glyph-name="emacron" unicode="&#x113;" 
d="M1804 442h-1273q16 -97 84.5 -169.5t188.5 -112.5t285 -40q137 0 246.5 24t181 58t106.5 68l159 -102q-64 -52 -167 -95t-238.5 -69t-287.5 -26q-204 0 -373 61t-269 181t-100 289q0 168 100.5 284t269.5 173.5t374 57.5q202 0 364 -63.5t256 -184t94 -286.5
q0 -36 -1 -48zM1614 570q0 82 -67 154t-186.5 115.5t-269.5 43.5q-233 0 -382 -78.5t-177 -234.5h1082zM1525 1445v-130h-834v130h834z" />
    <glyph glyph-name="eogonek" unicode="&#x119;" 
d="M1804 442h-1273q16 -97 84.5 -169.5t188.5 -112.5t285 -40q137 0 246.5 24t181 58t106.5 68l159 -102q-86 -70 -241 -122t-346 -65q-51 -36 -85.5 -78.5t-34.5 -81.5q0 -43 52 -62t125 -19q47 0 93.5 7t69.5 15l50 -128q-46 -14 -114 -21.5t-137 -7.5q-85 0 -161 18.5
t-123.5 57t-47.5 95.5q0 59 41.5 112t103.5 91q-190 9 -344.5 72.5t-245 180t-90.5 277.5q0 168 100.5 284t269.5 173.5t374 57.5q202 0 364 -63.5t256 -184t94 -286.5q0 -36 -1 -48zM1614 570q0 82 -67 154t-186.5 115.5t-269.5 43.5q-233 0 -382 -78.5t-177 -234.5h1082z
" />
    <glyph glyph-name="f" unicode="f" 
d="M1393.5 1333.5q-158.5 -21.5 -262.5 -90.5t-104 -201v-42h864v-141h-864v-859h-188v859h-568v141h568v38q0 258 254.5 360t671.5 102h126v-145h-120q-219 0 -377.5 -21.5z" />
    <glyph glyph-name="g" unicode="g" 
d="M1686 108.5q104 -25.5 146.5 -76t42.5 -131.5q0 -124 -105 -194.5t-355 -70.5h-1098v131h1062q142 0 215 13.5t98.5 38.5t25.5 68q0 42 -25.5 66t-98.5 35.5t-218 11.5h-838l-117 114l232 215q-129 43 -201.5 119.5t-72.5 191.5q0 136 98.5 222t259.5 124t357 38
q153 0 287 -25t231 -76q18 117 97.5 185.5t200.5 68.5l56 -142q-56 0 -107.5 -24t-86.5 -69t-44 -104q78 -86 78 -198q0 -135 -102 -217.5t-262 -117.5t-348 -35q-147 0 -265 18l-164 -154h735q182 0 286 -25.5zM725 464.5q144 -56.5 369 -56.5q222 0 365 56.5t143 178.5
q0 123 -137.5 183.5t-370.5 60.5t-373 -61t-140 -183t144 -178.5z" />
    <glyph glyph-name="g.ss01" 
d="M1722 1000v-848q0 -307 -189.5 -433.5t-509.5 -126.5q-188 0 -334.5 45.5t-228 127.5t-81.5 189h196q0 -42 43 -91.5t145.5 -86t267.5 -36.5q261 0 385.5 98t124.5 308v52q-88 -98 -234.5 -159t-325.5 -61q-185 0 -335.5 59t-239 177.5t-88.5 288.5q0 171 82 287.5
t225.5 174t327.5 57.5q189 0 343.5 -60.5t244.5 -156.5v195h181zM1258.5 165.5q108.5 39.5 184 102.5t98.5 131v213q-31 66 -107.5 126.5t-184.5 98t-230 37.5q-236 0 -372.5 -89t-136.5 -282q0 -128 68.5 -212.5t187 -124.5t270.5 -40q114 0 222.5 39.5z" />
    <glyph glyph-name="gbreve" unicode="&#x11f;" 
d="M1686 108.5q104 -25.5 146.5 -76t42.5 -131.5q0 -124 -105 -194.5t-355 -70.5h-1098v131h1062q142 0 215 13.5t98.5 38.5t25.5 68q0 42 -25.5 66t-98.5 35.5t-218 11.5h-838l-117 114l232 215q-129 43 -201.5 119.5t-72.5 191.5q0 136 98.5 222t259.5 124t357 38
q153 0 287 -25t231 -76q18 117 97.5 185.5t200.5 68.5l56 -142q-56 0 -107.5 -24t-86.5 -69t-44 -104q78 -86 78 -198q0 -135 -102 -217.5t-262 -117.5t-348 -35q-147 0 -265 18l-164 -154h735q182 0 286 -25.5zM725 464.5q144 -56.5 369 -56.5q222 0 365 56.5t143 178.5
q0 123 -137.5 183.5t-370.5 60.5t-373 -61t-140 -183t144 -178.5zM1314 1385.5q-27 -61.5 -83.5 -101t-140.5 -39.5q-83 0 -138 39.5t-81 100.5t-26 128h136q0 -55 23.5 -108t87.5 -53q67 0 90 52t23 109h136q0 -66 -27 -127.5z" />
    <glyph glyph-name="uni0123" unicode="&#x123;" 
d="M1686 108.5q104 -25.5 146.5 -76t42.5 -131.5q0 -124 -105 -194.5t-355 -70.5h-1098v131h1062q142 0 215 13.5t98.5 38.5t25.5 68q0 42 -25.5 66t-98.5 35.5t-218 11.5h-838l-117 114l232 215q-129 43 -201.5 119.5t-72.5 191.5q0 136 98.5 222t259.5 124t357 38
q153 0 287 -25t231 -76q18 117 97.5 185.5t200.5 68.5l56 -142q-56 0 -107.5 -24t-86.5 -69t-44 -104q78 -86 78 -198q0 -135 -102 -217.5t-262 -117.5t-348 -35q-147 0 -265 18l-164 -154h735q182 0 286 -25.5zM725 464.5q144 -56.5 369 -56.5q222 0 365 56.5t143 178.5
q0 123 -137.5 183.5t-370.5 60.5t-373 -61t-140 -183t144 -178.5zM1188.5 1307q28.5 -33 28.5 -82q0 -36 -18 -67t-48.5 -49t-67.5 -18q-36 0 -67 18t-49 49t-18 67q0 44 19 82l175 320l94 -41l-126 -232q49 -14 77.5 -47z" />
    <glyph glyph-name="gdotaccent" unicode="&#x121;" 
d="M1686 108.5q104 -25.5 146.5 -76t42.5 -131.5q0 -124 -105 -194.5t-355 -70.5h-1098v131h1062q142 0 215 13.5t98.5 38.5t25.5 68q0 42 -25.5 66t-98.5 35.5t-218 11.5h-838l-117 114l232 215q-129 43 -201.5 119.5t-72.5 191.5q0 136 98.5 222t259.5 124t357 38
q153 0 287 -25t231 -76q18 117 97.5 185.5t200.5 68.5l56 -142q-56 0 -107.5 -24t-86.5 -69t-44 -104q78 -86 78 -198q0 -135 -102 -217.5t-262 -117.5t-348 -35q-147 0 -265 18l-164 -154h735q182 0 286 -25.5zM725 464.5q144 -56.5 369 -56.5q222 0 365 56.5t143 178.5
q0 123 -137.5 183.5t-370.5 60.5t-373 -61t-140 -183t144 -178.5zM1036 1318q-29 17 -46 46.5t-17 64.5t17 64.5t46 46.5t63 17q53 0 90.5 -37t37.5 -91t-37.5 -91t-90.5 -37q-34 0 -63 17z" />
    <glyph glyph-name="h" unicode="h" 
d="M1634 915q145 -108 145 -366v-549h-188v514q0 131 -43.5 210t-130.5 115t-224 36q-129 0 -247.5 -41.5t-200.5 -116t-107 -169.5v-548h-188v1500h188v-724q89 113 241 180t344 67q266 0 411 -108z" />
    <glyph glyph-name="hbar" unicode="&#x127;" 
d="M1634 915q145 -108 145 -366v-549h-188v514q0 131 -43.5 210t-130.5 115t-224 36q-129 0 -247.5 -41.5t-200.5 -116t-107 -169.5v-548h-188v1233h-282v130h282v137h188v-137h293v-130h-293v-457q89 113 241 180t344 67q266 0 411 -108z" />
    <glyph glyph-name="i" unicode="i" horiz-adv-x="1800" 
d="M858.5 1273q-32.5 19 -51.5 51.5t-19 71.5t19 72t51.5 52t71.5 19q38 0 71 -19.5t52.5 -52t19.5 -71.5t-19.5 -71.5t-52.5 -51.5t-71 -19q-39 0 -71.5 19zM276 141h561v718h-561v141h747v-859h566v-141h-1313v141z" />
    <glyph glyph-name="i.ss01" horiz-adv-x="1800" 
d="M839.5 1273q-32.5 19 -51.5 51.5t-19 71.5t19 72t51.5 52t71.5 19q38 0 71 -19.5t52.5 -52t19.5 -71.5t-19.5 -71.5t-52.5 -51.5t-71 -19q-39 0 -71.5 19zM820 1000h183v-1000h-183v1000z" />
    <glyph glyph-name="dotlessi" unicode="&#x131;" horiz-adv-x="1800" 
d="M1686 151v-151h-753v849h-605v151h793v-849h565z" />
    <glyph glyph-name="iacute" unicode="&#xed;" horiz-adv-x="1800" 
d="M1686 151v-151h-753v849h-605v151h793v-849h565zM1009 1520h223l-286 -282h-160z" />
    <glyph glyph-name="uni01D0" unicode="&#x1d0;" horiz-adv-x="1800" 
d="M1686 151v-151h-753v849h-605v151h793v-849h565zM1077 1238h-149l-249 262h185l138 -166l138 166h185z" />
    <glyph glyph-name="icircumflex" unicode="&#xee;" horiz-adv-x="1800" 
d="M1686 151v-151h-753v849h-605v151h793v-849h565zM1141 1258l-137 166l-140 -166h-185l249 262h149l249 -262h-185z" />
    <glyph glyph-name="idieresis" unicode="&#xef;" horiz-adv-x="1800" 
d="M1686 151v-151h-753v849h-605v151h793v-849h565zM700 1334.5q-37 37.5 -37 90.5q0 54 36.5 91.5t89.5 37.5t90 -37.5t37 -91.5q0 -53 -37 -90.5t-90 -37.5q-52 0 -89 37.5zM1113 1334.5q-37 37.5 -37 90.5q0 54 37 91.5t90 37.5q55 0 92.5 -37.5t37.5 -91.5t-37.5 -91
t-92.5 -37q-53 0 -90 37.5z" />
    <glyph glyph-name="i.loclTRK" horiz-adv-x="1800" 
d="M1686 151v-151h-753v849h-605v151h793v-849h565zM947 1318q-29 17 -46 46.5t-17 64.5t17 64.5t46 46.5t63 17q53 0 90.5 -37t37.5 -91t-37.5 -91t-90.5 -37q-34 0 -63 17z" />
    <glyph glyph-name="igrave" unicode="&#xec;" horiz-adv-x="1800" 
d="M1686 151v-151h-753v849h-605v151h793v-849h565zM1063 1238l-284 282h225l220 -282h-161z" />
    <glyph glyph-name="imacron" unicode="&#x12b;" horiz-adv-x="1800" 
d="M1686 151v-151h-753v849h-605v151h793v-849h565zM1417 1445v-130h-834v130h834z" />
    <glyph glyph-name="iogonek" unicode="&#x12f;" horiz-adv-x="1800" 
d="M858.5 1273q-32.5 19 -51.5 51.5t-19 71.5t19 72t51.5 52t71.5 19q38 0 71 -19.5t52.5 -52t19.5 -71.5t-19.5 -71.5t-52.5 -51.5t-71 -19q-39 0 -71.5 19zM276 141h561v718h-561v141h747v-859h566v-141h-1313v141zM918.5 -87q-50.5 -52 -50.5 -100q0 -43 52 -62t125 -19
q47 0 93.5 7t69.5 15l50 -128q-45 -14 -113.5 -21.5t-136.5 -7.5q-85 0 -161 18.5t-123.5 57t-47.5 95.5q0 49 30 95t75 81t92 56h158q-62 -35 -112.5 -87z" />
    <glyph glyph-name="j" unicode="j" horiz-adv-x="1800" 
d="M1094.5 1273q-32.5 19 -51.5 51.5t-19 71.5q0 40 19 72.5t51.5 51.5t71.5 19t72 -19t52 -52t19 -72t-19 -71.5t-52 -51.5t-72 -19t-71.5 19zM461 -212q296 0 459.5 74.5t163.5 250.5v746h-803v141h990v-932q0 -235 -207.5 -331.5t-585.5 -96.5h-218v148h201z" />
    <glyph glyph-name="k" unicode="k" horiz-adv-x="2163" 
d="M1967 0h-242l-498 448h-568v-448h-188v1500h188v-912h543l488 412h237l-552 -466z" />
    <glyph glyph-name="uni0137" unicode="&#x137;" horiz-adv-x="2163" 
d="M1967 0h-242l-498 448h-568v-448h-188v1500h188v-912h543l488 412h237l-552 -466zM968.5 -289q-26.5 32 -26.5 78q0 53 37 90t90 37q35 0 64.5 -17t46.5 -46.5t17 -63.5q0 -42 -19 -78l-166 -304l-89 39l119 220q-47 13 -73.5 45z" />
    <glyph glyph-name="l" unicode="l" horiz-adv-x="1800" 
d="M205 141h583v1218h-583v141h771v-1359h646v-141h-1417v141z" />
    <glyph glyph-name="l.ss01" horiz-adv-x="1800" 
d="M795 1500h183v-1500h-183v1500z" />
    <glyph glyph-name="lacute" unicode="&#x13a;" horiz-adv-x="1800" 
d="M205 141h583v1218h-583v141h771v-1359h646v-141h-1417v141zM811 2120h223l-286 -282h-160z" />
    <glyph glyph-name="lcaron" unicode="&#x13e;" horiz-adv-x="1800" 
d="M205 141h583v1218h-583v141h771v-1359h646v-141h-1417v141zM1575.5 1385q-26.5 32 -26.5 78q0 53 37 90t90 37q35 0 64.5 -17t46.5 -46.5t17 -63.5q0 -42 -19 -78l-166 -304l-89 39l119 220q-47 13 -73.5 45z" />
    <glyph glyph-name="uni013C" unicode="&#x13c;" horiz-adv-x="1800" 
d="M205 141h583v1218h-583v141h771v-1359h646v-141h-1417v141zM793.5 -289q-26.5 32 -26.5 78q0 53 37 90t90 37q35 0 64.5 -17t46.5 -46.5t17 -63.5q0 -42 -19 -78l-166 -304l-89 39l119 220q-47 13 -73.5 45z" />
    <glyph glyph-name="lslash" unicode="&#x142;" horiz-adv-x="1800" 
d="M948 141h646v-141h-1417v141h582v501l-385 -205v164l385 206v552h-582v141h771v-592l381 203v-165l-381 -203v-602z" />
    <glyph glyph-name="m" unicode="m" horiz-adv-x="2600" 
d="M2191.5 974q107.5 -49 160 -154.5t52.5 -275.5v-544h-186v512q0 191 -88 277t-269 86q-113 0 -214.5 -45.5t-169 -123t-82.5 -168.5v-538h-187v512q0 189 -92 276t-273 87q-111 0 -212 -44t-169 -119.5t-84 -165.5v-546h-187v1000h172l11 -221q74 112 208.5 178t316.5 66
q387 0 473 -274q71 125 211 199.5t334 74.5q167 0 274.5 -49z" />
    <glyph glyph-name="n" unicode="n" 
d="M1602.5 905.5q139.5 -117.5 139.5 -364.5v-541h-190v504q0 198 -101.5 284.5t-303.5 86.5q-132 0 -250 -45.5t-196 -121.5t-97 -164v-544h-190v1000h170l16 -251q92 122 251.5 198t360.5 76q251 0 390.5 -117.5z" />
    <glyph glyph-name="nacute" unicode="&#x144;" 
d="M1602.5 905.5q139.5 -117.5 139.5 -364.5v-541h-190v504q0 198 -101.5 284.5t-303.5 86.5q-132 0 -250 -45.5t-196 -121.5t-97 -164v-544h-190v1000h170l16 -251q92 122 251.5 198t360.5 76q251 0 390.5 -117.5zM1081 1520h223l-286 -282h-160z" />
    <glyph glyph-name="ncaron" unicode="&#x148;" 
d="M1602.5 905.5q139.5 -117.5 139.5 -364.5v-541h-190v504q0 198 -101.5 284.5t-303.5 86.5q-132 0 -250 -45.5t-196 -121.5t-97 -164v-544h-190v1000h170l16 -251q92 122 251.5 198t360.5 76q251 0 390.5 -117.5zM1149 1238h-149l-249 262h185l138 -166l138 166h185z" />
    <glyph glyph-name="uni0146" unicode="&#x146;" 
d="M1602.5 905.5q139.5 -117.5 139.5 -364.5v-541h-190v504q0 198 -101.5 284.5t-303.5 86.5q-132 0 -250 -45.5t-196 -121.5t-97 -164v-544h-190v1000h170l16 -251q92 122 251.5 198t360.5 76q251 0 390.5 -117.5zM990.5 -289q-26.5 32 -26.5 78q0 53 37 90t90 37
q35 0 64.5 -17t46.5 -46.5t17 -63.5q0 -42 -19 -78l-166 -304l-89 39l119 220q-47 13 -73.5 45z" />
    <glyph glyph-name="eng" unicode="&#x14b;" 
d="M1605.5 905.5q139.5 -117.5 139.5 -364.5v-544q0 -153 -91.5 -240t-216 -118t-245.5 -31q-54 0 -103.5 5t-72.5 13l21 157q11 -6 59.5 -12t87.5 -6q84 0 168 20t143.5 72.5t59.5 142.5v504q0 198 -101.5 284.5t-303.5 86.5q-132 0 -250 -45.5t-196 -121.5t-97 -164v-544
h-190v1000h170l16 -251q92 122 251.5 198t360.5 76q251 0 390.5 -117.5z" />
    <glyph glyph-name="ntilde" unicode="&#xf1;" 
d="M1602.5 905.5q139.5 -117.5 139.5 -364.5v-541h-190v504q0 198 -101.5 284.5t-303.5 86.5q-132 0 -250 -45.5t-196 -121.5t-97 -164v-544h-190v1000h170l16 -251q92 122 251.5 198t360.5 76q251 0 390.5 -117.5zM1146 1274q-43 18 -94 53q-41 29 -71 42.5t-70 13.5
q-59 0 -107.5 -29.5t-72.5 -66.5l-115 85q11 20 50.5 53t102.5 60t139 27q46 0 81.5 -10t60.5 -24t60 -38q40 -29 70.5 -43t71.5 -14q59 0 105.5 30t69.5 68l115 -88q-11 -21 -49 -53t-100 -58t-139 -26q-65 0 -108 18z" />
    <glyph glyph-name="o" unicode="o" 
d="M697.5 34q-173.5 56 -281 174t-107.5 294q0 177 108 294t281 172.5t372 55.5t371 -55.5t279 -173t107 -293.5t-107 -294t-279 -174t-371 -56t-372.5 56zM1356.5 163q127.5 43 202 129.5t74.5 209.5t-74.5 208.5t-202 128.5t-286.5 43q-158 0 -286 -43t-203 -128.5
t-75 -208.5t74.5 -209t202.5 -129.5t287 -43.5t286.5 43z" />
    <glyph glyph-name="oacute" unicode="&#xf3;" 
d="M697.5 34q-173.5 56 -281 174t-107.5 294q0 177 108 294t281 172.5t372 55.5t371 -55.5t279 -173t107 -293.5t-107 -294t-279 -174t-371 -56t-372.5 56zM1356.5 163q127.5 43 202 129.5t74.5 209.5t-74.5 208.5t-202 128.5t-286.5 43q-158 0 -286 -43t-203 -128.5
t-75 -208.5t74.5 -209t202.5 -129.5t287 -43.5t286.5 43zM1056 1525h223l-286 -282h-160z" />
    <glyph glyph-name="uni01D2" unicode="&#x1d2;" 
d="M697.5 34q-173.5 56 -281 174t-107.5 294q0 177 108 294t281 172.5t372 55.5t371 -55.5t279 -173t107 -293.5t-107 -294t-279 -174t-371 -56t-372.5 56zM1356.5 163q127.5 43 202 129.5t74.5 209.5t-74.5 208.5t-202 128.5t-286.5 43q-158 0 -286 -43t-203 -128.5
t-75 -208.5t74.5 -209t202.5 -129.5t287 -43.5t286.5 43zM1123 1243h-149l-249 262h185l138 -166l138 166h185z" />
    <glyph glyph-name="ocircumflex" unicode="&#xf4;" 
d="M697.5 34q-173.5 56 -281 174t-107.5 294q0 177 108 294t281 172.5t372 55.5t371 -55.5t279 -173t107 -293.5t-107 -294t-279 -174t-371 -56t-372.5 56zM1356.5 163q127.5 43 202 129.5t74.5 209.5t-74.5 208.5t-202 128.5t-286.5 43q-158 0 -286 -43t-203 -128.5
t-75 -208.5t74.5 -209t202.5 -129.5t287 -43.5t286.5 43zM1188 1263l-137 166l-140 -166h-185l249 262h149l249 -262h-185z" />
    <glyph glyph-name="odieresis" unicode="&#xf6;" 
d="M697.5 34q-173.5 56 -281 174t-107.5 294q0 177 108 294t281 172.5t372 55.5t371 -55.5t279 -173t107 -293.5t-107 -294t-279 -174t-371 -56t-372.5 56zM1356.5 163q127.5 43 202 129.5t74.5 209.5t-74.5 208.5t-202 128.5t-286.5 43q-158 0 -286 -43t-203 -128.5
t-75 -208.5t74.5 -209t202.5 -129.5t287 -43.5t286.5 43zM747 1339.5q-37 37.5 -37 90.5q0 54 36.5 91.5t89.5 37.5t90 -37.5t37 -91.5q0 -53 -37 -90.5t-90 -37.5q-52 0 -89 37.5zM1160 1339.5q-37 37.5 -37 90.5q0 54 37 91.5t90 37.5q55 0 92.5 -37.5t37.5 -91.5
t-37.5 -91t-92.5 -37q-53 0 -90 37.5z" />
    <glyph glyph-name="ograve" unicode="&#xf2;" 
d="M697.5 34q-173.5 56 -281 174t-107.5 294q0 177 108 294t281 172.5t372 55.5t371 -55.5t279 -173t107 -293.5t-107 -294t-279 -174t-371 -56t-372.5 56zM1356.5 163q127.5 43 202 129.5t74.5 209.5t-74.5 208.5t-202 128.5t-286.5 43q-158 0 -286 -43t-203 -128.5
t-75 -208.5t74.5 -209t202.5 -129.5t287 -43.5t286.5 43zM1109 1243l-284 282h225l220 -282h-161z" />
    <glyph glyph-name="ohungarumlaut" unicode="&#x151;" 
d="M697.5 34q-173.5 56 -281 174t-107.5 294q0 177 108 294t281 172.5t372 55.5t371 -55.5t279 -173t107 -293.5t-107 -294t-279 -174t-371 -56t-372.5 56zM1356.5 163q127.5 43 202 129.5t74.5 209.5t-74.5 208.5t-202 128.5t-286.5 43q-158 0 -286 -43t-203 -128.5
t-75 -208.5t74.5 -209t202.5 -129.5t287 -43.5t286.5 43zM854 1525h180l-167 -282h-135zM1188 1525h188l-232 -282h-130z" />
    <glyph glyph-name="omacron" unicode="&#x14d;" 
d="M697.5 34q-173.5 56 -281 174t-107.5 294q0 177 108 294t281 172.5t372 55.5t371 -55.5t279 -173t107 -293.5t-107 -294t-279 -174t-371 -56t-372.5 56zM1356.5 163q127.5 43 202 129.5t74.5 209.5t-74.5 208.5t-202 128.5t-286.5 43q-158 0 -286 -43t-203 -128.5
t-75 -208.5t74.5 -209t202.5 -129.5t287 -43.5t286.5 43zM1463 1450v-130h-834v130h834z" />
    <glyph glyph-name="oslash" unicode="&#xf8;" 
d="M1742.5 764q81.5 -109 81.5 -262q0 -176 -107 -294t-279 -174t-371 -56q-113 0 -221 18t-200 55l-137 -139h-125l177 180q-120 66 -187.5 169t-67.5 241q0 177 108 294t281 172.5t372 55.5q196 0 362 -52l113 114h123l-146 -149q142 -64 223.5 -173zM549 332.5
q46 -73.5 129 -122.5l633 642q-111 30 -244 30q-158 0 -286 -43t-203 -128.5t-75 -208.5q0 -96 46 -169.5zM1353.5 163q127.5 43 202 129.5t74.5 209.5q0 110 -60 190.5t-167 127.5l-640 -650q133 -50 304 -50q159 0 286.5 43z" />
    <glyph glyph-name="otilde" unicode="&#xf5;" 
d="M697.5 34q-173.5 56 -281 174t-107.5 294q0 177 108 294t281 172.5t372 55.5t371 -55.5t279 -173t107 -293.5t-107 -294t-279 -174t-371 -56t-372.5 56zM1356.5 163q127.5 43 202 129.5t74.5 209.5t-74.5 208.5t-202 128.5t-286.5 43q-158 0 -286 -43t-203 -128.5
t-75 -208.5t74.5 -209t202.5 -129.5t287 -43.5t286.5 43zM1120 1279q-43 18 -94 53q-41 29 -71 42.5t-70 13.5q-59 0 -107.5 -29.5t-72.5 -66.5l-115 85q11 20 50.5 53t102.5 60t139 27q46 0 81.5 -10t60.5 -24t60 -38q40 -29 70.5 -43t71.5 -14q59 0 105.5 30t69.5 68
l115 -88q-11 -21 -49 -53t-100 -58t-139 -26q-65 0 -108 18z" />
    <glyph glyph-name="oe" unicode="&#x153;" horiz-adv-x="2600" 
d="M2135.5 144q96.5 24 161.5 60t94 72l146 -97q-46 -49 -139.5 -95.5t-220 -76t-263.5 -29.5q-183 0 -343 65.5t-253 182.5q-89 -120 -249.5 -184t-352.5 -64q-191 0 -349.5 57.5t-253.5 175.5t-95 291t95.5 290.5t253.5 174.5t349 57q189 0 348.5 -62t248.5 -179
q91 115 250 178t345 63t339 -68t242 -194.5t89 -293.5h-1172l-2 -18q14 -99 80 -173.5t178.5 -115.5t261.5 -41q115 0 211.5 24zM1580 809q-136 -74 -169 -220h961q0 72 -57.5 140t-161.5 111t-235 43q-202 0 -338 -74zM968 165.5q114 45.5 181.5 132t67.5 204.5
q0 125 -67 210.5t-180.5 127.5t-253.5 42q-142 0 -256 -40t-182 -125.5t-68 -214.5q0 -124 67.5 -210t182.5 -129t256 -43q138 0 252 45.5z" />
    <glyph glyph-name="oe.ss01" 
d="M1662 145.5q67 23.5 104.5 53t53.5 54.5l148 -81q-63 -82 -184.5 -138t-280.5 -56q-141 0 -258 53t-184 169q-66 -107 -174 -164.5t-234 -57.5q-128 0 -241 53.5t-185 171t-72 299.5q0 181 72 298.5t185 170.5t241 53q126 0 233.5 -57t173.5 -163q66 113 181.5 166.5
t251.5 53.5q226 0 356 -140t130 -429h-842v-9q11 -104 61 -176.5t129 -110t177 -37.5q91 0 158 23.5zM806 156q74 34 126 119t52 227q0 140 -52 224.5t-126.5 118.5t-147.5 34q-75 0 -150.5 -34t-128.5 -118.5t-53 -224.5q0 -142 53 -227t128.5 -119t150.5 -34q74 0 148 34z
M1254 800q-94 -79 -115 -221h664q0 74 -33.5 143t-103.5 113t-175 44q-143 0 -237 -79z" />
    <glyph glyph-name="p" unicode="p" 
d="M1526.5 962.5q145.5 -60.5 225 -177.5t79.5 -281t-83 -282.5t-232 -181t-345 -62.5q-195 0 -348.5 62t-243.5 163v-603h-188v1400h172l12 -211q59 66 150 119t209 84t251 31q196 0 341.5 -60.5zM1400 170q116 44 179 128.5t63 204.5t-62 204t-176.5 126.5t-270.5 42.5
q-147 0 -264.5 -44.5t-191.5 -109.5t-98 -125v-184q18 -66 91.5 -132.5t192 -110.5t264.5 -44q157 0 273 44z" />
    <glyph glyph-name="thorn" unicode="&#xfe;" 
d="M1526.5 962.5q145.5 -60.5 225 -177.5t79.5 -281t-83 -282.5t-232 -181t-345 -62.5q-195 0 -348.5 62t-243.5 163v-603h-188v1900h184v-711q59 66 150 119t209 84t251 31q196 0 341.5 -60.5zM1400 170q116 44 179 128.5t63 204.5t-62 204t-176.5 126.5t-270.5 42.5
q-147 0 -264.5 -44.5t-191.5 -109.5t-98 -125v-184q18 -66 91.5 -132.5t192 -110.5t264.5 -44q157 0 273 44z" />
    <glyph glyph-name="q" unicode="q" 
d="M1653 1000v-1400h-188v603q-90 -101 -243.5 -163t-348.5 -62q-196 0 -345 62.5t-232 181t-83 282.5t79.5 281t225 177.5t341.5 60.5q133 0 251 -31t209 -84t150 -119l12 211h172zM1183.5 170.5q119.5 44.5 192.5 112t89 133.5v179q-23 59 -96.5 124.5t-191.5 111
t-266 45.5q-157 0 -271.5 -42.5t-176 -126.5t-61.5 -204t63 -204.5t179 -128.5t273 -44q147 0 266.5 44.5z" />
    <glyph glyph-name="r" unicode="r" 
d="M1830.5 1015.5q68.5 -11.5 93.5 -23.5l-69 -160q-23 13 -83 26t-146 13q-123 0 -245.5 -32.5t-212 -86t-120.5 -112.5v-499h475v-141h-1140v141h479v718h-479v141h632l31 -202q62 66 162 118t222 81.5t248 29.5q84 0 152.5 -11.5z" />
    <glyph glyph-name="racute" unicode="&#x155;" 
d="M1830.5 1015.5q68.5 -11.5 93.5 -23.5l-69 -160q-23 13 -83 26t-146 13q-123 0 -245.5 -32.5t-212 -86t-120.5 -112.5v-499h475v-141h-1140v141h479v718h-479v141h632l31 -202q62 66 162 118t222 81.5t248 29.5q84 0 152.5 -11.5zM1055 1520h223l-286 -282h-160z" />
    <glyph glyph-name="rcaron" unicode="&#x159;" 
d="M1830.5 1015.5q68.5 -11.5 93.5 -23.5l-69 -160q-23 13 -83 26t-146 13q-123 0 -245.5 -32.5t-212 -86t-120.5 -112.5v-499h475v-141h-1140v141h479v718h-479v141h632l31 -202q62 66 162 118t222 81.5t248 29.5q84 0 152.5 -11.5zM1123 1238h-149l-249 262h185l138 -166
l138 166h185z" />
    <glyph glyph-name="uni0157" unicode="&#x157;" 
d="M1830.5 1015.5q68.5 -11.5 93.5 -23.5l-69 -160q-23 13 -83 26t-146 13q-123 0 -245.5 -32.5t-212 -86t-120.5 -112.5v-499h475v-141h-1140v141h479v718h-479v141h632l31 -202q62 66 162 118t222 81.5t248 29.5q84 0 152.5 -11.5zM959.5 -289q-26.5 32 -26.5 78
q0 53 37 90t90 37q35 0 64.5 -17t46.5 -46.5t17 -63.5q0 -42 -19 -78l-166 -304l-89 39l119 220q-47 13 -73.5 45z" />
    <glyph glyph-name="s" unicode="s" 
d="M603 10q-201 32 -295 73l107 132q77 -40 262 -67.5t386 -27.5q155 0 278 18.5t193.5 55t70.5 87.5q0 47 -63 78t-187 50.5t-320 32.5q-217 15 -360 43t-228 88t-85 165q0 100 103.5 164.5t265.5 93t345 28.5q162 0 299 -15t230 -37.5t138 -43.5l-111 -125
q-62 32 -226 55.5t-329 23.5q-135 0 -254 -16t-193 -47.5t-74 -77.5q0 -48 56 -77t164 -45t292 -29q230 -16 383.5 -42.5t252 -87.5t97.5 -170q-1 -112 -103.5 -181.5t-268 -100t-366.5 -30.5q-259 0 -460 32z" />
    <glyph glyph-name="sacute" unicode="&#x15b;" 
d="M603 10q-201 32 -295 73l107 132q77 -40 262 -67.5t386 -27.5q155 0 278 18.5t193.5 55t70.5 87.5q0 47 -63 78t-187 50.5t-320 32.5q-217 15 -360 43t-228 88t-85 165q0 100 103.5 164.5t265.5 93t345 28.5q162 0 299 -15t230 -37.5t138 -43.5l-111 -125
q-62 32 -226 55.5t-329 23.5q-135 0 -254 -16t-193 -47.5t-74 -77.5q0 -48 56 -77t164 -45t292 -29q230 -16 383.5 -42.5t252 -87.5t97.5 -170q-1 -112 -103.5 -181.5t-268 -100t-366.5 -30.5q-259 0 -460 32zM1069 1520h223l-286 -282h-160z" />
    <glyph glyph-name="scaron" unicode="&#x161;" 
d="M603 10q-201 32 -295 73l107 132q77 -40 262 -67.5t386 -27.5q155 0 278 18.5t193.5 55t70.5 87.5q0 47 -63 78t-187 50.5t-320 32.5q-217 15 -360 43t-228 88t-85 165q0 100 103.5 164.5t265.5 93t345 28.5q162 0 299 -15t230 -37.5t138 -43.5l-111 -125
q-62 32 -226 55.5t-329 23.5q-135 0 -254 -16t-193 -47.5t-74 -77.5q0 -48 56 -77t164 -45t292 -29q230 -16 383.5 -42.5t252 -87.5t97.5 -170q-1 -112 -103.5 -181.5t-268 -100t-366.5 -30.5q-259 0 -460 32zM1137 1238h-149l-249 262h185l138 -166l138 166h185z" />
    <glyph glyph-name="scedilla" unicode="&#x15f;" 
d="M1451.5 547.5q153.5 -26.5 252 -87.5t97.5 -170q-1 -156 -194 -230.5t-489 -80.5l-35 -81q22 14 55.5 22.5t70.5 8.5q67 0 113.5 -29t45.5 -90q0 -69 -46 -115.5t-123 -68.5t-170 -22q-89 0 -177 20l37 99q79 -23 163 -23q82 0 134.5 24t52.5 69q0 29 -21.5 42.5
t-55.5 13.5q-30 0 -62 -9.5t-53 -23.5l-107 27l53 136q-235 4 -417 35t-268 69l107 132q77 -40 262 -67.5t386 -27.5q155 0 278 18.5t193.5 55t70.5 87.5q0 47 -63 78t-187 50.5t-320 32.5q-217 15 -360 43t-228 88t-85 165q0 100 103.5 164.5t265.5 93t345 28.5
q162 0 299 -15t230 -37.5t138 -43.5l-111 -125q-62 32 -226 55.5t-329 23.5q-135 0 -254 -16t-193 -47.5t-74 -77.5q0 -48 56 -77t164 -45t292 -29q230 -16 383.5 -42.5z" />
    <glyph glyph-name="uni0219" unicode="&#x219;" 
d="M603 10q-201 32 -295 73l107 132q77 -40 262 -67.5t386 -27.5q155 0 278 18.5t193.5 55t70.5 87.5q0 47 -63 78t-187 50.5t-320 32.5q-217 15 -360 43t-228 88t-85 165q0 100 103.5 164.5t265.5 93t345 28.5q162 0 299 -15t230 -37.5t138 -43.5l-111 -125
q-62 32 -226 55.5t-329 23.5q-135 0 -254 -16t-193 -47.5t-74 -77.5q0 -48 56 -77t164 -45t292 -29q230 -16 383.5 -42.5t252 -87.5t97.5 -170q-1 -112 -103.5 -181.5t-268 -100t-366.5 -30.5q-259 0 -460 32zM973.5 -289q-26.5 32 -26.5 78q0 53 37 90t90 37q35 0 64.5 -17
t46.5 -46.5t17 -63.5q0 -42 -19 -78l-166 -304l-89 39l119 220q-47 13 -73.5 45z" />
    <glyph glyph-name="germandbls" unicode="&#xdf;" 
d="M1346 758q28 -10 94 -27q118 -30 202.5 -63.5t150 -101.5t65.5 -175q0 -144 -102.5 -236.5t-277 -134.5t-399.5 -42q-136 0 -252 10t-173 27l30 155q54 -15 165 -27.5t230 -12.5q255 0 421.5 60t166.5 209q0 59 -40.5 99t-99 64t-154.5 53q-86 26 -134.5 45t-82 49
t-33.5 73q0 42 24.5 70.5t60 45.5t94.5 38q60 21 96.5 38.5t61 47t24.5 72.5q0 131 -152.5 183t-359.5 52q-121 0 -246 -35t-211.5 -116t-86.5 -210v-968h-182v989q0 157 100 266.5t270 164.5t379 55q196 0 347.5 -41.5t237.5 -124.5t86 -203q0 -76 -39 -127.5t-91 -80
t-126 -58.5q-51 -21 -71.5 -32t-20.5 -26q0 -14 28 -24z" />
    <glyph glyph-name="t" unicode="t" 
d="M1921 859h-785v-718h520v-141h-710v859h-584v141h584v340h190v-340h785v-141z" />
    <glyph glyph-name="t.ss01" horiz-adv-x="1800" 
d="M1648 1000v-141h-660v-859h-185v859h-650v141h650v325h185v-325h660z" />
    <glyph glyph-name="tbar" unicode="&#x167;" horiz-adv-x="2050" 
d="M1888 859h-785v-294h385v-130h-385v-294h520v-141h-710v435h-582v130h582v294h-584v141h584v340h190v-340h785v-141z" />
    <glyph glyph-name="tcaron" unicode="&#x165;" 
d="M1921 859h-785v-718h520v-141h-710v859h-584v141h584v340h190v-340h785v-141zM1113 1446h-149l-249 262h185l138 -166l138 166h185z" />
    <glyph glyph-name="uni0163" unicode="&#x163;" 
d="M1136 859v-718h520v-141h-504l-44 -102q22 14 55.5 22.5t70.5 8.5q67 0 113.5 -29t45.5 -90q0 -69 -46 -115.5t-123 -68.5t-170 -22q-89 0 -177 20l37 99q79 -23 163 -23q82 0 134.5 24t52.5 69q0 29 -21.5 42.5t-55.5 13.5q-30 0 -62 -9.5t-53 -23.5l-107 27l62 157h-81
v859h-584v141h584v340h190v-340h785v-141h-785z" />
    <glyph glyph-name="uni021B" unicode="&#x21b;" 
d="M1921 859h-785v-718h520v-141h-710v859h-584v141h584v340h190v-340h785v-141zM998.5 -289q-26.5 32 -26.5 78q0 53 37 90t90 37q35 0 64.5 -17t46.5 -46.5t17 -63.5q0 -42 -19 -78l-166 -304l-89 39l119 220q-47 13 -73.5 45z" />
    <glyph glyph-name="u" unicode="u" 
d="M1953 141v-141h-395l-10 207q-96 -102 -261.5 -164.5t-358.5 -62.5q-247 0 -401 109t-154 350v563h187v-512q0 -125 42 -204t138 -119t258 -40q142 0 258 44t190.5 110t97.5 132v589h186v-861h223z" />
    <glyph glyph-name="uacute" unicode="&#xfa;" 
d="M1953 141v-141h-395l-10 207q-96 -102 -261.5 -164.5t-358.5 -62.5q-247 0 -401 109t-154 350v563h187v-512q0 -125 42 -204t138 -119t258 -40q142 0 258 44t190.5 110t97.5 132v589h186v-861h223zM1041 1520h223l-286 -282h-160z" />
    <glyph glyph-name="uni01D4" unicode="&#x1d4;" 
d="M1953 141v-141h-395l-10 207q-96 -102 -261.5 -164.5t-358.5 -62.5q-247 0 -401 109t-154 350v563h187v-512q0 -125 42 -204t138 -119t258 -40q142 0 258 44t190.5 110t97.5 132v589h186v-861h223zM1108 1238h-149l-249 262h185l138 -166l138 166h185z" />
    <glyph glyph-name="ucircumflex" unicode="&#xfb;" 
d="M1953 141v-141h-395l-10 207q-96 -102 -261.5 -164.5t-358.5 -62.5q-247 0 -401 109t-154 350v563h187v-512q0 -125 42 -204t138 -119t258 -40q142 0 258 44t190.5 110t97.5 132v589h186v-861h223zM1173 1258l-137 166l-140 -166h-185l249 262h149l249 -262h-185z" />
    <glyph glyph-name="udieresis" unicode="&#xfc;" 
d="M1953 141v-141h-395l-10 207q-96 -102 -261.5 -164.5t-358.5 -62.5q-247 0 -401 109t-154 350v563h187v-512q0 -125 42 -204t138 -119t258 -40q142 0 258 44t190.5 110t97.5 132v589h186v-861h223zM732 1334.5q-37 37.5 -37 90.5q0 54 36.5 91.5t89.5 37.5t90 -37.5
t37 -91.5q0 -53 -37 -90.5t-90 -37.5q-52 0 -89 37.5zM1145 1334.5q-37 37.5 -37 90.5q0 54 37 91.5t90 37.5q55 0 92.5 -37.5t37.5 -91.5t-37.5 -91t-92.5 -37q-53 0 -90 37.5z" />
    <glyph glyph-name="uni01D8" unicode="&#x1d8;" 
d="M1953 141v-141h-395l-10 207q-96 -102 -261.5 -164.5t-358.5 -62.5q-247 0 -401 109t-154 350v563h187v-512q0 -125 42 -204t138 -119t258 -40q142 0 258 44t190.5 110t97.5 132v589h186v-861h223zM732 1170.5q-37 37.5 -37 90.5q0 54 36.5 91.5t89.5 37.5t90 -37.5
t37 -91.5q0 -53 -37 -90.5t-90 -37.5q-52 0 -89 37.5zM1145 1170.5q-37 37.5 -37 90.5q0 54 37 91.5t90 37.5q55 0 92.5 -37.5t37.5 -91.5t-37.5 -91t-92.5 -37q-53 0 -90 37.5zM1038 1788h223l-286 -282h-160z" />
    <glyph glyph-name="uni01DA" unicode="&#x1da;" 
d="M1953 141v-141h-395l-10 207q-96 -102 -261.5 -164.5t-358.5 -62.5q-247 0 -401 109t-154 350v563h187v-512q0 -125 42 -204t138 -119t258 -40q142 0 258 44t190.5 110t97.5 132v589h186v-861h223zM1108 1487h-149l-249 262h185l138 -166l138 166h185zM732 1170.5
q-37 37.5 -37 90.5q0 54 36.5 91.5t89.5 37.5t90 -37.5t37 -91.5q0 -53 -37 -90.5t-90 -37.5q-52 0 -89 37.5zM1145 1170.5q-37 37.5 -37 90.5q0 54 37 91.5t90 37.5q55 0 92.5 -37.5t37.5 -91.5t-37.5 -91t-92.5 -37q-53 0 -90 37.5z" />
    <glyph glyph-name="uni01DC" unicode="&#x1dc;" 
d="M1953 141v-141h-395l-10 207q-96 -102 -261.5 -164.5t-358.5 -62.5q-247 0 -401 109t-154 350v563h187v-512q0 -125 42 -204t138 -119t258 -40q142 0 258 44t190.5 110t97.5 132v589h186v-861h223zM1094 1467l-284 282h225l220 -282h-161zM732 1170.5q-37 37.5 -37 90.5
q0 54 36.5 91.5t89.5 37.5t90 -37.5t37 -91.5q0 -53 -37 -90.5t-90 -37.5q-52 0 -89 37.5zM1145 1170.5q-37 37.5 -37 90.5q0 54 37 91.5t90 37.5q55 0 92.5 -37.5t37.5 -91.5t-37.5 -91t-92.5 -37q-53 0 -90 37.5z" />
    <glyph glyph-name="uni01D6" unicode="&#x1d6;" 
d="M1953 141v-141h-395l-10 207q-96 -102 -261.5 -164.5t-358.5 -62.5q-247 0 -401 109t-154 350v563h187v-512q0 -125 42 -204t138 -119t258 -40q142 0 258 44t190.5 110t97.5 132v589h186v-861h223zM1448 1657v-130h-834v130h834zM732 1170.5q-37 37.5 -37 90.5
q0 54 36.5 91.5t89.5 37.5t90 -37.5t37 -91.5q0 -53 -37 -90.5t-90 -37.5q-52 0 -89 37.5zM1145 1170.5q-37 37.5 -37 90.5q0 54 37 91.5t90 37.5q55 0 92.5 -37.5t37.5 -91.5t-37.5 -91t-92.5 -37q-53 0 -90 37.5z" />
    <glyph glyph-name="ugrave" unicode="&#xf9;" 
d="M1953 141v-141h-395l-10 207q-96 -102 -261.5 -164.5t-358.5 -62.5q-247 0 -401 109t-154 350v563h187v-512q0 -125 42 -204t138 -119t258 -40q142 0 258 44t190.5 110t97.5 132v589h186v-861h223zM1094 1238l-284 282h225l220 -282h-161z" />
    <glyph glyph-name="uhungarumlaut" unicode="&#x171;" 
d="M1953 141v-141h-395l-10 207q-96 -102 -261.5 -164.5t-358.5 -62.5q-247 0 -401 109t-154 350v563h187v-512q0 -125 42 -204t138 -119t258 -40q142 0 258 44t190.5 110t97.5 132v589h186v-861h223zM839 1520h180l-167 -282h-135zM1173 1520h188l-232 -282h-130z" />
    <glyph glyph-name="umacron" unicode="&#x16b;" 
d="M1953 141v-141h-395l-10 207q-96 -102 -261.5 -164.5t-358.5 -62.5q-247 0 -401 109t-154 350v563h187v-512q0 -125 42 -204t138 -119t258 -40q142 0 258 44t190.5 110t97.5 132v589h186v-861h223zM1448 1445v-130h-834v130h834z" />
    <glyph glyph-name="uogonek" unicode="&#x173;" 
d="M1548.5 -83.5q-41.5 -47.5 -41.5 -90.5q0 -42 52 -61t125 -19q46 0 92.5 7t70.5 14l50 -128q-46 -14 -114.5 -21.5t-135.5 -7.5q-85 0 -161 18.5t-123.5 57.5t-47.5 96q0 72 60.5 134.5t136.5 97.5h45l-9 193q-96 -102 -261.5 -164.5t-358.5 -62.5q-247 0 -401 109
t-154 350v563h187v-512q0 -125 42 -204t138 -119t258 -40q142 0 258 44t190.5 110t97.5 132v589h186v-861h223v-141h-306q-57 -36 -98.5 -83.5z" />
    <glyph glyph-name="uring" unicode="&#x16f;" 
d="M1953 141v-141h-395l-10 207q-96 -102 -261.5 -164.5t-358.5 -62.5q-247 0 -401 109t-154 350v563h187v-512q0 -125 42 -204t138 -119t258 -40q142 0 258 44t190.5 110t97.5 132v589h186v-861h223zM938.5 1264.5q-42.5 24.5 -68 67t-25.5 94.5q0 50 25.5 92t68.5 67
t93 25q49 0 91.5 -25t67.5 -67.5t25 -91.5q0 -52 -25 -94.5t-67.5 -67t-91.5 -24.5q-51 0 -93.5 24.5zM1088 1367.5q23 22.5 23 59.5q0 33 -23 54.5t-56 21.5q-34 0 -57 -21.5t-23 -54.5q0 -37 23 -59.5t57 -22.5q33 0 56 22.5z" />
    <glyph glyph-name="v" unicode="v" 
d="M298 1000h205l448 -849h194l447 849h206l-517 -1000h-465z" />
    <glyph glyph-name="w" unicode="w" horiz-adv-x="2600" 
d="M2201 1000h211l-378 -1000h-308l-412 904l-410 -904h-310l-379 1000h211l325 -912l422 912h281l423 -910z" />
    <glyph glyph-name="wacute" unicode="&#x1e83;" horiz-adv-x="2600" 
d="M2201 1000h211l-378 -1000h-308l-412 904l-410 -904h-310l-379 1000h211l325 -912l422 912h281l423 -910zM1326 1520h223l-286 -282h-160z" />
    <glyph glyph-name="wcircumflex" unicode="&#x175;" horiz-adv-x="2600" 
d="M2201 1000h211l-378 -1000h-308l-412 904l-410 -904h-310l-379 1000h211l325 -912l422 912h281l423 -910zM1458 1258l-137 166l-140 -166h-185l249 262h149l249 -262h-185z" />
    <glyph glyph-name="wdieresis" unicode="&#x1e85;" horiz-adv-x="2600" 
d="M2201 1000h211l-378 -1000h-308l-412 904l-410 -904h-310l-379 1000h211l325 -912l422 912h281l423 -910zM1017 1334.5q-37 37.5 -37 90.5q0 54 36.5 91.5t89.5 37.5t90 -37.5t37 -91.5q0 -53 -37 -90.5t-90 -37.5q-52 0 -89 37.5zM1430 1334.5q-37 37.5 -37 90.5
q0 54 37 91.5t90 37.5q55 0 92.5 -37.5t37.5 -91.5t-37.5 -91t-92.5 -37q-53 0 -90 37.5z" />
    <glyph glyph-name="wgrave" unicode="&#x1e81;" horiz-adv-x="2600" 
d="M2201 1000h211l-378 -1000h-308l-412 904l-410 -904h-310l-379 1000h211l325 -912l422 912h281l423 -910zM1379 1238l-284 282h225l220 -282h-161z" />
    <glyph glyph-name="x" unicode="x" 
d="M1390 505l434 -505h-215l-361 436h-360l-357 -436h-215l431 507l-431 493h214l358 -424h360l361 424h215z" />
    <glyph glyph-name="y" unicode="y" 
d="M1662 1000h209l-941 -1400h-208l270 402l-674 998h211l565 -846z" />
    <glyph glyph-name="yacute" unicode="&#xfd;" 
d="M1662 1000h209l-941 -1400h-208l270 402l-674 998h211l565 -846zM1090 1520h223l-286 -282h-160z" />
    <glyph glyph-name="ycircumflex" unicode="&#x177;" 
d="M1662 1000h209l-941 -1400h-208l270 402l-674 998h211l565 -846zM1222 1258l-137 166l-140 -166h-185l249 262h149l249 -262h-185z" />
    <glyph glyph-name="ydieresis" unicode="&#xff;" 
d="M1662 1000h209l-941 -1400h-208l270 402l-674 998h211l565 -846zM782 1334.5q-37 37.5 -37 90.5q0 54 36.5 91.5t89.5 37.5t90 -37.5t37 -91.5q0 -53 -37 -90.5t-90 -37.5q-52 0 -89 37.5zM1195 1334.5q-37 37.5 -37 90.5q0 54 37 91.5t90 37.5q55 0 92.5 -37.5
t37.5 -91.5t-37.5 -91t-92.5 -37q-53 0 -90 37.5z" />
    <glyph glyph-name="ygrave" unicode="&#x1ef3;" 
d="M1662 1000h209l-941 -1400h-208l270 402l-674 998h211l565 -846zM1144 1238l-284 282h225l220 -282h-161z" />
    <glyph glyph-name="z" unicode="z" 
d="M1761 141v-141h-1417v144l1118 715h-1090v141h1380v-144l-1111 -715h1120z" />
    <glyph glyph-name="zacute" unicode="&#x17a;" 
d="M1761 141v-141h-1417v144l1118 715h-1090v141h1380v-144l-1111 -715h1120zM1060 1520h223l-286 -282h-160z" />
    <glyph glyph-name="zcaron" unicode="&#x17e;" 
d="M1761 141v-141h-1417v144l1118 715h-1090v141h1380v-144l-1111 -715h1120zM1127 1238h-149l-249 262h185l138 -166l138 166h185z" />
    <glyph glyph-name="zdotaccent" unicode="&#x17c;" 
d="M1761 141v-141h-1417v144l1118 715h-1090v141h1380v-144l-1111 -715h1120zM997 1318q-29 17 -46 46.5t-17 64.5t17 64.5t46 46.5t63 17q53 0 90.5 -37t37.5 -91t-37.5 -91t-90.5 -37q-34 0 -63 17z" />
    <glyph glyph-name="ordfeminine" unicode="&#xaa;" horiz-adv-x="1800" 
d="M1035.5 1097q-38.5 -18 -96 -30.5t-125.5 -12.5q-138 0 -216.5 41.5t-78.5 113.5q0 69 89 107.5t243 38.5q82 -1 141.5 -15.5t80.5 -29.5v42q0 44 -57 66t-150 22q-78 0 -149 -11.5t-106 -24.5l-54 75q45 15 123 27t182 12q95 0 176.5 -21t131 -60.5t49.5 -93.5v-195h106
v-84h-222l-17 68q-12 -17 -50.5 -35zM989.5 1273.5q-56.5 7.5 -124.5 7.5q-94 0 -144.5 -19t-50.5 -53q0 -36 45 -53.5t136 -17.5q74 0 134 16.5t80 33.5v68q-19 10 -75.5 17.5z" />
    <glyph glyph-name="ordmasculine" unicode="&#xba;" horiz-adv-x="1800" 
d="M783.5 1087q-53.5 31 -84.5 84.5t-31 116.5t31 115.5t84.5 83.5t116.5 31q62 0 115 -31t84.5 -84t31.5 -115q0 -63 -31.5 -116t-84.5 -84.5t-115 -31.5q-63 0 -116.5 31zM982.5 1204q33.5 34 33.5 84q0 49 -33.5 82.5t-82.5 33.5q-50 0 -83.5 -33.5t-33.5 -82.5
q0 -50 33.5 -84t83.5 -34q49 0 82.5 34z" />
    <glyph glyph-name="zero" unicode="0" horiz-adv-x="2163" 
d="M658.5 47q-173.5 69 -281.5 229t-108 420q0 259 108 419t281.5 228.5t383.5 68.5q196 0 369 -69t285 -229.5t112 -417.5q0 -258 -112 -418.5t-285 -230t-369 -69.5q-210 0 -383.5 69zM1323.5 176q128.5 58 208.5 187.5t80 332.5t-80 332t-208.5 187t-281.5 58
q-159 0 -289 -58t-209 -187t-79 -332q0 -204 79 -333t209 -187t289 -58q153 0 281.5 58z" />
    <glyph glyph-name="zero.ss01" horiz-adv-x="2163" 
d="M1410.5 1343q172.5 -69 284 -229.5t111.5 -417.5q0 -258 -111.5 -419t-284 -230t-368.5 -69q-210 0 -383 69t-280.5 229t-107.5 420q0 259 107.5 419t281 228.5t382.5 68.5q196 0 368.5 -69zM753.5 1215q-129.5 -58 -208 -187t-78.5 -332q0 -234 110 -380l841 840
q-75 60 -172 88.5t-204 28.5q-159 0 -288.5 -58zM1323 176q128 58 207.5 187.5t79.5 332.5q0 225 -104 370l-840 -838q75 -56 171.5 -83t204.5 -27q153 0 281 58z" />
    <glyph glyph-name="one" unicode="1" horiz-adv-x="2163" 
d="M1721 141v-141h-1387v141h614v1094l-566 -177l-57 142l642 200h168v-1259h586z" />
    <glyph glyph-name="two" unicode="2" horiz-adv-x="2163" 
d="M1382.5 528q-323.5 -215 -741.5 -389h1080v-139h-1445v141q379 161 629.5 286t423.5 269.5t173 291.5q0 85 -65 148t-179.5 96.5t-259.5 33.5q-138 0 -263.5 -36.5t-212 -82.5t-112.5 -73l-159 114q60 57 178.5 108.5t270.5 83.5t308 32q209 0 367 -52.5t244.5 -149.5
t86.5 -226q0 -241 -323.5 -456z" />
    <glyph glyph-name="three" unicode="3" horiz-adv-x="2163" 
d="M1279 846q143 0 267 -42.5t200.5 -129t76.5 -212.5q0 -162 -104 -270.5t-284.5 -161t-413.5 -52.5q-176 0 -325 30t-255 80.5t-163 112.5l178 91q38 -45 117.5 -82.5t194 -60.5t251.5 -23q176 0 314 34.5t218.5 108t80.5 185.5q0 96 -65 156t-169 86.5t-226 26.5
q-152 0 -314 -45l-96 131l693 450h-1087v141h1375v-141l-698 -448q126 35 234 35z" />
    <glyph glyph-name="four" unicode="4" horiz-adv-x="2163" 
d="M1292 319h-1057v141l777 940h473v-940h414v-141h-414v-319h-193v319zM1292 460v800h-179l-657 -800h836z" />
    <glyph glyph-name="five" unicode="5" horiz-adv-x="2163" 
d="M1472 879q153 -52 238 -156t85 -253q0 -164 -98 -274t-274.5 -164t-414.5 -54q-240 0 -419.5 52.5t-275.5 131.5l168 110q66 -64 208 -105t340 -41q265 0 424 82.5t159 254.5q0 107 -68.5 180t-189 108.5t-277.5 35.5q-182 0 -321.5 -50t-213.5 -141l-167 71l140 733
h1191v-141h-1033l-91 -462q86 66 222.5 100t313.5 34q201 0 354 -52z" />
    <glyph glyph-name="six" unicode="6" horiz-adv-x="2163" 
d="M1467 881q145 -53 222.5 -154.5t77.5 -245.5q0 -147 -94 -261t-265.5 -178t-395.5 -64q-356 0 -551.5 167t-195.5 517q0 245 125 414.5t323.5 252.5t419.5 83q124 0 231.5 -15t184 -37t115.5 -45l-124 -126q-56 32 -160.5 55t-247.5 23q-161 0 -312.5 -59.5t-254 -189.5
t-110.5 -330q63 75 166.5 131t233 85.5t266.5 29.5q201 0 346 -53zM1302 165q127 41 200 122t73 195q0 162 -141 236t-355 74q-124 0 -252 -36.5t-225.5 -103.5t-132.5 -154q40 -194 181.5 -284t362.5 -90q162 0 289 41z" />
    <glyph glyph-name="seven" unicode="7" horiz-adv-x="2163" 
d="M1803 1400v-141l-945 -1259h-224l969 1259h-1224v141h1424z" />
    <glyph glyph-name="eight" unicode="8" horiz-adv-x="2163" 
d="M1777.5 616.5q99.5 -84.5 99.5 -212.5q0 -136 -95.5 -231.5t-270 -145t-411.5 -49.5t-412.5 49.5t-271 145t-95.5 231.5q0 129 98.5 213.5t272.5 127.5q-129 43 -201.5 118.5t-72.5 183.5q0 115 89.5 198t244.5 126t348 43t348 -43t244.5 -126t89.5 -198
q0 -108 -73.5 -184t-203.5 -119q173 -43 272.5 -127.5zM661.5 914q59.5 -53 171.5 -81t267 -28q159 0 271 28t169.5 80.5t57.5 125.5q0 81 -70.5 132.5t-183.5 74.5t-244 23q-132 0 -244.5 -23t-183 -74.5t-70.5 -132.5q0 -72 59.5 -125zM1396.5 154.5q133.5 31.5 212.5 95
t79 155.5q0 135 -163 199.5t-425 64.5t-425.5 -64.5t-163.5 -199.5q0 -92 79 -155.5t213 -95t297 -31.5t296.5 31.5z" />
    <glyph glyph-name="nine" unicode="9" horiz-adv-x="2163" 
d="M1566 1272q208 -142 208 -466q0 -433 -358.5 -619.5t-960.5 -186.5v145q324 0 553 43.5t375 156t186 312.5q-114 -97 -279.5 -148t-362.5 -51q-193 0 -343.5 50.5t-237.5 155.5t-87 262q0 152 98 262.5t267.5 168t378.5 57.5q355 0 563 -142zM1352 667.5
q169 65.5 230 188.5q-9 160 -88.5 250.5t-203.5 125t-290 34.5q-157 0 -281 -37.5t-196 -113t-72 -186.5t65.5 -184.5t178.5 -108t260 -34.5q228 0 397 65.5z" />
    <glyph glyph-name="uni2070" unicode="&#x2070;" horiz-adv-x="1800" 
d="M547.5 533.5q-124.5 50.5 -201.5 166.5t-77 304q0 187 77 303t201.5 166t273.5 50q139 0 262.5 -50.5t203.5 -166.5t80 -302t-80 -303t-203.5 -167.5t-262.5 -50.5q-149 0 -273.5 50.5zM1023.5 624q93.5 44 152 139t58.5 241t-58.5 241t-152 138.5t-202.5 43.5
q-114 0 -208.5 -43t-152.5 -137.5t-58 -242.5t58 -243t152.5 -138t208.5 -43q109 0 202.5 44z" />
    <glyph glyph-name="uni00B9" unicode="&#xb9;" horiz-adv-x="1800" 
d="M1308 598v-98h-988v98h442v797l-407 -122l-47 97l461 141h117v-913h422z" />
    <glyph glyph-name="uni00B2" unicode="&#xb2;" horiz-adv-x="1800" 
d="M1034.5 881.5q-243.5 -163.5 -538.5 -285.5h785v-96h-1011v104q247 106 429 200t304 199.5t122 209.5q0 62 -42.5 109t-122 73t-187.5 26q-94 0 -180.5 -25t-147 -58t-78.5 -55l-116 69q37 44 117 83.5t188.5 63.5t226.5 24q150 0 261.5 -35t172.5 -102.5t61 -162.5
q0 -178 -243.5 -341.5z" />
    <glyph glyph-name="uni00B3" unicode="&#xb3;" horiz-adv-x="1800" 
d="M913.5 1100.5q44.5 5.5 83.5 5.5q111 0 203 -29.5t147 -93t55 -159.5q0 -113 -74 -189.5t-205 -114t-305 -37.5q-193 0 -333.5 41.5t-206.5 118.5l124 64q46 -52 156.5 -86.5t257.5 -34.5q208 0 332 56.5t124 178.5q0 102 -97.5 149.5t-246.5 47.5q-58 0 -107.5 -8
t-112.5 -23l-75 105l504 321h-796v98h1004v-98l-508 -327q32 9 76.5 14.5z" />
    <glyph glyph-name="uni2074" unicode="&#x2074;" horiz-adv-x="1800" 
d="M1481 830v-98h-316v-232h-132v232h-798v98l568 681h362v-681h316zM1033 830v584h-150l-493 -584h643z" />
    <glyph glyph-name="fraction" unicode="&#x2044;" horiz-adv-x="2163" 
d="M670 -284h-164l878 1884h164z" />
    <glyph glyph-name="period" unicode="." horiz-adv-x="1800" 
d="M836 -1.5q-37 21.5 -59 58.5t-22 81t22 81t59 58.5t80 21.5q44 0 81 -21.5t58.5 -58.5t21.5 -81t-21.5 -81t-58.5 -58.5t-81 -21.5q-43 0 -80 21.5z" />
    <glyph glyph-name="comma" unicode="," horiz-adv-x="1800" 
d="M724 -18q-56 15 -88 53t-32 94q0 41 20.5 76.5t55 56t76.5 20.5t77 -20.5t55.5 -56t20.5 -76.5q0 -51 -22 -93l-199 -365l-107 47z" />
    <glyph glyph-name="colon" unicode=":" horiz-adv-x="1800" 
d="M791 714.5q-37 21.5 -59 58.5t-22 81t22 81t59 58.5t80 21.5q44 0 81 -21.5t58.5 -58.5t21.5 -81t-21.5 -81t-58.5 -58.5t-81 -21.5q-43 0 -80 21.5zM791 -1.5q-37 21.5 -59 58.5t-22 81t22 81t59 58.5t80 21.5q44 0 81 -21.5t58.5 -58.5t21.5 -81t-21.5 -81t-58.5 -58.5
t-81 -21.5q-43 0 -80 21.5z" />
    <glyph glyph-name="semicolon" unicode=";" horiz-adv-x="1800" 
d="M799 714.5q-37 21.5 -59 58.5t-22 81t22 81t59 58.5t80 21.5q44 0 81 -21.5t58.5 -58.5t21.5 -81t-21.5 -81t-58.5 -58.5t-81 -21.5q-43 0 -80 21.5zM855 -18q-56 15 -88 53t-32 94q0 41 20.5 76.5t55 56t76.5 20.5t77 -20.5t55.5 -56t20.5 -76.5q0 -51 -22 -93
l-199 -365l-107 47z" />
    <glyph glyph-name="ellipsis" unicode="&#x2026;" horiz-adv-x="2163" 
d="M462.5 -2q-36.5 21 -57.5 57.5t-21 79.5t21 79t57.5 57t78.5 21q43 0 79.5 -21t57.5 -57t21 -79t-21 -79.5t-57.5 -57.5t-79.5 -21q-42 0 -78.5 21zM1015.5 -2q-36.5 21 -57.5 57.5t-21 79.5t21 79t57.5 57t78.5 21q43 0 79.5 -21t57.5 -57t21 -79t-21 -79.5t-57.5 -57.5
t-79.5 -21q-42 0 -78.5 21zM1547.5 -2q-36.5 21 -58 57.5t-21.5 79.5t21.5 79t58 57t78.5 21q43 0 79 -21t57 -57t21 -79t-21 -79.5t-57 -57.5t-79 -21q-42 0 -78.5 21z" />
    <glyph glyph-name="exclam" unicode="!" horiz-adv-x="1800" 
d="M783 1400h223l-34 -992h-153zM803.5 16.5q-38.5 38.5 -38.5 93.5q0 35 17.5 64.5t48 46.5t66.5 17q55 0 93 -37.5t38 -90.5q0 -56 -38 -94t-93 -38t-93.5 38.5z" />
    <glyph glyph-name="exclamdown" unicode="&#xa1;" horiz-adv-x="1800" 
d="M988 1384q38 -38 38 -93q0 -54 -38 -91t-94 -37q-55 0 -93 37t-38 91q0 56 38 93.5t93 37.5q56 0 94 -38zM784 0l35 992h153l35 -992h-223z" />
    <glyph glyph-name="question" unicode="?" horiz-adv-x="2163" 
d="M915.5 598q54.5 71 131.5 119t199 108q92 46 142 75.5t84 66t34 80.5q0 124 -146 171.5t-352 47.5q-115 0 -223.5 -24t-189.5 -60t-116 -73l-124 117q45 44 138 86.5t227 71t291 28.5q316 0 499 -85.5t183 -270.5q0 -76 -48 -135.5t-116.5 -102t-184.5 -101.5
q-106 -53 -169 -91.5t-105.5 -89t-42.5 -113.5v-15h-166v25q0 94 54.5 165zM880 -4.5q-30 17.5 -47.5 47.5t-17.5 66q0 35 17.5 64t47.5 46.5t66 17.5q37 0 67 -17.5t47.5 -46.5t17.5 -64q0 -55 -38 -93t-94 -38q-36 0 -66 17.5z" />
    <glyph glyph-name="questiondown" unicode="&#xbf;" horiz-adv-x="2163" 
d="M1178 1374q38 -38 38 -93q0 -35 -17.5 -64t-47.5 -46.5t-66 -17.5q-37 0 -67 17.5t-47.5 46.5t-17.5 64q0 56 38 93.5t94 37.5q55 0 93 -38zM1115.5 792.5q-54.5 -71.5 -131.5 -119.5t-199 -108q-92 -46 -142 -75.5t-84 -66t-34 -80.5q0 -124 146 -171.5t352 -47.5
q115 0 223.5 24t189.5 60t117 73l123 -117q-45 -44 -138 -86.5t-227 -71t-291 -28.5q-315 0 -498 85.5t-183 270.5q0 76 48 136t117.5 103t183.5 100q107 54 169 92.5t104.5 89t42.5 112.5v15h166v-24q0 -94 -54.5 -165.5z" />
    <glyph glyph-name="periodcentered" unicode="&#xb7;" horiz-adv-x="1800" 
d="M836 516.5q-37 21.5 -59 58.5t-22 81t22 81t59 58.5t80 21.5q44 0 81 -21.5t58.5 -58.5t21.5 -81t-21.5 -81t-58.5 -58.5t-81 -21.5q-43 0 -80 21.5z" />
    <glyph glyph-name="bullet" unicode="&#x2022;" horiz-adv-x="2163" 
d="M857 470q-53 31 -84 84t-31 116q0 64 31 117.5t84 84.5t117 31t116.5 -31t83.5 -84.5t31 -117.5q0 -63 -31 -116t-84 -84t-116 -31q-64 0 -117 31z" />
    <glyph glyph-name="asterisk" unicode="*" horiz-adv-x="2163" 
d="M1325 1340l-208 -59l136 -176l-104 -74l-127 190l-127 -190l-104 74l136 176l-207 59l42 124l199 -72l-5 208h134l-8 -208l201 72z" />
    <glyph glyph-name="numbersign" unicode="#" horiz-adv-x="2600" 
d="M2152 888h-316l-45 -389h313l-18 -151h-312l-40 -348h-174l40 348h-804l-40 -348h-176l40 348h-313l16 151h314l44 389h-308l16 151h309l41 361h176l-41 -361h804l41 361h176l-42 -361h316zM1617 499l44 389h-804l-44 -389h804z" />
    <glyph glyph-name="slash" unicode="/" horiz-adv-x="1150" 
d="M442 -284h-166l498 1884h166z" />
    <glyph glyph-name="backslash" unicode="\" horiz-adv-x="1153" 
d="M444 1600l498 -1884h-168l-498 1884h168z" />
    <glyph glyph-name="parenleft" unicode="(" horiz-adv-x="2163" 
d="M1101 -302.5q-117 119.5 -215.5 345.5t-98.5 545t99 544.5t217 344t181 141.5l112 -110q-56 -24 -156 -127t-185.5 -304t-85.5 -489q0 -286 85 -487t184 -305.5t155 -130.5l-111 -111q-64 24 -181 143.5z" />
    <glyph glyph-name="parenright" unicode=")" horiz-adv-x="2163" 
d="M529 -335q56 26 155.5 130.5t184.5 305.5t85 487q0 288 -85.5 488.5t-186 304t-155.5 127.5l111 110q63 -23 181 -141.5t217 -344t99 -544.5t-98.5 -545t-215.5 -345.5t-181 -143.5z" />
    <glyph glyph-name="braceleft" unicode="{" horiz-adv-x="2163" 
d="M905 596q79 -11 134 -66t55 -184v-371q0 -144 81 -205t225 -61h103v-142h-159q-199 0 -310.5 94.5t-111.5 269.5v346q0 81 -18.5 133.5t-65 80.5t-128.5 28h-14v153h14q82 0 128.5 28t65 81t18.5 134v345q0 175 111.5 269.5t310.5 94.5h159v-142h-103q-144 0 -225 -61
t-81 -205v-371q0 -224 -189 -249z" />
    <glyph glyph-name="braceright" unicode="}" horiz-adv-x="2163" 
d="M1279 672v-153h-14q-82 0 -128.5 -28t-65 -80.5t-18.5 -133.5v-346q0 -175 -111.5 -269.5t-310.5 -94.5h-159v142h103q144 0 225 61t81 205v371q0 129 55 184t134 66q-189 25 -189 249v371q0 144 -81 205t-225 61h-103v142h159q199 0 310.5 -94.5t111.5 -269.5v-345
q0 -81 18.5 -134t65 -81t128.5 -28h14z" />
    <glyph glyph-name="bracketleft" unicode="[" horiz-adv-x="2163" 
d="M1088 1459v-1718h507v-151h-689v2020h689v-151h-507z" />
    <glyph glyph-name="bracketright" unicode="]" horiz-adv-x="2163" 
d="M320 1459v151h689v-2020h-689v151h507v1718h-507z" />
    <glyph glyph-name="hyphen" unicode="-" horiz-adv-x="2163" 
d="M1491 684v-151h-1022v151h1022z" />
    <glyph glyph-name="endash" unicode="&#x2013;" horiz-adv-x="2163" 
d="M1613 684v-151h-1283v151h1283z" />
    <glyph glyph-name="emdash" unicode="&#x2014;" horiz-adv-x="2163" 
d="M1908 684v-151h-1837v151h1837z" />
    <glyph glyph-name="underscore" unicode="_" horiz-adv-x="2163" 
d="M2163 -123v-151h-2164v151h2164z" />
    <glyph glyph-name="quotesinglbase" unicode="&#x201a;" horiz-adv-x="1800" 
d="M724 -18q-56 15 -88 53t-32 94q0 41 20.5 76.5t55 56t76.5 20.5t77 -20.5t55.5 -56t20.5 -76.5q0 -51 -22 -93l-199 -365l-107 47z" />
    <glyph glyph-name="quotedblbase" unicode="&#x201e;" horiz-adv-x="2163" 
d="M805 -18q-56 15 -88 53t-32 94q0 41 20.5 76.5t55 56t76.5 20.5t77 -20.5t55.5 -56t20.5 -76.5q0 -51 -22 -93l-199 -365l-107 47zM1158 -18q-56 15 -88 53t-32 94q0 41 20.5 76.5t55 56t76.5 20.5t77 -20.5t55.5 -56t20.5 -76.5q0 -51 -22 -93l-199 -365l-107 47z" />
    <glyph glyph-name="quotedblleft" unicode="&#x201c;" horiz-adv-x="2163" 
d="M1144 1297q52 -14 82 -49t30 -87q0 -38 -19 -71t-51 -52t-71 -19t-71.5 19t-51.5 52t-19 71q0 49 20 86l187 344l99 -44zM1518 1297q52 -14 82 -49t30 -87q0 -38 -19 -71t-51 -52t-71 -19t-71.5 19t-51.5 52t-19 71q0 49 20 86l187 344l99 -44z" />
    <glyph glyph-name="quotedblright" unicode="&#x201d;" horiz-adv-x="2163" 
d="M380 1313q-52 14 -82 49t-30 87q0 38 19 71t51 52t71 19t71.5 -19t51.5 -52t19 -71q0 -48 -20 -86l-187 -344l-99 44zM754 1313q-51 14 -81 49.5t-30 86.5q0 39 18.5 71.5t50.5 51.5t71 19t71.5 -19t51.5 -52t19 -71q0 -51 -20 -86l-187 -344l-99 44z" />
    <glyph glyph-name="quoteleft" unicode="&#x2018;" horiz-adv-x="1800" 
d="M931 1305q52 -14 82 -49t30 -87q0 -38 -19 -71t-51 -52t-71 -19t-71.5 19t-51.5 52t-19 71q0 49 20 86l187 344l99 -44z" />
    <glyph glyph-name="quoteright" unicode="&#x2019;" horiz-adv-x="1800" 
d="M401 1362q-30 35 -30 87q0 38 19 71t51 52t71 19t71.5 -19t51.5 -52t19 -71q0 -48 -20 -86l-188 -344l-99 44l136 250q-52 14 -82 49z" />
    <glyph glyph-name="guillemotleft" unicode="&#xab;" horiz-adv-x="2163" 
d="M1019 965l-677 -377l677 -379l-69 -106l-786 419v130l786 419zM1681 965l-677 -377l677 -379l-69 -106l-786 419v130l786 419z" />
    <glyph glyph-name="guillemotright" unicode="&#xbb;" horiz-adv-x="2163" 
d="M1168 652v-130l-786 -419l-69 106l678 379l-678 377l69 106zM1044 1071l786 -419v-130l-786 -419l-69 106l678 379l-678 377z" />
    <glyph glyph-name="guilsinglleft" unicode="&#x2039;" horiz-adv-x="2163" 
d="M1350 965l-677 -377l677 -379l-69 -106l-786 419v130l786 419z" />
    <glyph glyph-name="guilsinglright" unicode="&#x203a;" horiz-adv-x="2163" 
d="M570 1071l787 -419v-130l-787 -419l-69 106l678 379l-678 377z" />
    <glyph glyph-name="quotedbl" unicode="&#x22;" horiz-adv-x="1913" 
d="M846 1400l-47 -456h-117l-49 456h213zM1264 1400l-47 -456h-117l-49 456h213z" />
    <glyph glyph-name="quotesingle" unicode="'" horiz-adv-x="1800" 
d="M982 1400l-47 -456h-117l-49 456h213z" />
    <glyph glyph-name="cent" unicode="&#xa2;" horiz-adv-x="2163" 
d="M1497 229.5q-165 -52.5 -364 -58.5v-171h-164v173q-201 13 -360 72.5t-253 172t-94 276.5q0 166 93.5 278t252.5 170.5t361 70.5v187h164v-185q194 -6 353.5 -62.5t269.5 -168.5l-164 -86q-72 75 -207.5 122.5t-324.5 47.5q-163 0 -300.5 -39t-222.5 -123t-85 -212
q0 -127 85 -211.5t223.5 -124.5t299.5 -40q124 0 233 21.5t188.5 57t118.5 76.5l165 -90q-103 -101 -268 -153.5z" />
    <glyph glyph-name="currency" unicode="&#xa4;" horiz-adv-x="2163" 
d="M1589 476l139 -130l-92 -98l-167 161q-85 -36 -191.5 -53.5t-221.5 -17.5q-117 0 -225 18t-195 55l-173 -166l-90 99l143 136q-128 100 -128 260t130 261l-145 137l90 99l175 -168q87 36 194 53.5t224 17.5q113 0 218.5 -17t191.5 -51l170 162l92 -97l-140 -133
q134 -101 134 -264q0 -162 -133 -264zM635.5 588q75.5 -57 187.5 -80t233 -23t232 23t186 80t75 152q0 94 -75 150.5t-186 79.5t-232 23t-233 -23t-187.5 -79.5t-75.5 -150.5q0 -95 75.5 -152z" />
    <glyph glyph-name="dollar" unicode="$" horiz-adv-x="2163" 
d="M1805 163q-95 -85 -261 -130t-385 -53v-240h-168v239q-239 7 -429 61.5t-307 121.5l119 135q58 -41 158.5 -80.5t237 -66t290.5 -26.5q193 0 336.5 28t222 81t78.5 127q0 72 -74 119t-213.5 79.5t-379.5 68.5q-225 32 -378.5 79.5t-240.5 126.5t-87 197q0 116 87.5 197.5
t238 126t341.5 55.5v191h168v-189q214 -4 388 -48.5t283 -105.5l-117 -133q-98 56 -257 99t-353 43q-149 0 -281 -26.5t-213.5 -79t-81.5 -126.5q0 -68 68 -114.5t190.5 -77t312.5 -56.5q256 -36 427.5 -82.5t273 -126.5t101.5 -203q0 -126 -95 -211z" />
    <glyph glyph-name="Euro" unicode="&#x20ac;" horiz-adv-x="2163" 
d="M1456.5 173.5q147.5 42.5 217.5 117.5l158 -90q-88 -110 -272.5 -166.5t-418.5 -56.5q-194 0 -358 51t-281.5 159t-166.5 272h-300l24 133h250q-6 50 -6 103q0 57 6 108h-225l24 133h230q51 162 170.5 268.5t284 156.5t358.5 50q224 0 402.5 -58t278.5 -174l-158 -88
q-81 79 -220 123t-303 44q-209 0 -372 -77.5t-232 -244.5h917l-23 -133h-930q-8 -54 -8 -108q0 -58 7 -103h889l-24 -133h-832q67 -171 227.5 -250t370.5 -79q168 0 315.5 42.5z" />
    <glyph glyph-name="sterling" unicode="&#xa3;" horiz-adv-x="2163" 
d="M1663.5 129q83.5 10 125.5 26l47 -150q-48 -13 -146.5 -22t-226.5 -9q-73 0 -134 6.5t-143 19.5q-79 12 -131.5 18t-113.5 6q-88 0 -182.5 -9t-168.5 -21t-99 -20l-88 146q57 27 112 87t89.5 137t34.5 150q0 56 -19 132h-374v140h330q-23 72 -35.5 129t-12.5 115
q0 120 85 211t242 141t368 50q240 0 400 -52.5t245 -130.5l-134 -112q-71 62 -195 103.5t-316 41.5q-127 0 -241.5 -27t-189 -89.5t-74.5 -161.5q0 -47 12 -91.5t40 -126.5h757v-140h-716q13 -62 13 -121q0 -118 -47 -218t-138 -162q156 40 349 40q75 0 132.5 -6.5
t133.5 -18.5q63 -10 109 -15.5t100 -5.5q117 0 200.5 10z" />
    <glyph glyph-name="yen" unicode="&#xa5;" 
d="M1881 1400l-607 -714h410v-141h-502v-140h502v-141h-502v-264h-193v264h-504v141h504v140h-504v141h412l-610 714h217l582 -691l577 691h218z" />
    <glyph glyph-name="plus" unicode="+" horiz-adv-x="2163" 
d="M1559 684v-151h-443v-320h-151v320h-446v151h446v317h151v-317h443z" />
    <glyph glyph-name="minus" unicode="&#x2212;" horiz-adv-x="2163" 
d="M1555 684v-151h-1101v151h1101z" />
    <glyph glyph-name="multiply" unicode="&#xd7;" horiz-adv-x="2163" 
d="M1337 375l-108 -104l-230 230l-231 -230l-104 104l230 231l-230 229l106 107l230 -230l228 230l107 -107l-230 -228z" />
    <glyph glyph-name="divide" unicode="&#xf7;" horiz-adv-x="2163" 
d="M942.5 845.5q-32.5 33.5 -32.5 80.5t32.5 80t78.5 33q47 0 79.5 -33t32.5 -80t-32.5 -80.5t-79.5 -33.5q-46 0 -78.5 33.5zM1587 684v-151h-1107v151h1107zM942.5 216.5q-32.5 33.5 -32.5 81.5q0 46 32.5 79t78.5 33q47 0 79.5 -33t32.5 -79q0 -48 -32.5 -81.5
t-79.5 -33.5q-46 0 -78.5 33.5z" />
    <glyph glyph-name="equal" unicode="=" horiz-adv-x="2163" 
d="M1509 868v-151h-941v151h941zM1509 500v-151h-941v151h941z" />
    <glyph glyph-name="notequal" unicode="&#x2260;" horiz-adv-x="2163" 
d="M1498 717h-356l-112 -217h468v-151h-546l-86 -167h-135l86 167h-260v151h337l112 217h-449v151h526l92 179h137l-92 -179h278v-151z" />
    <glyph glyph-name="greater" unicode="&#x3e;" horiz-adv-x="2163" 
d="M491 1064l1203 -475v-143l-1203 -476l-62 126l1097 421l-1097 422z" />
    <glyph glyph-name="less" unicode="&#x3c;" horiz-adv-x="2163" 
d="M1715 939l-1097 -422l1097 -421l-61 -126l-1203 476v143l1203 475z" />
    <glyph glyph-name="greaterequal" unicode="&#x2265;" horiz-adv-x="2163" 
d="M505 1226l1062 -322v-170l-1062 -322l-59 119l898 288l-898 288zM371 197v141h1196v-141h-1196z" />
    <glyph glyph-name="lessequal" unicode="&#x2264;" horiz-adv-x="2163" 
d="M1548 531l-58 -119l-1063 322v170l1063 322l58 -119l-898 -288zM427 338h1197v-141h-1197v141z" />
    <glyph glyph-name="plusminus" unicode="&#xb1;" horiz-adv-x="2163" 
d="M1080 809h416v-126h-416v-245h-155v245h-418v126h418v243h155v-243zM507 187v126h989v-126h-989z" />
    <glyph glyph-name="approxequal" unicode="&#x2248;" horiz-adv-x="2163" 
d="M1114 474q-43 18 -94 53q-41 29 -71 42.5t-70 13.5q-59 0 -107.5 -29.5t-72.5 -66.5l-115 85q11 20 50.5 53t102.5 60t139 27q46 0 81.5 -10t60.5 -24t60 -38q40 -29 70.5 -43t71.5 -14q59 0 105.5 30t69.5 68l115 -88q-11 -21 -49 -53t-100 -58t-139 -26q-65 0 -108 18z
M1114 819q-43 18 -94 53q-41 29 -71 42.5t-70 13.5q-59 0 -107.5 -29.5t-72.5 -66.5l-115 85q11 20 50.5 53t102.5 60t139 27q46 0 81.5 -10t60.5 -24t60 -38q40 -29 70.5 -43t71.5 -14q59 0 105.5 30t69.5 68l115 -88q-11 -21 -49 -53t-100 -58t-139 -26q-65 0 -108 18z
" />
    <glyph glyph-name="asciitilde" unicode="~" horiz-adv-x="2163" 
d="M1272 662q-43 18 -94 53q-41 29 -71 42.5t-70 13.5q-59 0 -107.5 -29.5t-72.5 -66.5l-115 85q11 20 50.5 53t102.5 60t139 27q46 0 81.5 -10t60.5 -24t60 -38q40 -29 70.5 -43t71.5 -14q59 0 105.5 30t69.5 68l115 -88q-11 -21 -49 -53t-100 -58t-139 -26q-65 0 -108 18z
" />
    <glyph glyph-name="asciicircum" unicode="^" horiz-adv-x="2163" 
d="M1093 1470h-178l-138 -350h-164l198 480h388l198 -480h-166z" />
    <glyph glyph-name="infinity" unicode="&#x221e;" horiz-adv-x="2163" 
d="M1701 915.5q96 -39.5 151.5 -115.5t55.5 -182q0 -108 -55.5 -185t-151.5 -116.5t-217 -39.5q-137 0 -247 65.5t-183 165.5q-77 -99 -190 -165t-250 -66q-119 0 -211.5 39.5t-144.5 116.5t-52 185q0 106 52 182t144.5 115.5t211.5 39.5q137 0 250.5 -65t189.5 -163
q72 98 182.5 163t247.5 65q121 0 217 -39.5zM765.5 443.5q75.5 31.5 132.5 79t91 95.5q-34 48 -91 94.5t-132 77.5t-157 31q-63 0 -124 -21t-101.5 -66.5t-40.5 -115.5q0 -72 40.5 -118t101.5 -67t124 -21q81 0 156.5 31.5zM1616 433q65 21 110 67.5t45 117.5q0 69 -45 115
t-110 67t-128 21q-81 0 -154 -31t-126.5 -77.5t-83.5 -94.5q30 -48 83.5 -95.5t126.5 -79t154 -31.5q63 0 128 21z" />
    <glyph glyph-name="emptyset" unicode="&#x2205;" horiz-adv-x="2163" 
d="M1999.5 794.5q57.5 -98.5 57.5 -218.5q0 -184 -131.5 -315t-357 -198t-503.5 -67q-189 0 -357.5 31.5t-298.5 91.5l-211 -125l-98 102l174 103q-98 72 -150.5 167t-52.5 210q0 185 131.5 315.5t357 197.5t505.5 67q182 0 343 -29t289 -85l204 121l97 -101l-162 -96
q106 -73 163.5 -171.5zM301 417q46 -71 131 -124l1088 645q-196 61 -455 61q-222 0 -406 -47t-294 -142t-110 -234q0 -88 46 -159zM1469.5 200q183.5 47 293.5 142t110 234q0 93 -51.5 167.5t-145.5 127.5l-1093 -648q101 -35 224.5 -52.5t257.5 -17.5q221 0 404.5 47z" />
    <glyph glyph-name="radical" unicode="&#x221a;" horiz-adv-x="2163" 
d="M2047 1738v-151h-540l-633 -1587h-474l-303 752h178l242 -601h228l647 1587h655z" />
    <glyph glyph-name="percent" unicode="%" horiz-adv-x="2163" 
d="M389 0h-161l1442 1400h159zM358.5 876q-78.5 27 -127 86.5t-48.5 151.5q0 91 48.5 150t127 86t171.5 27q95 0 173.5 -27t126.5 -86t48 -150q0 -92 -48 -151.5t-126.5 -86.5t-173.5 -27q-93 0 -171.5 27zM687.5 990.5q65.5 38.5 65.5 123.5q0 84 -65.5 122.5t-157.5 38.5
t-156 -38.5t-64 -122.5q0 -85 64 -123.5t156 -38.5t157.5 38.5zM1371.5 36q-78.5 27 -126.5 86.5t-48 151.5q0 91 48 150t126.5 86t172.5 27q93 0 172 -27t128 -86t49 -150q0 -92 -49 -151.5t-127.5 -86.5t-172.5 -27t-172.5 27zM1701 150.5q64 38.5 64 123.5
q0 84 -64.5 122.5t-156.5 38.5q-91 0 -156 -38.5t-65 -122.5q0 -85 65 -123.5t156 -38.5q93 0 157 38.5z" />
    <glyph glyph-name="perthousand" unicode="&#x2030;" horiz-adv-x="2163" 
d="M582.5 960.5q-57.5 22.5 -94.5 71t-37 122.5q0 72 37 120t94.5 70t118.5 22q60 0 117.5 -22t95 -70t37.5 -120q0 -74 -37.5 -122.5t-94.5 -71t-118 -22.5t-118.5 22.5zM805.5 1048.5q44.5 31.5 44.5 108.5q0 69 -45.5 99.5t-103.5 30.5q-60 0 -104.5 -30.5t-44.5 -99.5
q0 -78 43.5 -109t105.5 -31q60 0 104.5 31.5zM103 530l1836 658l48 -78l-1834 -658zM576 27.5q-57 22.5 -94 71t-37 122.5q0 72 37 120t94 70t118 22q60 0 117.5 -22t95 -70t37.5 -120q0 -74 -37.5 -122.5t-94.5 -71t-118 -22.5t-118 22.5zM1414 27.5q-57 22.5 -94 71
t-37 122.5q0 72 37 120t94 70t118 22t118 -22t94.5 -70t37.5 -120q0 -74 -37.5 -122.5t-94.5 -71t-118 -22.5t-118 22.5zM798.5 115q44.5 31 44.5 108q0 70 -45.5 100.5t-103.5 30.5q-60 0 -104.5 -30.5t-44.5 -100.5q0 -78 43.5 -108.5t105.5 -30.5q60 0 104.5 31z
M1637.5 115q44.5 31 44.5 108q0 70 -45.5 100.5t-104.5 30.5q-60 0 -104 -30.5t-44 -100.5q0 -78 43 -108.5t105 -30.5q61 0 105.5 31z" />
    <glyph glyph-name="arrowup" unicode="&#x2191;" horiz-adv-x="2163" 
d="M1221 684h-108v-523h-130v523h-108l172 255z" />
    <glyph glyph-name="uni2197" unicode="&#x2197;" horiz-adv-x="2163" 
d="M1330 828l-58 -303l-76 76l-370 -369l-92 91l370 370l-76 76z" />
    <glyph glyph-name="arrowright" unicode="&#x2192;" horiz-adv-x="2163" 
d="M1430 518l-255 -174v108h-523v130h523v107z" />
    <glyph glyph-name="uni2198" unicode="&#x2198;" horiz-adv-x="2163" 
d="M1293 245l-303 58l76 76l-370 370l92 92l370 -370l76 76z" />
    <glyph glyph-name="arrowdown" unicode="&#x2193;" horiz-adv-x="2163" 
d="M1137 425h109l-174 -255l-172 255h108v523h129v-523z" />
    <glyph glyph-name="uni2199" unicode="&#x2199;" horiz-adv-x="2163" 
d="M1255 765l-369 -369l76 -76l-302 -59l57 303l77 -77l370 370z" />
    <glyph glyph-name="arrowleft" unicode="&#x2190;" horiz-adv-x="2163" 
d="M1326 660v-130h-523v-107l-255 171l255 174v-108h523z" />
    <glyph glyph-name="uni2196" unicode="&#x2196;" horiz-adv-x="2163" 
d="M1343 340l-91 -92l-370 370l-76 -76l-59 301l303 -57l-76 -76z" />
    <glyph glyph-name="arrowboth" unicode="&#x2194;" horiz-adv-x="2163" 
d="M1752 594l-255 -174v108h-825v-107l-255 172l255 173v-108h825v108z" />
    <glyph glyph-name="arrowupdn" unicode="&#x2195;" horiz-adv-x="2163" 
d="M1149 169h107l-172 -255l-173 255h108v825h-108l172 255l174 -255h-108v-825z" />
    <glyph glyph-name="lozenge" unicode="&#x25ca;" horiz-adv-x="2163" 
d="M1164 1400l698 -700l-698 -700h-211l-700 700l700 700h211zM1058 129l573 571l-573 571l-573 -571z" />
    <glyph glyph-name="at" unicode="@" horiz-adv-x="2600" 
d="M649 49q-224 67 -366 212t-142 366q0 275 179.5 450.5t469.5 255t634 79.5q296 0 519.5 -65t349 -197.5t125.5 -328.5q0 -170 -81.5 -292t-214.5 -184t-286 -62q-80 0 -149 21t-113.5 65t-48.5 110q-20 -51 -77 -91.5t-138 -63t-171 -22.5q-116 0 -212 35t-154.5 110
t-58.5 189q0 156 84 258.5t228.5 150t330.5 47.5q102 0 204 -13.5t153 -30.5l-4 -20q-28 -142 -56.5 -294.5t-28.5 -174.5q0 -86 60 -127.5t165 -41.5q109 0 203 54.5t150 153t56 224.5q0 224 -215.5 340.5t-630.5 116.5q-295 0 -547 -65.5t-408.5 -208.5t-156.5 -362
q0 -160 105 -279t295 -183.5t437 -64.5q167 0 287 16.5t158 32.5l104 -115q-67 -24 -218.5 -46t-345.5 -22q-250 0 -474 67zM1311.5 453q67.5 22 113.5 63t60 96l69 334q-101 22 -217 22q-122 0 -228 -32t-172.5 -102.5t-66.5 -180.5q0 -222 298 -222q76 0 143.5 22z" />
    <glyph glyph-name="ampersand" unicode="&#x26;" horiz-adv-x="2600" 
d="M2086 0l-171 113q-155 -65 -351 -97t-405 -32q-396 0 -603 91.5t-207 285.5q0 155 153 259.5t399 168.5q-93 73 -147 151t-54 167q0 102 69.5 170.5t186.5 101.5t260 33q141 0 253.5 -33.5t178.5 -101t66 -165.5q0 -131 -116.5 -226t-337.5 -151l659 -447
q185 116 185 292h199q0 -121 -62.5 -219t-176.5 -171l280 -190h-258zM981.5 1236.5q-99.5 -40.5 -99.5 -134.5q0 -62 67 -130t165 -137q213 45 316.5 109t103.5 155q0 65 -50 104.5t-123 56.5t-148 17q-132 0 -231.5 -40.5zM1476 148q156 22 285 67l-716 473
q-222 -50 -358.5 -123.5t-136.5 -192.5q0 -127 162.5 -186.5t453.5 -59.5q154 0 310 22z" />
    <glyph glyph-name="paragraph" unicode="&#xb6;" horiz-adv-x="2163" 
d="M1485 -240v1499h-252v-1499h-146v796h-285q-167 0 -293 48t-196 144t-70 237q0 134 73.5 227t213.5 140.5t336 47.5h765v-1640h-146z" />
    <glyph glyph-name="section" unicode="&#xa7;" horiz-adv-x="2163" 
d="M1706 97q0 -171 -212.5 -243t-539.5 -72q-175 0 -316 25t-236.5 66.5t-144.5 93.5l136 113q38 -48 125.5 -84.5t206.5 -56t252 -19.5q227 0 383 40.5t156 130.5q0 73 -173.5 124t-388.5 78q-628 79 -628 325q0 84 84.5 142t226.5 94q-131 43 -210 107.5t-79 155.5
q0 105 105 171t260.5 95t314.5 29q156 0 291.5 -23.5t233.5 -66.5t146 -99l-146 -99q-57 73 -202.5 111t-326.5 38q-120 0 -230 -16t-182 -51.5t-72 -90.5q0 -73 140.5 -118t315.5 -67q257 -33 476.5 -110t219.5 -234q0 -83 -74 -142.5t-192 -97.5q280 -95 280 -249z
M670 502.5q144 -50.5 328 -70.5q132 -15 224 -34q121 30 197.5 76t76.5 102q0 85 -162.5 136.5t-366.5 73.5l-79 10q-151 -19 -256.5 -61.5t-105.5 -106.5q0 -75 144 -125.5z" />
    <glyph glyph-name="copyright" unicode="&#xa9;" horiz-adv-x="2163" 
d="M659.5 162.5q-199.5 54.5 -330 186.5t-130.5 349q0 216 130.5 347.5t330 186t424.5 54.5q223 0 422 -54.5t329.5 -186t130.5 -347.5q0 -217 -130.5 -349t-329.5 -186.5t-422 -54.5q-225 0 -424.5 54.5zM1460 268q169 48 272 155t103 275q0 167 -103 273.5t-272 154.5
t-376 48q-209 0 -379.5 -48t-274.5 -154.5t-104 -273.5q0 -168 104 -275t274.5 -155t379.5 -48q207 0 376 48zM1402 454.5q-54 -29.5 -131 -48t-166 -18.5q-138 0 -248 34t-174 103.5t-64 170.5q0 102 64 171t173.5 103t248.5 34q107 0 186.5 -21t127.5 -53.5t68 -67.5
l-108 -58q-16 25 -57.5 47.5t-100 36t-123.5 13.5q-98 0 -177.5 -23t-127 -69.5t-47.5 -112.5q0 -65 47.5 -111t127.5 -69.5t177 -23.5q98 0 169.5 24t103.5 59l110 -58q-25 -33 -79 -62.5z" />
    <glyph glyph-name="registered" unicode="&#xae;" horiz-adv-x="2163" 
d="M1467.5 1353q186.5 -50 299 -161t112.5 -285t-112.5 -285.5t-299 -162t-415.5 -50.5q-231 0 -418 50.5t-300 162t-113 285.5t113 285t300 161t418 50q229 0 415.5 -50zM1426 548.5q161 44.5 252 134.5t91 224q0 133 -91 223t-252 134t-374 44q-215 0 -377 -44
t-253.5 -134t-91.5 -223q0 -134 89.5 -224.5t251.5 -134.5t381 -44q213 0 374 44.5zM1314.5 913.5q-47.5 -34.5 -118.5 -44.5l168 -217h-105l-156 212h-229v-212h-87v512h315q124 0 192 -31t68 -117q0 -68 -47.5 -102.5zM874 936h239q70 0 114.5 20.5t44.5 62.5q0 40 -40 56
t-119 16h-239v-155z" />
    <glyph glyph-name="trademark" unicode="&#x2122;" horiz-adv-x="2163" 
d="M968 1400v-95h-378v-453h-115v453h-350v95h843zM1919 852h-134l-32 479l-184 -418h-154l-189 417l-38 -478h-122l56 548h181l189 -418l188 418h175z" />
    <glyph glyph-name="degree" unicode="&#xb0;" horiz-adv-x="1825" 
d="M853.5 1087q-53.5 31 -84.5 84.5t-31 116.5t31 115.5t84.5 83.5t116.5 31q62 0 115 -31t84.5 -84t31.5 -115q0 -63 -31.5 -116t-84.5 -84.5t-115 -31.5q-63 0 -116.5 31zM1052.5 1204q33.5 34 33.5 84q0 49 -33.5 82.5t-82.5 33.5q-50 0 -83.5 -33.5t-33.5 -82.5
q0 -50 33.5 -84t83.5 -34q49 0 82.5 34z" />
    <glyph glyph-name="bar" unicode="|" horiz-adv-x="2163" 
d="M1060 1600v-1960h-150v1960h150z" />
    <glyph glyph-name="brokenbar" unicode="&#xa6;" horiz-adv-x="2163" 
d="M907 1600h155v-694h-155v694zM1062 -360h-155v686h155v-686z" />
    <glyph glyph-name="dagger" unicode="&#x2020;" horiz-adv-x="2163" 
d="M1447 1000v-151h-379v-849h-162v849h-376v151h376v360h162v-360h379z" />
    <glyph glyph-name="daggerdbl" unicode="&#x2021;" horiz-adv-x="2163" 
d="M1499 849h-380v-361h378v-150h-378v-338h-162v338h-375v150h375v361h-375v151h375v360h162v-360h380v-151z" />
    <glyph glyph-name="uni0308" unicode="&#x308;" horiz-adv-x="0" 
d="M-1498 1334.5q-37 37.5 -37 90.5q0 54 36.5 91.5t89.5 37.5t90 -37.5t37 -91.5q0 -53 -37 -90.5t-90 -37.5q-52 0 -89 37.5zM-1085 1334.5q-37 37.5 -37 90.5q0 54 37 91.5t90 37.5q55 0 92.5 -37.5t37.5 -91.5t-37.5 -91t-92.5 -37q-53 0 -90 37.5z" />
    <glyph glyph-name="uni0307" unicode="&#x307;" horiz-adv-x="0" 
d="M-1244 1318q-29 17 -46 46.5t-17 64.5t17 64.5t46 46.5t63 17q53 0 90.5 -37t37.5 -91t-37.5 -91t-90.5 -37q-34 0 -63 17z" />
    <glyph glyph-name="gravecomb" unicode="&#x300;" horiz-adv-x="0" 
d="M-1122 1238l-284 282h225l220 -282h-161z" />
    <glyph glyph-name="acutecomb" unicode="&#x301;" horiz-adv-x="0" 
d="M-1126 1520h223l-286 -282h-160z" />
    <glyph glyph-name="uni030B" unicode="&#x30b;" horiz-adv-x="0" 
d="M-1292 1520h180l-167 -282h-135zM-958 1520h188l-232 -282h-130z" />
    <glyph glyph-name="uni0302" unicode="&#x302;" horiz-adv-x="0" 
d="M-1067 1258l-137 166l-140 -166h-185l249 262h149l249 -262h-185z" />
    <glyph glyph-name="uni030C" unicode="&#x30c;" horiz-adv-x="0" 
d="M-1098 1238h-149l-249 262h185l138 -166l138 166h185z" />
    <glyph glyph-name="uni0306" unicode="&#x306;" horiz-adv-x="0" 
d="M-949 1385.5q-27 -61.5 -83.5 -101t-140.5 -39.5q-83 0 -138 39.5t-81 100.5t-26 128h136q0 -55 23.5 -108t87.5 -53q67 0 90 52t23 109h136q0 -66 -27 -127.5z" />
    <glyph glyph-name="uni030A" unicode="&#x30a;" horiz-adv-x="0" 
d="M-1310.5 1264.5q-42.5 24.5 -68 67t-25.5 94.5q0 50 25.5 92t68.5 67t93 25q49 0 91.5 -25t67.5 -67.5t25 -91.5q0 -52 -25 -94.5t-67.5 -67t-91.5 -24.5q-51 0 -93.5 24.5zM-1161 1367.5q23 22.5 23 59.5q0 33 -23 54.5t-56 21.5q-34 0 -57 -21.5t-23 -54.5
q0 -37 23 -59.5t57 -22.5q33 0 56 22.5z" />
    <glyph glyph-name="tildecomb" unicode="&#x303;" horiz-adv-x="0" 
d="M-1209 1274q-43 18 -94 53q-41 29 -71 42.5t-70 13.5q-59 0 -107.5 -29.5t-72.5 -66.5l-115 85q11 20 50.5 53t102.5 60t139 27q46 0 81.5 -10t60.5 -24t60 -38q40 -29 70.5 -43t71.5 -14q59 0 105.5 30t69.5 68l115 -88q-11 -21 -49 -53t-100 -58t-139 -26
q-65 0 -108 18z" />
    <glyph glyph-name="uni0304" unicode="&#x304;" horiz-adv-x="0" 
d="M-756 1445v-130h-834v130h834z" />
    <glyph glyph-name="uni0312" unicode="&#x312;" horiz-adv-x="0" 
d="M-1037.5 1311q28.5 -33 28.5 -82q0 -36 -18 -67t-48.5 -49t-67.5 -18q-36 0 -67 18t-49 49t-18 67q0 44 19 82l175 320l94 -41l-126 -232q49 -14 77.5 -47z" />
    <glyph glyph-name="uni0326" unicode="&#x326;" horiz-adv-x="0" 
d="M-1184.5 -289q-26.5 32 -26.5 78q0 53 37 90t90 37q35 0 64.5 -17t46.5 -46.5t17 -63.5q0 -42 -19 -78l-166 -304l-89 39l119 220q-47 13 -73.5 45z" />
    <glyph glyph-name="uni0327" unicode="&#x327;" horiz-adv-x="0" 
d="M-1043.5 -79.5q33.5 8.5 70.5 8.5q67 0 113.5 -29t45.5 -90q0 -69 -46 -115.5t-123 -68.5t-170 -22q-89 0 -177 20l37 99q79 -23 163 -23q82 0 134.5 24t52.5 69q0 29 -21.5 42.5t-55.5 13.5q-30 0 -62 -9.5t-53 -23.5l-107 27l67 171h126l-50 -116q22 14 55.5 22.5z" />
    <glyph glyph-name="uni0328" unicode="&#x328;" horiz-adv-x="0" 
d="M-1142.5 -87q-50.5 -52 -50.5 -100q0 -43 52 -62t125 -19q47 0 93.5 7t69.5 15l50 -128q-45 -14 -113.5 -21.5t-136.5 -7.5q-85 0 -161 18.5t-123.5 57t-47.5 95.5q0 49 30 95t75 81t92 56h158q-62 -35 -112.5 -87z" />
    <glyph glyph-name="uni0335" unicode="&#x335;" horiz-adv-x="0" 
d="M-800 773v-130h-763v130h763z" />
    <glyph glyph-name="uni0336" unicode="&#x336;" horiz-adv-x="0" 
d="M-637 773v-130h-1049v130h1049z" />
    <glyph glyph-name="uni0337" unicode="&#x337;" horiz-adv-x="0" 
d="M-1709 -86h-165l1158 1174h167z" />
    <glyph glyph-name="uni0338" unicode="&#x338;" horiz-adv-x="0" 
d="M-1666 -86h-145l1130 1560h145z" />
    <glyph glyph-name="dieresis" unicode="&#xa8;" horiz-adv-x="2163" 
d="M699 1274.5q-37 37.5 -37 90.5q0 54 36.5 91.5t89.5 37.5t90 -37.5t37 -91.5q0 -53 -37 -90.5t-90 -37.5q-52 0 -89 37.5zM1112 1274.5q-37 37.5 -37 90.5q0 54 37 91.5t90 37.5q55 0 92.5 -37.5t37.5 -91.5t-37.5 -91t-92.5 -37q-53 0 -90 37.5z" />
    <glyph glyph-name="dotaccent" unicode="&#x2d9;" horiz-adv-x="2163" 
d="M908 1258q-29 17 -46 46.5t-17 64.5t17 64.5t46 46.5t63 17q53 0 90.5 -37t37.5 -91t-37.5 -91t-90.5 -37q-34 0 -63 17z" />
    <glyph glyph-name="grave" unicode="`" horiz-adv-x="2163" 
d="M1043 1178l-284 282h225l220 -282h-161z" />
    <glyph glyph-name="acute" unicode="&#xb4;" horiz-adv-x="2163" 
d="M1037 1460h223l-286 -282h-160z" />
    <glyph glyph-name="hungarumlaut" unicode="&#x2dd;" horiz-adv-x="2163" 
d="M925 1460h180l-167 -282h-135zM1259 1460h188l-232 -282h-130z" />
    <glyph glyph-name="circumflex" unicode="&#x2c6;" horiz-adv-x="2163" 
d="M1132 1198l-137 166l-140 -166h-185l249 262h149l249 -262h-185z" />
    <glyph glyph-name="caron" unicode="&#x2c7;" horiz-adv-x="2163" 
d="M1067 1198h-149l-249 262h185l138 -166l138 166h185z" />
    <glyph glyph-name="breve" unicode="&#x2d8;" horiz-adv-x="2163" 
d="M1214 1332.5q-27 -61.5 -83.5 -101t-140.5 -39.5q-83 0 -138 39.5t-81 100.5t-26 128h136q0 -55 23.5 -108t87.5 -53q67 0 90 52t23 109h136q0 -66 -27 -127.5z" />
    <glyph glyph-name="ring" unicode="&#x2da;" horiz-adv-x="2163" 
d="M890.5 1124.5q-42.5 24.5 -68 67t-25.5 94.5q0 50 25.5 92t68.5 67t93 25q49 0 91.5 -25t67.5 -67.5t25 -91.5q0 -52 -25 -94.5t-67.5 -67t-91.5 -24.5q-51 0 -93.5 24.5zM1040 1227.5q23 22.5 23 59.5q0 33 -23 54.5t-56 21.5q-34 0 -57 -21.5t-23 -54.5q0 -37 23 -59.5
t57 -22.5q33 0 56 22.5z" />
    <glyph glyph-name="tilde" unicode="&#x2dc;" horiz-adv-x="2163" 
d="M1033 1234q-43 18 -94 53q-41 29 -71 42.5t-70 13.5q-59 0 -107.5 -29.5t-72.5 -66.5l-115 85q11 20 50.5 53t102.5 60t139 27q46 0 81.5 -10t60.5 -24t60 -38q40 -29 70.5 -43t71.5 -14q59 0 105.5 30t69.5 68l115 -88q-11 -21 -49 -53t-100 -58t-139 -26q-65 0 -108 18
z" />
    <glyph glyph-name="macron" unicode="&#xaf;" horiz-adv-x="2163" 
d="M1418 1425v-130h-834v130h834z" />
    <glyph glyph-name="cedilla" unicode="&#xb8;" horiz-adv-x="2163" 
d="M1018.5 -79.5q33.5 8.5 70.5 8.5q67 0 113.5 -29t45.5 -90q0 -69 -46 -115.5t-123 -68.5t-170 -22q-89 0 -177 20l37 99q79 -23 163 -23q82 0 134.5 24t52.5 69q0 29 -21.5 42.5t-55.5 13.5q-30 0 -62 -9.5t-53 -23.5l-107 27l67 171h126l-50 -116q22 14 55.5 22.5z" />
    <glyph glyph-name="ogonek" unicode="&#x2db;" horiz-adv-x="2163" 
d="M901.5 -87q-50.5 -52 -50.5 -100q0 -43 52 -62t125 -19q47 0 93.5 7t69.5 15l50 -128q-45 -14 -113.5 -21.5t-136.5 -7.5q-85 0 -161 18.5t-123.5 57t-47.5 95.5q0 49 30 95t75 81t92 56h158q-62 -35 -112.5 -87z" />
    </font>
</defs>
</svg>
