<?xml version="1.0" standalone="no"?>
<!DOCTYPE svg PUBLIC "-//W3C//DTD SVG 1.1//EN" "http://www.w3.org/Graphics/SVG/1.1/DTD/svg11.dtd" >
<svg xmlns="http://www.w3.org/2000/svg" xmlns:xlink="http://www.w3.org/1999/xlink" version="1.1">
<metadata>
Created by FontForge 20170924 at Sat Aug 17 12:01:19 2019
 By www-data
 
</metadata>
<defs>
<font id="YasminRegular" horiz-adv-x="469" >
  <font-face 
    font-family="Yasmin"
    font-weight="500"
    font-stretch="normal"
    units-per-em="1000"
    panose-1="0 0 0 0 0 0 0 0 0 0"
    ascent="800"
    descent="-200"
    x-height="564.369"
    cap-height="1366.68"
    bbox="-2114.02 -1564.75 3002.1 1573.82"
    underline-thickness="50"
    underline-position="-100"
    unicode-range="U+000D-00A0"
  />
<missing-glyph horiz-adv-x="650" 
 />
    <glyph glyph-name=".notdef" horiz-adv-x="650" 
 />
    <glyph glyph-name="controlCR" unicode="&#xd;" horiz-adv-x="241" 
 />
    <glyph glyph-name="space" unicode=" " horiz-adv-x="241" 
 />
    <glyph glyph-name="exclam" unicode="!" horiz-adv-x="448" 
d="M-25.8389 116.245c8.37402 -2.09473 12.8613 -11.166 9.57812 -19.1494c-26.042 -63.3184 -104.05 -87.6309 -137.042 -95.2529c-7.97656 -1.84277 -15.7959 3.51953 -17.0205 11.6143l-0.0126953 0.0820312c-1.09375 7.22363 3.49512 14.0986 10.6084 15.7715
c28.3066 6.65332 96.0703 27.5332 117.307 78.2354c2.76172 6.59277 9.64453 10.4346 16.5781 8.7002zM616.573 1000.83c21.2793 -15.6543 25.3574 -45.8223 9.00098 -66.5664l-573.129 -726.84c-4.97852 -6.31348 -14.1318 -7.39551 -20.4453 -2.41699
c-6.00488 4.73535 -7.32227 13.3105 -3.01465 19.6299l521.292 764.871c14.9043 21.8682 44.9785 27.0049 66.2959 11.3223z" />
    <glyph glyph-name="quotedbl" unicode="&#x22;" horiz-adv-x="399" 
d="M316.704 787.981c4.83301 10.8477 4.02246 16.1377 3.51074 17.0654h-0.00390625c-0.0380859 0 -0.27832 0.124023 -0.758789 0.254883c-18.1104 5.00879 -39.0371 -5.02832 -52.5615 -16.0967c-13.8848 -11.3701 -19.6729 -22.8574 -19.3496 -27.3779
c0.0341797 -0.522461 0.126953 -0.714844 0.126953 -0.714844c0.0341797 -0.0478516 -1.23438 -6.32031 26.6279 -2.33594c0.548828 0.0761719 1.41016 0.185547 2.39648 0.305664c2.4209 0.0810547 7.25879 -0.938477 7.81738 -10.0039v-3.2041l0.0273438 -0.330078
c16.0146 15.3828 26.8525 30.5176 32.167 42.4375zM326.954 832.425c14.3896 -3.97754 22.5146 -15.9941 21.7314 -32.1396c-2.22949 -46.0273 -75.248 -124.229 -186.163 -148.926c-7.86133 -1.75 -15.6309 3.38867 -17.0176 11.3223
c-1.28418 7.34668 3.39746 14.4756 10.6797 16.0869c46.0479 10.1855 83.1592 29.9639 110.38 51.2275c-12.9746 -0.405273 -26.7773 1.28516 -36.3613 9.02148c-6.41992 5.17969 -10.1299 12.373 -10.7344 20.8027c-1.13672 15.9248 9.92773 35.0518 29.5938 51.1553
c24.5713 20.123 53.6943 28.127 77.8916 21.4492zM140.317 745.543c16.0146 15.3828 26.8525 30.5176 32.167 42.4375c4.83301 10.8477 4.02246 16.1377 3.51074 17.0654h-0.00390625c-0.0380859 0 -0.27832 0.124023 -0.758789 0.254883
c-18.1104 5.00879 -39.0371 -5.02832 -52.5615 -16.0967c-13.8848 -11.3701 -19.6729 -22.8574 -19.3496 -27.3779c0.0341797 -0.522461 0.126953 -0.714844 0.126953 -0.714844c0.0341797 -0.0478516 -1.23438 -6.32031 26.6279 -2.33594
c0.548828 0.0761719 1.41016 0.185547 2.39648 0.305664c2.4209 0.0810547 7.25879 -0.938477 7.81738 -10.0039v-3.2041zM204.465 800.285c-2.22949 -46.0273 -75.2471 -124.23 -186.162 -148.928c-7.86133 -1.75 -15.6309 3.38867 -17.0176 11.3223
c-1.28418 7.34668 3.39746 14.4756 10.6797 16.0869c46.0479 10.1855 83.1592 29.9639 110.38 51.2275c-12.9746 -0.405273 -26.7773 1.28516 -36.3613 9.02148c-6.41992 5.18066 -10.1299 12.374 -10.7344 20.8037c-1.13672 15.9248 9.92773 35.0518 29.5938 51.1553
c24.5713 20.123 53.6943 28.127 77.8916 21.4492c14.3896 -3.97754 22.5137 -15.9932 21.7305 -32.1387z" />
    <glyph glyph-name="numbersign" unicode="#" horiz-adv-x="833" 
d="M433.155 354.275l63.5996 89.1143h-145.462l-62.4902 -89.1143h144.353zM769.173 471.53c7.77051 0 14.0703 -6.29883 14.0703 -14.0703c0 -7.77051 -6.2998 -14.0703 -14.0703 -14.0703h-237.844l-63.5996 -89.1143h202.951
c7.77051 0 14.0703 -6.29883 14.0703 -14.0703c0 -7.77051 -6.2998 -14.0703 -14.0703 -14.0703h-223.034l-146.613 -205.433c-4.51465 -6.32617 -13.3027 -7.79395 -19.6289 -3.27832c-6.32422 4.51465 -7.79199 13.3018 -3.27734 19.6279l134.945 189.083h-144.002
l-143.942 -205.27c-4.46191 -6.36328 -13.2373 -7.9043 -19.5996 -3.44238h-0.000976562c-6.36328 4.46191 -7.9043 13.2373 -3.44238 19.6006l132.611 189.11h-220.626c-7.77051 0 -14.0703 6.2998 -14.0703 14.0703c0 7.77148 6.2998 14.0703 14.0703 14.0703h240.359
l62.4893 89.1143h-216.084c-7.77051 0 -14.0703 6.2998 -14.0703 14.0703c0 7.77148 6.2998 14.0703 14.0703 14.0703h235.817l145.585 207.612c4.46191 6.36328 13.2373 7.9043 19.5996 3.44238h0.000976562c6.36328 -4.46191 7.9043 -13.2373 3.44238 -19.6006
l-134.254 -191.453h145.812l148.285 207.775c4.51465 6.32617 13.3027 7.79395 19.6289 3.27832c6.32422 -4.51465 7.79199 -13.3018 3.27734 -19.6279l-136.617 -191.426h217.76z" />
    <glyph glyph-name="dollar" unicode="$" horiz-adv-x="1115" 
d="M986.27 986.829l283.504 364.802c-2.01953 0.46582 -3.95703 0.981445 -6.08887 1.37793c-62.2441 11.5762 -106.873 3.45508 -144.708 -26.334c-62.2188 -48.9883 -106.094 -161.019 -132.707 -339.846zM933.868 730.9c2.99805 56.625 6.95312 109.162 11.8594 157.898
l-582.674 -749.762c91.9512 9.92578 188.544 37.5205 275.359 86.8984c126.396 71.8906 280.255 217.856 295.455 504.965zM1457.97 1570.86c6.13477 -4.76758 7.23828 -13.6016 2.46973 -19.7373l-145.454 -187.165c33.5332 -19.6904 52.4297 -53.0107 53.0957 -96.2139
c1.05078 -68.04 -44.3945 -140.66 -98.8457 -162.949c-8.08691 -3.31055 -17.2148 1.48926 -19.0771 10.0264c-1.43359 6.57422 1.93652 13.3877 8.19238 15.8652c44.1152 17.4707 82.4697 79.8916 81.5938 136.624c-0.395508 25.5986 -8.95215 56.4688 -42.3594 74.2549
l-318.777 -410.189c-7.30664 -60.6025 -12.917 -127.849 -16.8408 -201.951c-15.8701 -299.818 -177.146 -452.578 -309.642 -527.938c-98.3105 -55.9141 -208.953 -84.8018 -312.518 -92.3525l-79.1758 -101.881c-4.76855 -6.13672 -13.6094 -7.24512 -19.7461 -2.47461
c-6.13477 4.76758 -7.24219 13.6074 -2.47363 19.7422l64.3262 82.7715c-6.0957 -0.148438 -12.1826 -0.273438 -18.2061 -0.273438c-93.8477 0 -178.407 17.8555 -237.794 49.0469c-119.329 62.6777 -182.449 222.583 -153.494 388.85
c27.8281 159.788 129.886 267.129 273 287.121c93.4248 13.0469 170.183 -5.57129 228.171 -55.3467c90.54 -77.7197 107.547 -207.018 110.733 -250.807c0.585938 -8.05371 -5.73047 -14.8848 -13.8047 -14.9961l-0.176758 -0.00195312
c-7.40527 -0.101562 -13.5898 5.53027 -14.1699 12.9131c-3.13965 39.9297 -19.3047 161.588 -101.024 231.635c-51.582 44.2236 -120.834 60.5957 -205.833 48.7373c-130.397 -18.2197 -223.548 -116.945 -249.171 -264.086
c-22.6924 -130.287 17.7188 -295.476 138.858 -359.107c64.4121 -33.8291 160.319 -50.9434 265.168 -45.0469l626.707 806.422c26.707 216.781 75.4385 347.837 149.868 406.437c58.0156 45.6807 123.242 40.0879 167.264 31.8848
c6.88867 -1.28125 13.4033 -2.9834 19.6406 -4.97754l149.749 192.69c4.76855 6.13672 13.6094 7.24414 19.7461 2.47461v-0.000976562z" />
    <glyph glyph-name="percent" unicode="%" horiz-adv-x="805" 
d="M617.152 330.021c34.1074 30.4082 43.1855 47.2754 44.2539 52.8125c-3.23926 1.14746 -14.6709 3.36621 -46.5352 -3.97168c-59.6885 -13.7266 -105.829 -32.4824 -141.396 -52.585l2.2373 -6.42285c2.54883 -7.31641 -1.23145 -15.3154 -8.51953 -17.9463
c-12.3574 -4.46094 -32.5527 -11.877 -56.79 -21.25c-28.1865 -26.3545 -41.9824 -50.332 -48.1143 -63.6338c-2.87305 -6.2334 -9.73242 -9.51465 -16.3789 -7.80176c-8.4834 2.18555 -12.9951 11.4365 -9.41602 19.4316c3.39648 7.58984 8.58496 17.5332 16.3047 28.9395
c-11.875 -4.93945 -23.9873 -10.0986 -36.041 -15.4023c-148.672 -65.3984 -148.384 -91.0654 -148.339 -91.3057c0.0175781 -0.0615234 2.94043 -6.58105 29.4902 -11.8438c100.776 -19.9717 319.113 101.7 419.244 190.979zM608.563 406.289
c42.5781 9.79688 66.1797 7.53711 76.5439 -7.33008c7.61914 -10.917 5.72949 -25.2549 -5.61328 -42.6162c-47.4668 -72.6465 -306.74 -247.659 -456.776 -247.666c-10.6934 0 -20.8203 0.886719 -30.2871 2.7627c-12.4072 2.45996 -50.166 9.94824 -52.0898 37.5117
c-1.47363 21.0986 16.2451 53.8076 167.569 120.092c29.8721 13.0879 59.9502 25.2617 86.0059 35.4092c40.9883 37.2227 107.533 77.2002 214.647 101.837zM618.02 1005.62c6.68457 24.9326 27.6025 54.7969 57.6602 83.4805
c-118.093 -46.5322 -223.892 -94.6787 -246.574 -117.138c3.20508 -0.652344 7.99023 -1.31152 15.001 -1.64844c37.9062 -1.88281 100.089 11.0674 173.913 35.3057zM772.276 1125.77c-56.2402 -31.7891 -101.392 -74.7686 -119.649 -108.261
c28.5049 10.2021 58.3428 21.8887 88.8711 34.8662c125.196 53.2236 191.996 98.3271 202.497 115.435c-3.50391 1.07129 -10.8516 2.5 -25.4375 2.14941c-44.3438 -0.831055 -89.3438 -14.915 -129.741 -35.3398l0.907227 -2.52148
c-5.79883 -2.08887 -11.6074 -4.19141 -17.4473 -6.32812zM1224.95 1147.19c1.38477 -8.95215 1.79688 -11.6553 -55.4287 -55.2539c-28.1299 -21.4355 -57.3486 -39.8477 -86.9316 -55.6494c-72.5049 -56.501 -172.209 -138.298 -292.954 -246.161
c-305.148 -272.593 -826.51 -716.134 -907.659 -785.086c-5.92578 -5.03613 -14.7852 -4.28711 -19.8154 1.64355v0c-5.02441 5.92188 -4.32617 14.7744 1.59277 19.8037c81.0703 68.8828 602.218 512.243 907.134 784.621c82.2197 73.4502 153.633 133.826 211.707 181.272
c-125.942 -44.6357 -244.897 -50.3721 -303.243 -50.1865c-42.7295 0.253906 -57.0811 18.584 -61.6426 33.6777c-69.1729 -21.9297 -133.087 -35.6699 -174.981 -33.6641c-12.5791 0.618164 -42.042 2.05371 -45.2129 23.2764
c-2.1748 14.5508 -5.46191 36.542 192.951 119.37c68.4482 28.5732 137.962 54.6807 170.585 66.7246c48.0234 26.7939 103.01 45.502 156.973 46.5254c29.4014 0.501953 45.5742 -4.52734 52.4102 -16.4746c2.66602 -4.6582 5.93652 -14.4346 -2.12207 -27.5771
c-26.4023 -43.0762 -181.43 -120.971 -323.901 -169.406c1.63867 -5.99121 8.24414 -14.1465 35.1172 -14.3115c71.2002 -0.418945 234.805 8.67773 387.654 89.6162c4.12207 3.20801 8.09668 6.2998 11.9375 9.26758c122.088 94.3838 129.755 91.6562 136.512 89.2588
l7.87988 -2.82324z" />
    <glyph glyph-name="ampersand" unicode="&#x26;" horiz-adv-x="1339" 
d="M1287.64 670.111c-24.2998 3.58594 -104.62 3.49707 -369.84 -38.5967c25.8184 1.76562 51.1074 2.69336 75.7236 2.69336c46.0166 0 89.5947 -3.23633 129.683 -10.292c21.5107 -3.78516 40.5898 -7.72852 57.3467 -11.8848
c24.9736 13.5205 53.5742 28.6416 86.125 45.6729c10.1748 5.31738 16.7432 9.41211 20.9619 12.4072zM1247.16 551.538c0.0136719 0.165039 -2.13184 13.9043 -63.0713 30.4414c-56.3701 -30.7852 -109.607 -62.1201 -122.702 -78.375
c3.03711 -0.625 7.82617 -1.24316 15.1709 -1.42188c68.1602 -1.73145 168.72 30.4971 170.603 49.3555zM1335.72 956.58c27.3984 -7.90723 110.778 -31.958 98.8926 -83.7939c-14.833 -64.7109 -190.773 -122.235 -335.764 -159.095
c-165.284 -42.0186 -335.948 -67.8232 -388.506 -58.8711c-11.9131 2.04688 -48.1602 8.25781 -51.0254 33.918c-3.83691 34.3662 65.5664 71.0371 115.65 92.8438c7.25684 3.15918 15.6904 -0.198242 18.7168 -7.51172v0
c2.92188 -7.06055 -0.321289 -15.1689 -7.31055 -18.2578c-51.8721 -22.9258 -97.1514 -51.7832 -99.0332 -63.6738c1.04395 -1.18164 6.45117 -5.92871 27.7559 -9.57715c47.6318 -8.22363 220.192 18.584 376.82 58.4043c222.287 56.5078 308.763 109.718 315.269 138.105
c3.77148 16.4541 -25.125 34.8525 -79.2764 50.4688c-151.18 43.6191 -365.538 -29.3223 -479.859 -76.6855c-180.529 -74.7832 -315.522 -167.202 -355.569 -219.855c-11.418 -15.0049 -13.1426 -24.1084 -11.1572 -27.3447
c1.25684 -2.04688 15.3066 -19.4902 118.643 -0.514648c702.827 129.092 714.98 93.8477 721.507 74.9131c6.52637 -18.9414 -16.2139 -33.9258 -41.7646 -47.2881c-18.1855 -9.51562 -39.1738 -20.4873 -60.8154 -32.0225
c40.5068 -14.4141 58.3213 -31.2734 56.2598 -51.9941c-5.1875 -52.0693 -150.239 -75.9707 -199.293 -74.6924c-10.9238 0.260742 -39.9434 0.96875 -44.6631 21.2568c-5.125 22.0127 23.7305 46.6562 112.027 96.1904c-7.71484 1.56641 -16 3.13281 -24.9043 4.69922
c-279.997 49.2666 -769.173 -101.728 -996.605 -231.686c-114.129 -65.2197 -177.782 -151.84 -166.116 -226.073c8.30566 -52.8799 54.6113 -90.7832 130.377 -106.736c150.108 -31.7061 916.451 153.468 1012.43 266.943c5.99805 7.09668 8.22363 12.7852 6.60254 16.9004
c-1.47754 3.76465 -8.4375 13.4102 -40.7969 23.1387c-21.0781 7.77051 -68.1123 13.6787 -68.1123 13.6787c-4.00488 0.542969 -8.1543 1.0791 -12.4551 1.60156c-65.9336 7.96973 -124.049 11.3496 -174.586 11.3496c-162.269 0 -246.725 -34.7705 -263.543 -63.8252
c-3.99805 -6.89746 -2.32812 -10.7793 -0.170898 -13.6719c11.4531 -15.3066 63.3369 -29.6719 159.39 -6.45703c3.73633 0.902344 7.44434 1.80762 11.1426 2.71289c7.83301 1.91797 15.6621 -3.14258 17.1543 -11.0674v0
c1.38477 -7.35254 -3.22559 -14.4941 -10.4932 -16.2754c-3.71582 -0.910156 -7.43945 -1.82031 -11.1943 -2.72754c-91.8896 -22.2119 -164.123 -15.6992 -188.54 16.9756c-9.83789 13.1631 -10.4355 29.4248 -1.6416 44.6152
c33.0254 57.0508 189.894 99.667 465.865 66.3047c31.2598 -3.77832 57.1953 -8.47754 78.1289 -14.2275c0 0 35.1826 -10.083 46.209 -19.2227c9.98242 -6.6709 16.5303 -14.1865 19.8418 -22.6094c3.90918 -9.96875 5.125 -25.9287 -11.3154 -45.3711
c-93.4766 -110.521 -757.864 -280.32 -989.646 -280.32c-20.1914 0 -37.0986 1.29199 -50.0625 4.01953c-86.7373 18.2607 -142.276 65.6104 -152.376 129.909c-13.5205 86.0498 55.4297 183.711 179.953 254.866c113.318 64.752 293.25 136.725 482.031 185.86
c-75.8135 -12.4287 -118.086 -7.24902 -132.431 16.1172c-9.56348 15.5479 -5.27637 35.4375 12.7305 59.1123c94.4932 124.228 599.21 383.353 865.632 306.543z" />
    <glyph glyph-name="quotesingle" unicode="'" horiz-adv-x="255" 
d="M172.483 787.981c4.83301 10.8477 4.02246 16.1377 3.51074 17.0654h-0.00390625c-0.0380859 0 -0.27832 0.124023 -0.758789 0.254883c-18.1104 5.00879 -39.0371 -5.02832 -52.5615 -16.0967c-13.8848 -11.3701 -19.6729 -22.8574 -19.3496 -27.3779
c0.0341797 -0.522461 0.126953 -0.714844 0.126953 -0.714844c0.0341797 -0.0478516 -1.23438 -6.32031 26.6279 -2.33594c0.548828 0.0761719 1.41016 0.185547 2.39648 0.305664c2.4209 0.0810547 7.25879 -0.938477 7.81738 -10.0039v-3.2041l0.0273438 -0.330078
c16.0146 15.3828 26.8525 30.5176 32.167 42.4375zM182.733 832.425c14.3896 -3.97754 22.5146 -15.9941 21.7314 -32.1396c-2.22949 -46.0273 -75.248 -124.229 -186.163 -148.926c-7.86133 -1.75 -15.6309 3.38867 -17.0176 11.3223
c-1.28418 7.34668 3.39746 14.4756 10.6797 16.0869c46.0479 10.1855 83.1592 29.9639 110.38 51.2275c-12.9746 -0.405273 -26.7773 1.28516 -36.3613 9.02148c-6.41992 5.17969 -10.1299 12.373 -10.7344 20.8027c-1.13672 15.9248 9.92773 35.0518 29.5938 51.1553
c24.5713 20.123 53.6943 28.127 77.8916 21.4492z" />
    <glyph glyph-name="parenleft" unicode="(" horiz-adv-x="434" 
d="M11.875 10.3018c-1.85938 -6.58105 -9.02734 -10.3027 -15.376 -7.76074c-30.0322 12.0244 -49.75 34.8633 -57.3398 66.6826c-39.1602 164.048 248.662 563.416 542.057 833.492c292.549 269.293 420.728 288.866 462.115 284.953
c7.81348 -0.738281 12.5215 -9.04688 9.39062 -16.2432v0l-1.81152 -4.60059c-1.81738 -4.61621 -6.34473 -7.64355 -11.2988 -7.37695c-30.3994 1.63379 -152.173 -13.0938 -439.337 -277.438c-317.165 -291.958 -566.576 -668.709 -533.743 -806.252
c5.4209 -22.7119 18.418 -38.0977 39.6016 -46.7725c5.57617 -2.2832 8.69531 -8.23633 7.05664 -14.0342z" />
    <glyph glyph-name="parenright" unicode=")" horiz-adv-x="422" 
d="M-326.544 0c-5.87891 0 -10.9355 0.494141 -15.249 1.26953c-10.8271 1.94727 -15.3525 14.9561 -8.05273 23.1855v0c3.18652 3.5918 7.98633 5.31152 12.6992 4.39062c25.6094 -5.00586 128.912 -0.393555 406.835 260.853
c307.581 289.128 618.79 704.339 573.577 837.876c-7.02148 20.7373 -23.2627 33.5068 -49.4785 38.7949c-7.20117 1.45215 -12.2607 7.93359 -11.5146 15.2422v0c0.848633 8.30957 8.73828 14.0088 16.9238 12.3457c45.0664 -9.15723 63.3672 -35.6299 70.7266 -57.3555
c30.8203 -91.0244 -70.6943 -262.32 -161.285 -389.99c-110.625 -155.906 -267.507 -334.382 -419.669 -477.414c-244.409 -229.741 -362.941 -269.197 -415.513 -269.197z" />
    <glyph glyph-name="asterisk" unicode="*" horiz-adv-x="592" 
d="M538.175 807.482c3.49902 -6.9375 0.713867 -15.3975 -6.22363 -18.8975l-227.386 -114.709l129.365 -116.246c5.78027 -5.19434 6.25488 -14.0908 1.05957 -19.8701c-5.19336 -5.77832 -14.0879 -6.25195 -19.8672 -1.05957l-131.403 118.077l-64.7715 -151.808
c-3.0498 -7.14746 -11.3164 -10.4688 -18.4639 -7.41797l-0.000976562 0.000976562c-7.14551 3.0498 -10.4658 11.3145 -7.41699 18.46l56.3359 132.036l-227 -114.516c-6.9375 -3.5 -15.3994 -0.711914 -18.8994 6.22656l-0.00390625 0.0078125
c-3.49902 6.9375 -0.711914 15.3984 6.22559 18.8975l245.408 123.802l-119.248 107.153c-5.78027 5.19434 -6.25488 14.0918 -1.05957 19.8711c5.19336 5.77832 14.0879 6.25293 19.8672 1.05957l118.58 -106.555l58.835 137.894
c3.0498 7.14746 11.3164 10.4697 18.4639 7.41895l0.000976562 -0.000976562c7.14551 -3.05078 10.4658 -11.3154 7.41699 -18.4609l-52.4629 -122.958l213.745 107.828c6.9375 3.5 15.3994 0.711914 18.8994 -6.22559z" />
    <glyph glyph-name="plus" unicode="+" horiz-adv-x="702" 
d="M637.855 441.468c7.77051 0 14.0703 -6.29883 14.0703 -14.0703c0 -7.77051 -6.2998 -14.0703 -14.0703 -14.0703h-304.271l-222.512 -314.394c-4.48926 -6.34277 -13.2695 -7.8457 -19.6123 -3.35742l-0.00292969 0.00195312
c-6.34277 4.48828 -7.84766 13.2715 -3.3584 19.6152l211.006 298.135h-285.035c-7.77051 0 -14.0703 6.2998 -14.0703 14.0703c0 7.77148 6.2998 14.0703 14.0703 14.0703h304.952l224.175 316.743c4.48926 6.34277 13.2695 7.8457 19.6123 3.35742l0.00292969 -0.00195312
c6.34277 -4.48828 7.84766 -13.2705 3.3584 -19.6143l-212.669 -300.485h284.354z" />
    <glyph glyph-name="comma" unicode="," horiz-adv-x="255" 
d="M172.483 302.268c4.83301 10.8477 4.02246 16.1377 3.51074 17.0654h-0.00390625c-0.0380859 0 -0.27832 0.124023 -0.758789 0.254883c-18.1104 5.00879 -39.0371 -5.02832 -52.5615 -16.0967c-13.8848 -11.3701 -19.6729 -22.8574 -19.3496 -27.3779
c0.0341797 -0.522461 0.126953 -0.714844 0.126953 -0.714844c0.0341797 -0.0478516 -1.23438 -6.32031 26.6279 -2.33594c0.548828 0.0761719 1.41016 0.185547 2.39648 0.305664c2.4209 0.0810547 7.25879 -0.938477 7.81738 -10.0039v-3.2041l0.0273438 -0.330078
c16.0146 15.3828 26.8525 30.5176 32.167 42.4375zM182.733 346.711c14.3896 -3.97754 22.5146 -15.9951 21.7314 -32.1406c-2.22949 -46.0273 -75.248 -124.229 -186.163 -148.926c-7.86133 -1.75 -15.6309 3.38867 -17.0176 11.3223
c-1.28418 7.34668 3.39746 14.4756 10.6797 16.0869c46.0479 10.1855 83.1592 29.9639 110.38 51.2275c-12.9746 -0.405273 -26.7773 1.28516 -36.3613 9.02148c-6.41992 5.18066 -10.1299 12.374 -10.7344 20.8037c-1.13672 15.9248 9.92773 35.0518 29.5938 51.1553
c24.5713 20.123 53.6943 28.127 77.8916 21.4492z" />
    <glyph glyph-name="hyphen" unicode="-" horiz-adv-x="725" 
d="M652.311 419.786h-629.247c-12.7373 0 -23.0635 10.3262 -23.0635 23.0635v0c0 12.7373 10.3262 23.0635 23.0635 23.0635h629.247c12.7373 0 23.0635 -10.3262 23.0635 -23.0635v0c0 -12.7373 -10.3262 -23.0635 -23.0635 -23.0635z" />
    <glyph glyph-name="period" unicode="." horiz-adv-x="215" 
d="M82.3711 319.352c-29.9023 0 -54.2295 -21.4971 -54.2295 -47.9268s24.3271 -47.9268 54.2295 -47.9268c29.8994 0 54.2266 21.4971 54.2266 47.9268s-24.3271 47.9268 -54.2266 47.9268zM82.3711 195.357c-45.4189 0 -82.3711 34.125 -82.3711 76.0684
s36.9521 76.0684 82.3711 76.0684s82.3672 -34.125 82.3672 -76.0684s-36.9482 -76.0684 -82.3672 -76.0684z" />
    <glyph glyph-name="slash" unicode="/" horiz-adv-x="455" 
d="M-280.576 6.39551l-0.00292969 0.00488281c-5.13477 5.83105 -4.57031 14.7207 1.26074 19.8555l1245.21 1096.47c5.83203 5.13477 14.7227 4.56934 19.8574 -1.26367v0c5.13281 -5.83105 4.56738 -14.7197 -1.2627 -19.8535l-1245.2 -1096.48
c-5.83105 -5.13477 -14.7207 -4.57031 -19.8555 1.26074z" />
    <glyph glyph-name="zero" unicode="0" horiz-adv-x="749" 
d="M176.95 129.85c-33.2451 0 -61.9697 5.99707 -84.8408 18.1436c-47.5557 25.2617 -92.1094 88.4404 -34.3447 245.989c115.256 314.321 374.855 477.181 522.972 477.181c2.24707 0 4.46582 -0.0341797 6.66406 -0.109375
c49.3701 -1.69043 82.2988 -22.3633 92.7275 -58.2188c23.373 -73.3057 20.5078 -134.417 -8.60156 -181.286c-30.0146 -48.3281 -79.5342 -67.6172 -104.592 -74.5859c-8.16895 -2.27148 -16.46 3.07324 -17.7432 11.4541v0c-1.07227 7.00586 3.1748 13.75 9.99707 15.668
c20.7812 5.84277 63.6904 22.2715 88.5811 62.5449c24.4307 39.5312 26.2578 92.6934 5.44824 158.002c-8.7666 30.126 -41.1465 37.4219 -66.7793 38.2939c-138.483 4.6377 -389.825 -152.018 -502.25 -458.63c-28.0371 -76.4521 -47.123 -175.198 21.1191 -211.445
c111.896 -59.4346 413.349 73.9238 528.797 233.904c165.45 229.271 180.107 361.668 49.708 467.028c-5.86426 4.73828 -6.88477 13.3037 -2.34863 19.3271v0c4.82617 6.40918 14.0117 7.43457 20.2422 2.37988c72.5635 -58.874 103.927 -127.58 95.8145 -209.618
c-7.87988 -79.6602 -52.5576 -173.583 -140.593 -295.578c-55.457 -76.8438 -160.751 -156.49 -274.797 -207.859c-77.2148 -34.7842 -147.903 -52.5781 -205.181 -52.585z" />
    <glyph glyph-name="one" unicode="1" horiz-adv-x="486" 
d="M13.0693 178.447l0.00195312 0.00195312c-8.4082 1.86719 -13.0693 10.7432 -10.043 18.8066c30.0586 80.0801 162.186 234.242 290.237 383.644c95.6953 111.655 194.651 227.11 207.221 265.776c0.0927734 0.288086 0.181641 0.5625 0.263672 0.836914
c-29.0215 -14.7617 -102.729 -80.1475 -166.332 -143.531c-5.48242 -5.46387 -14.333 -5.51172 -19.834 -0.0654297v0c-5.55078 5.49609 -5.57715 14.4482 -0.0253906 19.9434c15.6143 15.4561 47.3994 46.4854 80.498 76.249
c93.1777 83.7969 112.676 83.5635 125.795 75.5801c15.5684 -9.48828 8.66406 -30.7314 6.39355 -37.7119c-14.3037 -44.0107 -106.204 -151.234 -212.614 -275.387c-121.499 -141.759 -258.338 -301.417 -285.36 -375.253
c-2.42383 -6.62402 -9.31543 -10.4189 -16.2012 -8.88965z" />
    <glyph glyph-name="two" unicode="2" horiz-adv-x="839" 
d="M670.693 159.861l0.000976562 -0.00488281c-4.7207 5.57715 -4.30273 13.835 0.834961 19.0312c11.542 11.6729 14.2764 19.498 12.6602 22.9766c-13.2461 28.5186 -176.205 33.8701 -397.688 -3.58008c-153.961 -26.0488 -230.017 -24.168 -266.834 -17.8848
c-8.27344 1.41211 -15.4277 7.30566 -17.2656 15.4951c-2.40137 10.6982 3.81836 20.9189 13.9326 23.9355c483.463 144.158 764.958 295.579 792.628 426.375c8.75586 41.3936 -8.65039 80.0117 -53.2139 118.066c-178.273 152.227 -495.092 -73.4932 -557.446 -120.813
c-6.07227 -4.6084 -14.6934 -3.58984 -19.5039 2.32422v0c-5.02148 6.17285 -3.95801 15.25 2.34863 20.1025c66.5195 51.1807 395.963 287.945 592.876 119.782c52.3857 -44.7256 73.4023 -93.6074 62.4717 -145.278c-36.8965 -174.401 -431.603 -331.215 -772.67 -435.608
c40.7754 -1.05078 108.447 2.72754 217.983 21.25c40.0674 6.78125 392.46 64.0107 427.903 -12.3037c7.55957 -16.2783 1.45215 -34.5889 -18.1553 -54.5615c-5.81836 -5.92676 -15.4961 -5.64355 -20.8623 0.696289z" />
    <glyph glyph-name="three" unicode="3" horiz-adv-x="930" 
d="M259.696 142.717c-71.5078 0 -153.135 4.60742 -246.363 15.2295c-7.74316 0.881836 -13.3291 7.92773 -12.4082 15.666v0c0.916016 7.69727 7.9375 13.1699 15.6387 12.292c477.11 -54.4189 639.056 49.0527 693.21 116.047
c33.6709 41.6543 36.666 82.8066 28.2461 107.423c-19.8408 57.999 -259.85 79.9697 -406.471 80.2031l-1.71777 28.0303c4.75098 0.59082 476.26 60.5752 564.546 179.809c10.5215 14.208 14.4268 28.0791 11.9365 42.4033
c-8.01758 46.0859 -69.7637 67.9404 -120.15 78.1631c-181.633 36.8662 -465.186 -19.8955 -506.084 -83.3701c-11.7236 -18.1992 -14.3516 -33.5195 -8.02734 -46.8545c16.3096 -34.3945 86.8877 -52.4385 125.291 -58.6738
c7.39258 -1.2002 12.4951 -8.0127 11.6572 -15.4551v0c-0.895508 -7.95703 -8.23828 -13.6006 -16.1455 -12.3418c-35.9141 5.7168 -122.507 24.4375 -146.217 74.3848c-10.7002 22.541 -7.40918 47.501 9.78711 74.1777c55.1025 85.5137 366.129 130.026 535.333 95.709
c84.5801 -17.1553 133.778 -52.0566 142.276 -100.918c3.83008 -22.0059 -1.90625 -43.5303 -17.0449 -63.9766c-63.5947 -85.8848 -292.849 -141.019 -444.589 -168.98c19.127 -1.44922 39.1055 -3.25586 59.1768 -5.49512
c142.066 -15.8633 218.302 -44.5537 233.066 -87.7061c10.8516 -31.7266 7.88672 -83.6523 -32.9883 -134.225c-46.7969 -57.8955 -167.253 -141.534 -471.959 -141.541z" />
    <glyph glyph-name="four" unicode="4" horiz-adv-x="741" 
d="M720.078 893.427c5.24219 -3.50391 13.5898 -12.0107 10.5674 -29.6328c-6.11621 -35.6787 -153.137 -254.604 -288.586 -450.55c85.1182 16.5518 162.156 38.1172 206.497 62.3076c6.51465 3.55371 14.625 1.62598 18.6523 -4.60645v0
c4.47656 -6.92871 2.04395 -16.1475 -5.22656 -20.0439c-53.6143 -28.7334 -150.327 -53.1367 -242.32 -70.0039c-85.0293 -122.594 -161.959 -231.271 -191.562 -272.971c-4.50098 -6.34082 -13.2803 -7.8125 -19.6172 -3.30566
c-6.33008 4.50195 -7.8418 13.2393 -3.34375 19.5723c54.2363 76.3633 115.295 163.183 175.591 249.959c-17.8613 -2.91797 -35.2764 -5.52734 -51.8438 -7.78516c-36.1689 -4.93262 -122.185 -15.4443 -196.871 -15.4443
c-51.4922 -0.00683594 -97.5879 4.98828 -118.305 20.2539c-9.02441 6.65039 -13.71 16.2207 -13.542 27.6807c1.0752 73.5361 244.855 250.051 318.903 301.984c6.375 4.4707 15.1387 2.88281 19.5713 -3.51855l0.0458984 -0.0664062
c4.38672 -6.33496 2.86621 -15.0225 -3.44141 -19.4473c-122.988 -86.2744 -306.245 -231.705 -306.941 -279.365c-0.0380859 -2.57617 0.645508 -3.54492 2.09863 -4.60938c33.7178 -24.8516 210.636 -15.6143 372.472 12.2402
c153.017 220.896 295.003 433.128 300.033 462.475c0.126953 0.742188 0.192383 1.34668 0.219727 1.81348c-15.4961 3.02832 -76.5918 -24.3125 -137.71 -61.5742c-6.54492 -3.99121 -15.0889 -1.96582 -19.1797 4.51758l-0.0166016 0.0263672
c-4.17773 6.62109 -2.19238 15.3721 4.47754 19.4717c55.5332 34.1299 140.5 79.9082 169.377 60.6221z" />
    <glyph glyph-name="five" unicode="5" horiz-adv-x="847" 
d="M883.238 824.055c7.86816 -0.75293 13.5225 -7.83398 12.5791 -15.6816l-0.00683594 -0.0566406c-0.907227 -7.55371 -7.61426 -13.0293 -15.1914 -12.3418c-60.6816 5.50195 -312.548 22.2559 -504.968 -55.6875c-39.9346 -48.0127 -76.8535 -95.3008 -94.124 -121.959
c1.28809 0.466797 2.61035 0.954102 3.9668 1.44922c89.3955 32.6885 326.866 119.521 422.483 -14.9092c37.3535 -52.5234 23.2969 -135.296 -38.5625 -227.104c-92.1641 -136.773 -268.307 -264.801 -417.274 -264.814c-18.3887 0 -36.3369 1.94434 -53.6875 6.06641
c-76.8125 18.2539 -131.181 54.6934 -161.599 108.302c-36.8535 64.9619 -27.7188 136.188 -21.2139 166.624c1.74219 8.14941 10.0684 13.042 18.0166 10.5352l0.0585938 -0.0185547c6.87598 -2.16797 11.04 -9.16211 9.56055 -16.2188
c-5.53027 -26.3848 -13.9971 -90.7383 18.1807 -147.252c26.4297 -46.4219 74.71 -78.2451 143.502 -94.5898c141.579 -33.6436 342.41 100.595 441.118 247.089c54.9414 81.5361 69.1455 152.637 38.9678 195.067c-83.1846 116.966 -306.004 35.4707 -389.887 4.78809
c-14.0498 -5.13867 -23.335 -8.53223 -29.0684 -9.96777c-12.71 -3.17383 -18.6973 4.65137 -20.2256 7.13867c-4.85938 7.87695 -12.3926 20.3389 80.5947 134.642c-2.06055 1.2666 -3.84277 3.04004 -5.05371 5.34473c-3.65625 6.9541 -0.964844 15.6572 6.08496 19.125
c10.0615 4.9502 20.3633 9.52734 30.7754 13.9102c6.5166 7.74023 13.2852 15.7334 20.5391 24.2148c5.06836 5.92578 13.9971 6.63379 19.9072 1.54785c2.69043 -2.31543 4.23242 -5.43262 4.69336 -8.68945c193.08 65.04 420.48 49.126 479.833 43.4463z" />
    <glyph glyph-name="six" unicode="6" horiz-adv-x="740" 
d="M53.9111 383.352c-23.1494 -63.7217 -28.0244 -123.554 -10.0693 -168.107c18.9961 -47.1436 63.0449 -72.4189 127.389 -73.0918c0.982422 -0.0136719 1.97168 -0.0136719 2.95801 -0.0136719c140.661 0 305.503 103.679 347.144 218.899
c23.208 64.2158 4.43848 123.417 -54.2744 171.206c-39.9678 32.5303 -85.3457 45.8447 -134.908 39.6475c-117.065 -14.7227 -230.477 -132.671 -278.238 -188.54zM174.257 113.997c-1.11328 0 -2.21094 -0.000976562 -3.32422 0.0126953
c-96.8125 1.00977 -136.746 49.8916 -153.197 90.7148c-17.7393 44.0244 -16.7842 99.4746 -0.0410156 158.799v0c-5.56348 4.12012 -6.66016 11.9785 -2.37012 17.4111c3.45996 4.38086 8.00879 10.0205 13.5479 16.6309c28.0303 75.0303 79.4746 153.805 148.761 221.875
c161.567 158.737 458.895 277.022 568.118 226.052c29.8379 -13.9326 44.1689 -39.3936 41.4453 -73.6348c-11 -138.271 -156.12 -174.818 -203.614 -183.1c-8.03711 -1.40137 -15.5146 4.39258 -16.2578 12.5176v0c-0.670898 7.33984 4.44727 13.9004 11.7227 15.0781
c42.0098 6.80176 170.523 37.376 180.099 157.731c1.7832 22.4316 -6.25488 37.0176 -25.2988 45.9072c-88.4268 41.3311 -375.239 -62.1973 -536.487 -220.625c-41.7646 -41.0293 -76.9297 -86.6064 -103.885 -132.692c60.0566 57.5938 145.296 121.838 235.162 133.14
c57.4355 7.20703 110.014 -8.16211 156.186 -45.749c67.8613 -55.2373 90.2275 -127.183 62.9736 -202.591c-45.9619 -127.183 -219.89 -237.471 -373.539 -237.478z" />
    <glyph glyph-name="seven" unicode="7" horiz-adv-x="693" 
d="M10.6143 144.858l0.00195312 0.000976562c-7.2168 3.07129 -10.6143 11.4941 -7.41016 18.6533c104.17 232.718 315.037 396.987 475.088 494.4c131.521 80.0518 250.963 129.133 303.647 149.057c-110.467 45.2422 -435.616 7.67969 -577.249 -14.7295
c-7.63574 -1.20801 -14.7529 3.97559 -16.0127 11.6035v0c-1.27344 7.71191 3.94238 14.9746 11.665 16.1797c86.3223 13.4697 527.311 77.4229 623.629 -5.45508l18.8379 -16.207l-23.5957 -7.81152c-5.98145 -1.98047 -594.551 -201.244 -790.264 -638.396
c-3.14648 -7.02734 -11.2529 -10.3105 -18.3379 -7.2959z" />
    <glyph glyph-name="eight" unicode="8" horiz-adv-x="753" 
d="M689.653 796.729c-4.09082 0 -8.39258 -0.149414 -12.9062 -0.445312c-146.969 -9.80371 -341.555 -49.9189 -406.252 -130.713c-19.0371 -23.7715 -26.1172 -49.3564 -21.6445 -78.2188c9.46387 -61.0977 52.4678 -125.06 94.8574 -187.077
c146.319 88.9834 306.953 195.609 389.352 291.587l0.0136719 0.0136719s24.8975 61.4609 9.42578 85.5547c-8.2373 12.8271 -25.9902 19.2988 -52.8457 19.2988zM335.505 362.373c-43.4268 -26.1211 -85.6816 -50.8604 -124.688 -73.7041
c-78.6025 -46.0234 -146.487 -85.7744 -162.753 -102.552c-14.3311 -14.7783 -9.32617 -21.6074 -7.18945 -24.5273c28.1582 -38.4395 203.15 -48.5869 319.1 9.3916c22.2256 11.1094 35.1035 24.5137 39.373 40.9814c9.75195 37.6143 -24.1289 91.8965 -63.8428 150.41z
M169.761 101.819c-71.0039 0 -131.411 15.6045 -151.586 43.1475c-6.36914 8.69043 -18.1758 32.0146 9.68652 60.7461c18.9375 19.5254 81.7695 56.3223 168.736 107.244c37.5322 21.9775 79.3721 46.4766 122.995 72.7344
c-43.873 64.2021 -88.1934 130.479 -98.5537 197.348c-5.66797 36.584 3.58301 70.2686 27.4883 100.127c90.7969 113.373 371.083 137.508 426.348 141.19c45.1719 3.07129 75.9023 -7.68066 91.3398 -31.7812c7.02832 -10.9785 9.9209 -23.5371 10.3057 -36.2061
c7.42676 16.0967 11.6309 31.6445 12.0703 46.4707c0.80957 26.7715 -11.4121 49.8242 -37.2881 70.1719c-5.79785 4.55957 -7.21289 12.7783 -3.11035 18.9082v0c4.53223 6.77148 13.9463 8.35645 20.3516 3.31934c33.0645 -26 49.2578 -57.3125 48.1807 -93.252
c-3.92285 -130.226 -240.235 -293.291 -457.099 -425.042c44.54 -65.6523 79.6885 -122.957 66.958 -172.045c-6.34082 -24.4512 -24.5156 -44.334 -54.0234 -59.0908c-60.6475 -30.3184 -136.364 -43.9834 -202.8 -43.9902z" />
    <glyph glyph-name="nine" unicode="9" horiz-adv-x="704" 
d="M513.923 848.828c-14.4209 0 -29.5293 -1.20801 -45.2832 -3.6543c-151.406 -23.5166 -273.683 -184.823 -273.971 -302.703c-0.117188 -46.5664 18.8584 -105.149 109.89 -119.749c192.657 -30.8379 302.528 102.799 336.936 153.978
c7.19531 10.7031 21.2197 14.3213 32.6562 8.35938v0c21.8066 67.4521 19.2715 135.818 -10.5459 186.534c-29.7412 50.5928 -82.0234 77.2354 -149.682 77.2354zM83.9814 123.131c-24.1318 0 -47.9541 2.56445 -71.2637 8.06738
c-7.91211 1.86816 -12.7168 9.91699 -10.4385 17.7207v0c2.07715 7.11523 9.33691 11.4639 16.5508 9.75781c111.356 -26.3398 231.936 24.0605 314.852 72.0898c103.294 59.833 209.281 152.424 283.515 247.687c20.7754 26.6699 37.209 55.4492 49.0322 84.7852
c-36.4121 -54.625 -155.831 -202.02 -366.123 -168.301c-85.0879 13.6445 -133.777 67.4453 -133.578 147.601c0.316406 128.77 133.222 304.882 297.799 330.446c100.333 15.5957 181.821 -16.1719 223.537 -87.1279c52.6123 -89.4922 33.1279 -219.972 -48.4766 -324.702
c-110.687 -142.057 -344.502 -338.01 -555.405 -338.023z" />
    <glyph glyph-name="colon" unicode=":" horiz-adv-x="297" 
d="M164.74 596.079c29.8994 0 54.2266 21.4971 54.2266 47.9268s-24.3271 47.9268 -54.2266 47.9268c-29.9023 0 -54.2295 -21.4971 -54.2295 -47.9268s24.3271 -47.9268 54.2295 -47.9268zM164.74 720.073c45.4189 0 82.3672 -34.125 82.3672 -76.0684
s-36.9482 -76.0684 -82.3672 -76.0684s-82.3711 34.125 -82.3711 76.0684s36.9521 76.0684 82.3711 76.0684zM82.3711 279.498c29.8994 0 54.2266 21.4971 54.2266 47.9268s-24.3271 47.9268 -54.2266 47.9268c-29.9023 0 -54.2295 -21.4971 -54.2295 -47.9268
s24.3271 -47.9268 54.2295 -47.9268zM82.3711 403.492c45.4189 0 82.3672 -34.125 82.3672 -76.0684s-36.9482 -76.0684 -82.3672 -76.0684s-82.3711 34.125 -82.3711 76.0684s36.9521 76.0684 82.3711 76.0684z" />
    <glyph glyph-name="semicolon" unicode=";" horiz-adv-x="364" 
d="M172.483 360.68c4.83301 10.8477 4.02246 16.1377 3.51074 17.0654h-0.00390625c-0.0380859 0 -0.27832 0.124023 -0.758789 0.254883c-18.1104 5.00879 -39.0371 -5.02832 -52.5615 -16.0967c-13.8848 -11.3701 -19.6729 -22.8574 -19.3496 -27.3779
c0.0341797 -0.522461 0.126953 -0.714844 0.126953 -0.714844c0.0341797 -0.0478516 -1.23438 -6.32031 26.6279 -2.33594c0.548828 0.0761719 1.41016 0.185547 2.39648 0.305664c2.4209 0.0810547 7.25879 -0.938477 7.81738 -10.0039v-3.2041l0.0273438 -0.330078
c16.0146 15.3828 26.8525 30.5176 32.167 42.4375zM182.733 405.123c14.3896 -3.97754 22.5146 -15.9951 21.7314 -32.1406c-2.22949 -46.0273 -75.248 -124.229 -186.163 -148.926c-7.86133 -1.75 -15.6309 3.38867 -17.0176 11.3223
c-1.28418 7.34668 3.39746 14.4756 10.6797 16.0869c46.0479 10.1855 83.1592 29.9639 110.38 51.2275c-12.9746 -0.405273 -26.7773 1.28516 -36.3613 9.02148c-6.41992 5.18066 -10.1299 12.374 -10.7344 20.8037c-1.13672 15.9248 9.92773 35.0518 29.5938 51.1553
c24.5713 20.123 53.6943 28.127 77.8916 21.4492zM231.694 595.097c29.8994 0 54.2266 21.4971 54.2266 47.9268s-24.3271 47.9268 -54.2266 47.9268c-29.9023 0 -54.2295 -21.4971 -54.2295 -47.9268s24.3271 -47.9268 54.2295 -47.9268zM231.694 719.091
c45.4189 0 82.3672 -34.125 82.3672 -76.0684s-36.9482 -76.0684 -82.3672 -76.0684s-82.3711 34.125 -82.3711 76.0684s36.9521 76.0684 82.3711 76.0684z" />
    <glyph glyph-name="less" unicode="&#x3c;" horiz-adv-x="693" 
d="M194.243 141.213c-5.3457 -6.06738 -14.6709 -6.40625 -20.457 -0.757812c-94.708 92.4502 -167.973 280.267 -171.159 288.514l-2.62793 6.80176l4.04688 6.07324c58.0098 87.0176 530.229 296.798 616.985 334.812c7.13379 3.12598 15.417 -0.158203 18.5146 -7.30371
v0c3.08301 -7.1123 -0.115234 -15.3516 -7.21875 -18.4551c-155.238 -67.832 -515.595 -234.714 -594.147 -312.141c-4.03711 -3.97949 -5.13965 -10.0049 -2.95215 -15.2344c19.749 -47.2217 83.2334 -189.794 158.316 -263.019
c5.34863 -5.21582 5.64355 -13.6777 0.705078 -19.2842z" />
    <glyph glyph-name="equal" unicode="=" horiz-adv-x="561" 
d="M403.346 349.569c7.77051 0 14.0703 -6.29883 14.0703 -14.0703c0 -7.77051 -6.2998 -14.0703 -14.0703 -14.0703h-389.275c-7.77051 0 -14.0703 6.2998 -14.0703 14.0703c-0 7.77148 6.2998 14.0703 14.0703 14.0703h389.275zM497.146 478.545
c7.77051 0 14.0703 -6.29883 14.0703 -14.0703c0 -7.77051 -6.2998 -14.0703 -14.0703 -14.0703h-391.618c-7.77051 0 -14.0703 6.2998 -14.0703 14.0703c0 7.77148 6.2998 14.0703 14.0703 14.0703h391.618z" />
    <glyph glyph-name="greater" unicode="&#x3e;" horiz-adv-x="688" 
d="M3.44824 145.581l-0.00976562 0.0195312c-3.43848 6.95996 -0.59668 15.3809 6.3623 18.8223c207.889 102.808 524.592 262.757 580.981 299.636c4.98438 3.25977 7.35352 9.20996 6.02246 15.0156c-9.57715 41.7725 -84.9004 166.399 -160.692 275.445
c-4.41895 6.35742 -2.87988 15.0518 3.45605 19.501v0c6.3916 4.48828 15.1914 2.94531 19.625 -3.48438c16.041 -23.2617 53.4268 -78.2041 88.2656 -134.782c90.3057 -146.68 83.9785 -172.855 70.9561 -185.875c-29.6191 -29.6289 -497.776 -262.02 -596.147 -310.681
c-6.96191 -3.44336 -15.3789 -0.581055 -18.8193 6.38281z" />
    <glyph glyph-name="question" unicode="?" horiz-adv-x="666" 
d="M74.1611 116.245c8.37402 -2.09473 12.8613 -11.1641 9.57812 -19.1475c-26.042 -63.3193 -104.05 -87.6318 -137.042 -95.2539c-7.97656 -1.84277 -15.7949 3.51953 -17.0205 11.6133l-0.0126953 0.0830078c-1.09277 7.22363 3.49609 14.0986 10.6094 15.7715
c28.3066 6.65234 96.0703 27.5332 117.307 78.2354c2.76074 6.5918 9.64355 10.4336 16.5771 8.69922zM627.002 704.762c32.8779 -31.8643 46.2402 -66.6523 39.7139 -103.415c-22.9395 -129.229 -287.513 -246.849 -480.697 -332.72
c-56.542 -25.1387 -119.422 -53.0938 -142.812 -68.6758c29.3223 -5.38672 66.9746 11.3076 100.673 26.2568c38.875 17.2441 72.4531 32.125 98.0205 18.8105c9.28809 -4.83789 16.3164 -12.9863 21.0049 -24.3125c3.3291 -8.04199 -1.95117 -17.1016 -10.4932 -18.7676
c-6.61816 -1.29199 -13.0479 2.4043 -15.7295 8.59082c-2.03809 4.70117 -4.64062 7.89062 -7.78418 9.5293c-13.5449 7.06934 -44.083 -6.47852 -73.6113 -19.5732c-32.0293 -14.208 -67.2051 -29.8105 -100.131 -29.8105c-11.9023 0 -23.5098 2.04004 -34.5713 6.91797
c-12.0947 5.33789 -13.4141 14.7227 -13.4209 18.5078c-0.03125 21.5996 31.6992 37.8955 167.421 98.2305c166.099 73.8418 444.097 197.424 464.422 311.924c4.86035 27.3779 -5.46875 52.9902 -31.583 78.293c-127.045 123.122 -289.409 96.3145 -399.004 30.1816
c-78.0527 -47.0957 -116.045 -104.799 -107.681 -133.379c5.2627 -17.9795 14.8359 -29.7617 29.2598 -36.0068c32.0498 -13.8604 79.0127 2.13184 100.785 11.1426c6.79297 2.81152 14.6045 -0.0205078 17.9355 -6.5752l0.0556641 -0.109375
c3.69824 -7.27637 0.46582 -16.1592 -7.07227 -19.2891c-25.4561 -10.5713 -80.9561 -29.1113 -122.816 -11.0205c-22.3047 9.63184 -37.4951 27.7832 -45.1553 53.959c-13.6035 46.4775 35.8037 114.486 120.149 165.374c118.563 71.5537 294.617 100.168 433.121 -34.0635
z" />
    <glyph glyph-name="at" unicode="@" horiz-adv-x="727" 
d="M368.631 460.333v0zM342.937 518.249c-8.4502 0 -18.0039 -2.60449 -24.4795 -4.76172c-70.915 -23.6338 -269.317 -213.912 -273.227 -275.119c-0.364258 -5.6748 1.34961 -6.49902 2.86133 -7.22754c29.3086 -14.1182 157.741 97.0977 219.467 150.534
c58.8125 50.915 85.3047 72.9756 101.055 78.6504v0c-5.54883 0.890625 -9.23633 6.20508 -8.09375 11.708c2.93164 14.1221 4.90234 33.9062 -3.31445 41.7705c-3.41406 3.27051 -8.59375 4.44531 -14.2686 4.44531zM-21.0332 4.13281
c-22.7607 0 -43.3408 2.41211 -61.1348 7.35156c-46.9785 13.0469 -72.8447 43.6611 -72.834 86.209c-2.13965 137.852 82.1992 295.441 225.605 421.346c153.23 134.52 338.934 204.864 484.638 183.525c92.9404 -13.5967 107.52 -66.3535 103.384 -108.207
c-9.0752 -91.876 -117.419 -211.501 -163.577 -258.665c-57.6006 -58.8574 -156.838 -145.382 -196.83 -145.382c-0.459961 0 -0.90625 0.00683594 -1.35254 0.0341797c-17.165 0.886719 -25.293 9.35059 -29.0918 16.2891c-14.7402 26.9521 10.2402 74.584 53.1348 149.82
c12.6963 22.2666 24.915 43.7021 33.7158 61.8193c-18.5977 -14.5439 -44.6328 -37.085 -68.6445 -57.874c-119.546 -103.493 -207.465 -175.178 -250.108 -154.608c-13.0879 6.31348 -19.7354 18.5146 -18.7217 34.3711c5.02246 78.6709 217.176 274.947 292.412 300.023
c29.9404 9.98926 52.5439 7.94238 67.1572 -6.10059c23.335 -22.4111 14.167 -65.5293 11.2295 -76.8721c4.38965 -3.94336 7.7666 -11.1025 3.49316 -23.9297c-7.95215 -23.8809 -26.4746 -56.3701 -46.0859 -90.7627
c-22.875 -40.1221 -61.1562 -107.271 -52.8916 -122.379c0.577148 -1.05762 3.51465 -1.57324 5.85742 -1.69727c0.158203 -0.00683594 0.326172 -0.0136719 0.494141 -0.0136719c40.8438 0 318.265 241.647 331.806 378.688
c2.75879 27.9209 -2.47656 66.3398 -79.4541 77.6074c-137.745 20.1162 -314.795 -47.6035 -462 -176.833c-137.285 -120.532 -218.045 -270.057 -216.028 -399.98c-0.00683594 -30.2227 17.0762 -49.5557 52.2207 -59.3115
c138.837 -38.6016 477.457 98.3945 627.244 333.612c4.13281 6.49023 12.5996 8.61035 19.1924 4.64355v0c6.72363 -4.0459 8.92969 -12.8672 4.72168 -19.4912c-139.554 -219.677 -428.247 -353.22 -597.551 -353.233z" />
    <glyph glyph-name="A" unicode="A" horiz-adv-x="1569" 
d="M997.045 335.462c104.283 137.7 255.276 317.611 427.758 520.909c140.407 165.49 262.488 309.388 299.461 368.073c-84.8408 -40.541 -409.845 -290.838 -652.495 -477.716c-56.8818 -43.8115 -112.737 -86.8262 -165.56 -127.271
c29.2637 -74.5146 40.1807 -149.978 42.8223 -213.362c1.02051 -24.5264 0.879883 -48.6826 -0.177734 -72.1309c15.915 0.130859 31.9746 0.632812 48.1914 1.49805zM942.58 261.305c10.1719 14.3799 21.0801 29.4258 32.667 45.0625
c-9.42578 -0.302734 -18.793 -0.481445 -28.1191 -0.536133c-1.1748 -15.2451 -2.7168 -30.1123 -4.54785 -44.5264zM920.807 334.102c0.90332 20.6934 1.08594 42.1973 0.350586 64.2988c-2.00977 60.5137 -11.6553 132.314 -38.2705 203.223
c-98.2002 -75.0439 -184.501 -139.947 -245.437 -182.749c-9.41602 -6.61621 -19.3262 -13.4453 -29.666 -20.4463c86.0469 -39.6006 194.384 -62.1416 313.022 -64.3262zM578.823 412.855c15.0322 10.0371 29.2344 19.7607 42.4561 29.0498
c61.8252 43.4268 150.146 109.917 250.603 186.72c-28.9961 65.7549 -73.79 129.366 -141.967 180.996c-84.8584 64.2646 -163.203 97.1455 -226.159 97.1455c-40.7891 0 -75.1162 -13.8027 -100.574 -41.8193c-66.1914 -72.8389 -56.3398 -233.321 74.7275 -375.783
c26.9004 -29.2402 61.0283 -54.8115 100.914 -76.3086zM1804.1 750.576c6.53906 -4.31055 8.36914 -13.1777 3.94629 -19.6416c-162.871 -238.02 -452.831 -395.238 -778.859 -421.524c-5.8125 -0.466797 -11.6279 -0.885742 -17.4131 -1.26367
c-31.04 -41.29 -58.2393 -79.2891 -80.0039 -112.445c-11.2402 -55.2295 -25.7637 -98.7598 -37.5156 -122.765c-4.60645 -9.41211 -13.7334 -28.0576 -28.0098 -28.0576c-1.46289 0 -2.98145 0.199219 -4.55469 0.618164
c-16.5508 4.44531 -14.9668 27.2549 -14.2041 38.2197c1.80371 25.9492 22.3799 67.9062 58.1221 123.185c5.83984 29.542 10.7207 62.9043 13.5029 99.124c-128.948 2.59668 -246.502 28.7246 -338.385 74.3633c-240.689 -158.201 -676.04 -384.81 -918.684 -309.017
c-73.4736 22.9463 -124.472 71.8828 -151.571 145.442c-56.0508 152.135 21.7959 314.197 225.125 468.661c126.545 96.1387 266.053 162.044 308.826 181.251c7.21289 3.23926 15.6455 -0.124023 18.7051 -7.41504c2.95312 -7.03613 -0.194336 -15.125 -7.15137 -18.2607
c-90.3428 -40.7129 -634.551 -301.139 -519.101 -614.509c23.9258 -64.9307 68.8604 -108.104 133.558 -128.315c31.2051 -9.74219 65.9141 -14.1807 103.12 -14.1875c235.522 -0.0205078 572.89 177.665 778.918 311.47
c-37.1885 21.4287 -69.3311 46.4023 -95.2695 74.5977c-141.974 154.319 -149.545 331.565 -74.8477 413.768c75.583 83.1924 211.865 63.7979 364.55 -51.8145c70.4541 -53.3613 117.268 -118.56 147.964 -185.84c51.084 39.1328 104.923 80.5947 159.73 122.806
c158.146 121.796 321.676 247.741 449.957 341.521c225.142 164.577 237.659 153.619 249.792 143.019c12.8438 -11.2119 2.25293 -29.6787 -1.22656 -35.7451c-31.7959 -55.4365 -159.267 -205.683 -306.86 -379.651
c-133.537 -157.397 -294.755 -347.422 -411.741 -500.065c314.451 27.4082 593.345 179.442 750.206 408.583c4.35449 6.36035 12.9385 8.13281 19.375 3.89062z" />
    <glyph glyph-name="B" unicode="B" horiz-adv-x="1445" 
d="M1425.84 1047.78c24.2207 40.2256 31.8193 70.585 20.8477 83.2812c-12.3291 14.2764 -69.998 35.3203 -338.643 -77.0566c-128.845 -53.9043 -251.444 -128.268 -365.123 -212.271c70.6396 -17.6982 143.825 -42.7197 212.562 -75.5254
c107.936 32.3594 211.976 75.4775 287.029 120.285c87.3076 52.1387 142.383 93.2842 183.326 161.286zM1114.37 630.421c-49.0947 43.6396 -105.717 78.458 -161.826 105.974c-136.632 -39.8271 -284.222 -63.9004 -400.827 -51.0801
c-145.681 -130.556 -270.214 -267.864 -366.013 -380.812v0c264.79 -96.7832 527.627 -145.84 719.093 -134.533c221.559 13.1289 354.165 64.7725 383.483 149.339c27.1377 78.2861 -32.998 185.867 -173.91 311.112zM157.671 314.952
c93.4941 110.646 215.196 245.788 357.998 375.712c-14.2832 2.72754 -27.958 6.11426 -40.9424 10.2158c-122.215 -130.267 -243.2 -264.477 -335.962 -378.667c6.25488 -2.43164 12.5547 -4.84961 18.9062 -7.26074zM39.1719 170.682
c27.3848 33.9463 60.6787 75.2227 99.3311 121.459c-6.12793 2.34961 -12.2119 4.71289 -18.2441 7.08984c-60.5547 -75.9365 -107.173 -141.85 -131.301 -190.141c14.458 17.2646 32.0938 39.1328 50.2139 61.5918zM412.956 764.622
c14.6611 -12.4902 32.542 -22.8857 53.3896 -31.1709c35.0176 37.2441 70.0801 74.0957 104.744 110.206c-24.0635 2.23926 -46.8965 3.37305 -67.916 3.37305c-38.3633 0 -70.6914 -3.77832 -93.5488 -11.5488c-10.0371 -3.40723 -27.1992 -10.8203 -29.3672 -22.1562
c-2.18164 -11.3906 9.73828 -29.1436 32.6982 -48.7031zM606.65 839.665c-36.3301 -37.7656 -73.417 -76.6514 -110.554 -116.06c14.249 -3.88184 29.5664 -6.98047 45.873 -9.28906c43.5645 38.7275 89.0352 76.8574 136.124 113.524
c-24.334 4.84375 -48.2979 8.79395 -71.4434 11.8242zM714.094 820.071c-46.2646 -35.2998 -90.9551 -72.0752 -133.936 -109.601c64.3945 -4.09473 141.352 2.22559 228.25 19.1611c34.6436 6.75391 70.0801 15.0811 105.444 24.6787
c-71.0557 31.0537 -138.22 50.6953 -184.573 62.127c-5.05957 1.25 -10.1328 2.45898 -15.1855 3.63379zM1467.98 1149.45c20.5898 -23.833 14.6924 -61.8438 -18.0342 -116.194c-43.7734 -72.708 -103.916 -117.735 -193.006 -170.932
c-66.5693 -39.751 -161.644 -81.082 -265.68 -114.142c51.7295 -27.4746 100.086 -59.6553 141.806 -96.7344c150.104 -133.42 212.971 -251.458 181.804 -341.369c-33.8223 -97.5576 -171.23 -154.154 -408.409 -168.204
c-191.896 -11.418 -453.21 36.4814 -716.918 131.291c-7.78418 2.80273 -15.4854 5.6123 -23.1387 8.4502c-41.2246 -49.1426 -76.5723 -92.9609 -105.328 -128.61c-68.709 -85.1777 -86.5234 -106.6 -100.034 -106.6c-2.60352 0 -5.0498 0.796875 -7.66699 2.08203
c-12.6348 6.22461 -8.88379 21.7861 -7.65039 26.8975c12.4287 50.0977 67.8203 133.757 147.536 234.646c-191.801 78.1836 -329.728 164.811 -361.705 229.583c-10.127 20.5029 -9.33789 36.8486 -4.50684 49.2119c3.49023 8.93262 14.9756 11.4873 22.2314 5.2168
c4.34766 -3.75684 6.20215 -9.85254 4.10547 -15.2021c-2.35156 -6.00098 -2.67383 -14.4697 3.39941 -26.7695c29.1611 -59.0635 167.359 -143.465 354.787 -219.086c91.9033 114.115 211.707 247.673 334.348 378.688c-19.2197 8.47754 -36.416 18.9131 -51.2109 31.5195
c-32.2451 27.4678 -46.4082 52.8467 -42.0898 75.415c3.69238 19.3125 19.8271 33.9531 47.9502 43.5098c40.6338 13.8164 111.02 16.4336 194.812 6.78809c129.109 133.929 249.733 254.66 331.208 335.275c-182.911 -91.082 -353.065 -118.501 -402.716 -124.926
c-7.92773 -1.02539 -15.0625 4.75781 -15.7656 12.7207c-0.665039 7.52637 4.68555 14.2158 12.1787 15.1816c51.6494 6.65918 244.778 37.6748 441.816 147.548c8.81445 4.93262 19.6182 2.61719 25.6777 -5.45508c6.05566 -8.0791 5.23145 -19.0781 -1.95801 -26.1611
c-57.4629 -56.5283 -197.324 -195.095 -355.45 -358.819c24.8154 -3.70312 50.5234 -8.41602 76.7783 -14.1592c120.639 91.0449 251.692 171.963 390.032 229.838c283.655 118.663 347.466 96.5 370.797 69.5z" />
    <glyph glyph-name="C" unicode="C" horiz-adv-x="1020" 
d="M1374.62 1146.02c8.94141 25.2754 2.88965 48.3525 -18.501 70.5508c-39.6348 41.125 -177.669 33.5879 -239.329 20.6719c-160.874 -33.7119 -378.978 -135.371 -587.912 -264.951c0.608398 -0.941406 1.22656 -1.88965 1.8584 -2.83789
c40.3457 -60.5273 156.621 -83.6182 319.034 -63.3711c240.902 30.0371 491.065 144.399 524.85 239.938zM271.048 405.732c-85.6855 -92.8857 -161.289 -189.868 -220.146 -280.494c58.4248 -7.30273 121.404 -2.34961 175.861 6.2041
c152.403 23.9639 336.698 93.2295 492.986 185.291c161.506 95.1328 273.532 201.917 307.354 292.989c19.46 52.3926 12.6309 98.6367 -20.2949 137.447c-44.5537 52.5098 -110.883 68.3594 -197.156 47.0479c-146.113 -36.0547 -347.46 -181.285 -538.604 -388.485z
M1376.38 1236.09c28.6904 -29.7686 37.2588 -64.1611 24.7754 -99.4609c-42.0869 -119 -317.278 -229.721 -547.899 -258.473c-101.886 -12.7168 -282.309 -19.7588 -345.931 75.6826c-0.780273 1.16797 -1.5459 2.34277 -2.29492 3.51074
c-290.547 -183.779 -558.356 -419.023 -622.957 -596.901c-23.5029 -64.7109 -18.8418 -118.56 13.8535 -160.035c30.0576 -38.1299 74.5146 -59.4893 124.334 -70.0557c60.3145 94.3701 139.099 195.81 230.102 294.453c194.734 211.089 401.292 359.404 552.544 396.73
c97.499 24.0869 173.319 5.16602 225.354 -56.165c39.4385 -46.4775 48.1572 -103.693 25.2207 -165.45c-80.1826 -215.891 -515.438 -448.022 -822.353 -496.279c-75.1816 -11.8164 -141.14 -13.1904 -196.747 -4.36914
c-51.6152 -82.9287 -88.2178 -159.478 -104.465 -221.246c-1.91211 -7.26953 -9.26953 -11.6465 -16.6064 -10.0098c-7.81836 1.74414 -12.6006 9.61426 -10.5654 17.3613c16.4873 62.749 51.8154 138.242 101.788 219.844
c-56.7617 13.8164 -100.82 39.8477 -130.709 77.7646c-39.1299 49.6445 -45.2549 112.583 -18.2031 187.07c54.5225 150.122 246.776 347.037 527.464 540.242c35.9209 24.7188 72.2031 48.6201 108.55 71.5596c-16.3926 36.1992 -17.6016 72.1104 -3.54199 107.094
c57.7734 143.728 361.335 225.248 431.511 242.337c7.67871 1.87012 15.3574 -2.93359 17.0703 -10.6484c1.65625 -7.46191 -2.92578 -14.8936 -10.3447 -16.7305c-66.4648 -16.46 -360.053 -95.8633 -412.129 -225.462
c-10.7344 -26.7119 -10.2676 -53.5957 1.52832 -81.5371c219 135.522 438.295 234.97 595.291 267.857c61.9521 12.9844 214.795 23.7842 265.36 -28.6836z" />
    <glyph glyph-name="D" unicode="D" horiz-adv-x="1574" 
d="M1052.53 162.022c282.9 131.545 444.092 375.644 501.428 591.006c46.543 174.813 8.06934 338.786 -89.4922 381.423c-15.709 6.86328 -32.208 10.2295 -49.2773 10.2295c-79.5059 0 -171.557 -73.0166 -255.504 -205.805
c-187.294 -296.266 -244.825 -564.975 -153.9 -718.8c12.7549 -21.5723 28.3506 -40.9326 46.7461 -58.0537zM23.6855 54.3701c61.7812 -6.72559 163.748 49.96 285.513 143.341c-30.5625 58.624 -46.2607 126.461 -61.2002 191
c-28.457 122.95 -55.3369 239.078 -177.4 267.246c-14.002 3.23633 -27.4912 4.85059 -40.4346 4.85059c-43.0625 0 -80.1758 -17.8418 -110.718 -53.3193c-76.9326 -89.3682 -96.0352 -281.104 -41.7119 -418.681c31.5547 -79.915 83.3877 -127.656 145.952 -134.438z
M1581.15 745.785c-50.249 -188.746 -162.736 -360.967 -316.733 -484.927c-57.7305 -46.4707 -120.841 -86.0361 -188.403 -118.354c79.5713 -59.0654 200.684 -84.8447 361.809 -76.8906c7.71973 0.380859 14.3506 -5.45703 14.8193 -13.1719
c0.472656 -7.79492 -5.5293 -14.542 -13.3301 -14.9297c-176.093 -8.76172 -307.437 22.0732 -392.161 91.748c-125.152 -55.0654 -264.639 -86.0293 -413.002 -90.9824c-170.64 -5.6748 -259.129 52.6602 -310.913 134.918
c-115.956 -88.0693 -220.175 -147.436 -290.43 -147.442c-4.17383 0 -8.22363 0.212891 -12.1533 0.638672c-73.46 7.95605 -133.513 61.9629 -169.094 152.073c-58.7061 148.672 -37.8174 349.366 46.5596 447.384c46.4189 53.918 108.262 73.8008 178.806 57.5322
c139.188 -32.125 169.334 -162.371 198.488 -288.323c14.4414 -62.3955 29.0713 -125.581 56.5078 -179.678c378.286 298.094 928.168 922.477 1066.96 1122.44c28.2158 40.6514 21.0947 50.8535 20.1914 51.877c-5.49316 6.24512 -48.5801 30.3867 -359.418 -106.647
c-139.116 -61.3252 -274.302 -129.636 -315.081 -150.487c-6.89062 -3.52344 -15.2969 -0.805664 -18.8613 6.06348v0c-3.59473 6.92676 -0.900391 15.4404 6.04785 18.9932c41.0752 20.999 176.755 89.5518 316.437 151.14c306.29 135.028 370.39 124.118 392.007 99.5293
c23.3867 -26.5947 -7.91406 -71.6914 -18.2021 -86.5176c-95.8438 -138.085 -384.838 -473.91 -662.286 -753.742c-128.745 -129.848 -278.187 -271.484 -413.871 -377.424c47.8516 -76.8096 129.227 -129.525 287.369 -124.201
c149.366 4.98047 279.544 35.4229 391.574 83.2471c-16.6572 16.8389 -31.0742 35.5469 -43.2246 56.1025c-96.4102 163.1 -38.71 442.781 154.341 748.15c110.055 174.092 237.103 251.225 339.833 206.327c111.992 -48.9365 156.326 -223.242 105.418 -414.448z" />
    <glyph glyph-name="E" unicode="E" horiz-adv-x="1477" 
d="M1024.39 792.266c-165.312 -37.5527 -369.75 -83.9883 -552.918 -141.252c0.453125 -0.103516 0.90625 -0.213867 1.35254 -0.317383c387.27 -90.8525 729.868 80.6016 807.481 167.4c13.9668 15.6162 15.0527 23.7715 14.5791 25.0977
c-0.0546875 0.0683594 -11.0879 11.3701 -76.0596 -5.25586c-52.6953 -13.4795 -118.375 -28.4014 -194.436 -45.6729zM1259.37 1076.87c104.491 35.0312 216.564 81.5088 235.685 103.298c-6.0459 2.21191 -21.2842 5.57129 -58.1152 5.57129
c-98.1484 0 -374.766 -73.209 -616.626 -163.195c-292.37 -108.776 -471.773 -215.671 -479.908 -285.946c-3.78516 -32.709 36.0557 -55.9717 82.6768 -71.8623c194.572 64.0098 417.162 114.562 595.074 154.973c75.8545 17.2305 141.369 32.1113 193.687 45.4941
c58.1289 14.874 92.8301 12.957 106.069 -5.83984c5.93555 -8.42285 9.77637 -23.249 -5.59961 -46.0234c-30.71 -45.5088 -135 -117.001 -291.408 -166.433c-127.319 -40.2461 -326.873 -76.9951 -554.512 -23.6064c-15.7949 3.70312 -30.3945 7.70801 -43.7773 12.002
c-191.694 -63.4814 -352.747 -139.617 -408.863 -230.799c-35.8691 -58.2871 -40.9873 -111.264 -15.21 -157.452c63.165 -113.208 288.475 -165.01 471.086 -165.236h0.921875c163.141 0 389.866 54.0342 592.03 141.114c207.413 89.3477 342.606 192.367 361.65 275.58
c10.2568 44.8232 -15.4072 83.8721 -76.2949 116.21c-6.65918 3.53711 -9.37402 11.7031 -6.10449 18.4971h0.000976562c3.47168 7.21289 12.3105 10.0664 19.377 6.30371c91.0547 -48.4863 99.8076 -106.409 90.4551 -147.29
c-46.6074 -203.642 -632.936 -438.535 -981.1 -438.556h-0.975586c-190.554 0.233398 -426.932 56.5557 -495.62 179.664c-31.1084 55.752 -25.7842 118.299 15.8223 185.909c56.5352 91.876 208.979 168.102 392.257 231.631
c-50.3867 23.3516 -73.7383 53.1201 -69.5889 88.9551c13.0195 112.549 317.626 241.964 498.039 309.086c248.621 92.501 523.788 164.962 626.443 164.962c60.2109 0 84.9229 -7.87988 88.1592 -28.1123c2.64551 -16.5645 -5.52344 -38.6455 -136.779 -91.3818
c-48.1055 -19.3281 -97.0732 -36.3604 -120.017 -44.1504c-7.40723 -2.51465 -15.3838 1.51953 -17.8203 8.95312c-2.41016 7.35059 1.55176 15.2217 8.88574 17.6807z" />
    <glyph glyph-name="F" unicode="F" horiz-adv-x="1536" 
d="M459.208 96.5059c309.869 63.7422 585.236 312.274 812.497 561.754c-79.7227 3.56543 -178.139 9.26758 -297.152 18.2539c-169.008 12.8818 -307.554 19.9854 -423.036 19.9854c-327.12 0 -469.383 -56.9746 -595.988 -200.954
c-82.4297 -93.7441 -103.59 -209.598 -53.8975 -295.146c72.0762 -124.091 275.312 -161.946 557.577 -103.893zM1169.94 814.489c106.263 34.7568 211.419 124.564 297.435 216.694c-49.9189 13.5684 -118.553 26.5879 -225.722 31.6855
c-8.375 0.398438 -16.6953 0.597656 -24.9736 0.597656c-54.7148 0 -107.32 -8.68359 -156.711 -25.9072c-100.285 -34.9697 -150.5 -92.46 -131.051 -150.032c21.8613 -64.6904 126.234 -110.611 241.022 -73.0381zM1811.38 1208.48
c-53.8076 -37.0234 -118.637 -105.396 -192.094 -189.812c36.8174 -2.29492 81.8936 6.01074 160.634 34.083c121.047 43.1592 191.77 123.568 196.854 177.314c0.96875 10.2158 -0.316406 23.8262 -11.9131 30.6416c-20.2324 11.8926 -71.1611 4.41797 -153.48 -52.2275z
M1596.89 992.752c-27.4668 -31.9746 -56.0703 -65.9033 -85.667 -101.004c-55.2852 -65.5693 -114.885 -136.265 -178.531 -207.805c148.164 -5.33105 213.486 -2.38379 214.503 -2.3291l0.618164 0.0273438l0.618164 -0.0273438
c3.05762 -0.0888672 306.881 -11.0879 387.304 66.2373c8.47656 8.15039 13.7715 16.7803 16.0117 26.1611c1.50586 6.30176 7.14062 10.7256 13.6201 10.7256c8.96094 0 15.8662 -8.31348 13.8193 -17.0381c-3.44434 -14.6797 -11.459 -28.127 -23.9521 -40.1357
c-87.9395 -84.5596 -387.627 -74.8242 -407.311 -74.0889c-7.6123 -0.30957 -81.3027 -3.03027 -239.628 3.23535c-233.101 -258.404 -518.401 -520.91 -843.412 -587.771c-95.8809 -19.7246 -176.806 -27.9414 -245.014 -27.9482
c-218.996 -0.0136719 -307.375 84.6758 -342.571 145.271c-55.8691 96.1836 -33.458 224.877 57.0986 327.855c178.757 203.305 383.305 240.686 1042.29 190.45c130.638 -9.8584 236.302 -15.7529 319.521 -19.209c69.2998 77.208 133.929 153.873 193.501 224.526
c26.2236 31.1016 51.6641 61.2754 76.2666 90.0342c-11.5967 3.35938 -23.4346 7.38574 -36.2959 11.7549c-9.72852 3.30469 -20.0957 6.8291 -31.4932 10.4287c-90.0068 -98.1006 -202.934 -196.235 -319.494 -234.372
c-132.376 -43.2822 -249.803 11.9824 -276.432 90.7842c-19.5596 57.8887 9.16504 137.048 148.445 185.613c60.2793 21.0166 124.977 30.0371 192.277 26.8496c120.182 -5.72266 193.261 -21.2148 245.674 -36.542c85.8926 95.7373 149.475 189.179 170.458 221.118
c4.20508 6.40137 12.7324 8.2334 19.2285 4.17578v0c6.69824 -4.18457 8.65234 -13.0381 4.3457 -19.6582c-20.9531 -32.21 -81.2227 -121.471 -163.878 -215.053c6.97363 -2.30176 13.5762 -4.54102 19.917 -6.69824c17.334 -5.8877 32.4756 -11.0332 47.6797 -14.6328
c79.5986 92.1162 149.943 167.318 209.027 207.977c81.5156 56.0889 146.749 75.0303 183.69 53.3135c19.0098 -11.1709 28.1338 -31.6172 25.6738 -57.5596c-6.05273 -63.9619 -81.9961 -153.598 -215.416 -201.167c-97.9971 -34.9355 -148.514 -40.7617 -192.49 -33.5z
" />
    <glyph glyph-name="G" unicode="G" horiz-adv-x="1980" 
d="M604.891 320.662c771.509 365.526 1334.87 734.951 1399.69 917.377c15.2178 42.8359 3.25 73.0029 -37.6689 94.9395c-41.7441 22.3828 -91.8623 33.3955 -148.816 33.3955c-140.95 0 -323.857 -67.4111 -525.967 -196.723
c-388.836 -248.786 -707.087 -630.243 -694.961 -832.984c0.255859 -4.27832 0.65918 -8.46484 1.20898 -12.5635c2.99414 -1.58105 3.52344 -1.86035 6.51758 -3.44141zM370.074 -470.318c273.065 84.5244 564.796 344.318 797.629 596.415
c-102.772 -30.25 -208.224 -59.2354 -312.878 -87.9941c-344.323 -94.6377 -669.555 -184.02 -828.594 -303.294c-147.676 -110.763 -221.737 -204.535 -198.104 -250.848c24.8086 -48.6143 181.643 -65.8037 541.946 45.7207zM2031.09 1228.62
c-82.333 -231.727 -804.941 -643.69 -1398.72 -926.064c-8.47754 -4.0332 -16.9209 -8.03125 -25.4404 -12.0576c12.6348 -32.2627 37.1064 -57.3389 73.1338 -74.8447c284.277 -111.332 935.186 468.332 941.726 474.199l0.00390625 0.00390625
c12.3652 11.0908 30.3691 -4.64258 21.0342 -18.3818c-1.61426 -2.37695 -159.149 -233.313 -385.264 -488.907c307.99 95.3203 579.129 205.307 710.51 359.241c4.8916 5.73145 13.5049 6.42188 19.3828 1.70508c6.24805 -5.01562 6.98535 -14.166 1.77637 -20.2549
c-142.334 -166.409 -437.818 -281.458 -767.876 -381.17c-315.331 -348.693 -598.873 -563.739 -842.952 -639.284c-181.649 -56.2266 -327.34 -84.6006 -427.598 -84.6074c-78.9121 0 -129.677 17.5742 -147.745 52.9697c-31.7266 62.1826 39.6006 161.135 206.287 286.146
c163.312 122.483 491.051 212.56 838.026 307.919c119.783 32.9219 240.59 66.126 357.109 101.15c152.836 169.338 276.886 330.658 348.385 427.77c-168.885 -138.868 -542.201 -420.576 -791.228 -420.59c-33.2861 0 -64.3398 5.0293 -92.3984 16.1113
l-0.948242 0.418945c-42.6777 20.5967 -71.8008 50.1865 -87.0596 88.3096c-576.62 -270.558 -1236.34 -518.883 -1530.72 -518.917c-25.1934 0 -47.6455 1.81348 -67.2051 5.58496c-224.472 43.3174 -372.217 190.114 -427.282 424.5
c-34.5967 147.3 -22.7266 283.634 -17.4023 327.503c0.963867 7.9375 8.31543 13.4326 16.2129 12.1758c7.47266 -1.19043 12.6719 -8.01172 11.7891 -15.5283c-4.92969 -41.9932 -16.4561 -176.803 16.9785 -318.482c53.2168 -225.509 189.495 -360.936 405.036 -402.535
c110.199 -21.2705 334.341 23.4072 648.146 129.175c273.835 92.2949 604.549 227.907 936.21 383.745c-1.99902 9.36426 -3.31152 19.1611 -3.92285 29.3633c-6.42383 107.416 68.3936 258.994 210.663 426.813c133.537 157.521 314.768 314.816 497.221 431.556
c292.632 187.229 548.94 247.137 703.253 164.426c53.1758 -28.5117 70.7705 -73.1748 50.8809 -129.16z" />
    <glyph glyph-name="H" unicode="H" horiz-adv-x="1420" 
d="M1777.36 1214.8c14.4209 39.0371 14.8809 55.0312 14.2422 60.5205c-4.29395 -1.33301 -14.627 -6.23145 -34.9424 -24.1357c-106.434 -93.7998 -398.577 -376.236 -647.624 -631.542c-49.0537 -50.29 -93.1123 -96.0664 -132.72 -137.775
c90.6807 -11.5625 170.479 -8.95215 230.916 16.4473c220.796 92.7969 498.533 522.655 570.128 716.485zM436.616 491.661c26.7734 26.416 54.4531 53.4775 82.7246 80.9238c-37.4639 12.5107 -74.7002 25.207 -111.318 37.6973
c-179.685 61.2822 -351.619 119.927 -450.091 119.927c-27.7627 0 -49.6719 -4.6582 -64.2852 -15.2383c-26.7324 -19.3467 -57.1885 -47.6387 -50.5107 -72.5566c10.6973 -39.9023 109.142 -96.293 517.399 -138.387c28.5254 -2.94043 53.8906 -7.0625 76.0811 -12.3662z
M524.039 392.97c1.1543 33.8086 -33.8359 54.6533 -78.9736 67.4805v0c-245.697 -243.015 -295.002 -314.819 -302.566 -335.997c94.8369 7.85254 378.057 166.59 381.54 268.517zM1804.79 1301.69c7.08984 -3.27734 15.4717 -11.3223 15.1279 -30.9707
c-1.08594 -61.8877 -87.7471 -234.207 -201.573 -400.817c-82.0859 -120.147 -243.234 -331.559 -400.213 -397.533c-69.6914 -29.2949 -161.794 -30.6143 -265.418 -15.4375c-285.157 -302.182 -321.556 -376.291 -324.936 -393.639
c127.194 5.9248 582.271 196.401 664.958 231.416c7.13867 3.02246 15.373 -0.288086 18.4307 -7.41016c3.07227 -7.16211 -0.248047 -15.4561 -7.42188 -18.5029c-85.4707 -36.3027 -545.68 -229.33 -676.852 -233.698
c-0.466797 -0.0136719 -0.933594 -0.0205078 -1.38672 -0.0205078c-16.6055 0 -22.5068 10.25 -24.293 14.75c-6.01855 15.1699 -20.7832 52.4209 317.906 412.519c-115.517 20.2402 -243.372 58.6035 -369.668 100.237
c-27.8936 -27.041 -55.2441 -53.7246 -81.7637 -79.8174c57.5312 -19.6279 85.8643 -49.9873 84.4697 -90.7627c-2.53516 -74.4053 -108.516 -153.282 -171.468 -193.68c-91.0586 -58.4453 -190.389 -100.491 -241.545 -102.257
c-16.8594 -0.473633 -22.4453 9.22754 -24.2041 13.4668c-6.93555 16.6689 -18.5527 44.5986 297.819 358.522v0.00195312c-18.2402 3.54492 -37.0713 6.11426 -55.1123 7.97656c-460.025 47.4258 -529.477 113.511 -541.691 159.095
c-8.81445 32.8809 11.1982 66.4561 61.1865 102.635c78.2314 56.625 292.191 -16.3438 539.967 -100.848c41.0635 -14.0088 82.9375 -28.2852 125.004 -42.2588c145.106 140.387 303.699 289.3 437.442 414.874c132.788 124.675 237.669 223.153 274.528 261.901
c36.5361 38.4189 39.6826 52.6406 39.8545 55.835c-10.9131 6.0127 -62.751 -5.81152 -114.718 -25.7773c-7.13965 -2.74219 -15.1611 0.71875 -18.0693 7.79199c-2.98828 7.27051 0.527344 15.6104 7.84766 18.4697c52.1328 20.3584 128.963 43.9238 148.49 15.373
c12.792 -18.6943 -0.0693359 -45.9277 -43.0156 -91.0791c-37.4082 -39.332 -142.544 -138.051 -275.655 -263.027c-130.144 -122.194 -284.347 -266.979 -426.52 -404.322c127.636 -41.7988 256.075 -79.6338 369.888 -97.8945
c41.249 43.5781 87.4238 91.6494 139.026 144.626c251.65 258.314 548.137 545.065 656.838 640.864c31.4111 27.6943 51.3555 36.5088 66.7383 29.3984z" />
    <glyph glyph-name="I" unicode="I" horiz-adv-x="595" 
d="M-36.2344 11.0967c-22.3213 0 -44.6143 1.43555 -66.8125 4.32812c-50.2012 6.54004 -68.043 33.0938 -74.1777 54.2129c-65.6318 226.004 883.968 1109.7 1061 1264.22c-158.758 -40.04 -703.583 -186.975 -826.148 -345.808
c-38.0889 -49.3623 -52.3311 -98.9102 -42.3418 -147.276c16.5234 -79.9863 94.7021 -137.272 124.053 -156.281c6.2207 -4.02832 8.22852 -12.1562 4.64258 -18.6426v0c-3.95312 -7.15039 -13.0957 -9.45996 -19.9736 -5.05078
c-32.7852 21.0176 -117.367 83.0732 -136.251 174.142c-11.7822 56.8105 4.23242 114.102 47.5977 170.3c131.541 170.471 693.086 319.456 863.757 361.445c9.42773 2.31934 19.6758 -1 25.043 -9.08984c6.51465 -9.81934 4.50977 -22.5137 -4.29688 -29.8574
c-87.6162 -73.0312 -369.571 -333.552 -624.3 -604.817c-420.796 -448.126 -459.901 -596.729 -445.763 -645.433c5.59277 -19.2578 22.2119 -30.4287 50.7988 -34.1523c304.54 -39.7803 527.555 218.068 572.124 274.19c4.67773 5.89062 13.125 7.03418 19.2373 2.65039v0
c6.5293 -4.68359 7.86426 -13.8291 2.90137 -20.1484c-20.5098 -26.1152 -75.6064 -91.3945 -158.744 -153.845c-118.56 -89.0527 -246.037 -135.083 -372.347 -135.083z" />
    <glyph glyph-name="J" unicode="J" horiz-adv-x="1270" 
d="M2095.84 1362.22c2.7002 17.1484 -11.6318 31.7266 -42.582 43.3301c-7.30957 2.74121 -14.8252 4.06738 -22.5547 4.06738c-68.0771 0 -152.705 -102.923 -262.897 -246.415c21.3799 7.4541 42.5127 15.293 63.2539 23.4756
c153.599 60.582 257.532 129.483 264.78 175.542zM509.944 127.949c600.921 239.82 948.7 677.688 1180.76 980.804c-10.8623 -3.1875 -21.7793 -6.27246 -32.7715 -9.28125c-167.676 -203.655 -495.167 -550.796 -716.479 -463.001
c-47.0547 18.6738 -78.1631 40.3223 -98.4102 62.252c-39.9023 -52.1318 -93.2705 -110.288 -160.015 -174.312c-117.385 -112.612 -242.028 -209.981 -279.506 -238.702c-6.20508 -4.75488 -15.0625 -3.49316 -19.7432 2.76855
c-4.62012 6.18066 -3.41797 14.8994 2.73047 19.5625c112.981 85.6699 324.433 263 438.754 414.192c-18.4531 30.6553 -18.9336 59.9023 -15.5469 80.1699c7.07617 42.3281 36.6797 85.6865 84.0703 124.95c-23.4141 40.7266 -90.3926 61.2754 -199.644 61.2754
c-16.2822 0 -33.4922 -0.453125 -51.6504 -1.36719c-327.958 -16.502 -595.87 -278.348 -691.023 -528.466c-55.9033 -146.948 -46.5869 -276.68 24.9053 -347.031c91.7383 -90.248 281.22 -84.5186 533.564 16.1855zM902.882 898.791
c-36.9141 -32.7158 -59.8193 -67.6377 -65.4053 -101.034c-3.12598 -18.708 -0.536133 -35.4443 6.05957 -50.373c40.2051 57.8203 63.8799 110.632 59.3457 151.407zM927.601 918.804c13.5547 -49.1914 -9.11035 -115.126 -67.5762 -197.136
c22.8848 -26.7324 58.7471 -45.9209 91.8066 -59.0361c192.677 -76.459 488.62 224.156 658.322 424.444c-95.6406 -23.4551 -193.549 -39.3867 -282.958 -43.543c-169.998 -7.90723 -312.61 -60.1006 -399.595 -124.729zM2063.14 1431.9
c56.3154 -21.1191 63.9844 -51.9326 60.501 -74.0615c-11.7344 -74.5557 -181.265 -168.885 -386.637 -234.881c-0.556641 -0.728516 -1.12695 -1.47754 -1.69043 -2.21289c-233.87 -306.008 -587.297 -768.458 -1214.94 -1018.93
c-151.063 -60.2861 -265.659 -82.6006 -352.499 -82.6074c-107.176 -0.00683594 -172.072 33.9736 -211.226 72.502c-80.8906 79.585 -92.3643 217.031 -31.4736 377.088c98.3955 258.658 375.898 529.456 715.907 546.562
c150.493 7.59863 240.92 -15.5674 275.188 -70.6533c17.4297 12.5586 36.7354 24.5889 57.7441 35.8975c97.9287 52.709 222.898 85.04 351.874 91.0449c95.4277 4.43848 205.613 23.1191 315.256 52.5654c45.2559 55.0098 78.1064 98.498 92.584 118.024
c4.58203 6.18066 13.2588 7.50977 19.5107 3.02637c6.38281 -4.5752 7.8252 -13.4395 3.17383 -19.7676c-11.9922 -16.3232 -35.4268 -47.6387 -67.4453 -87.751c10.4492 3.1123 20.8779 6.32031 31.2656 9.61816c148.081 193.728 246.972 320.546 342.901 284.539z" />
    <glyph glyph-name="K" unicode="K" horiz-adv-x="1051" 
d="M258.28 548.994c45.4844 -24.6455 96.2744 -37.3262 152.279 -37.8398c-39.1729 29.0391 -76.5557 55.3232 -110.912 78.3047c-13.8604 -13.4668 -27.6543 -26.96 -41.3672 -40.4648zM233.039 564.274c13.9668 13.7988 28.0137 27.584 42.1338 41.3369
c-79.2207 51.5146 -138.866 82.791 -160.88 85.3945c3.65527 -8.71191 16.2969 -29.9346 59.7305 -76.2949c18.4004 -19.6338 38.1064 -36.3838 59.0156 -50.4365zM2209 -299.396c7.67578 -0.428711 13.5605 -6.9502 13.2441 -14.6318
c-0.321289 -7.84277 -6.94238 -13.9092 -14.7793 -13.4795c-58.2412 3.19531 -287.681 18.2979 -544.3 68.7168c-399.244 78.4307 -670.805 200.351 -807.131 362.358c-118.382 140.683 -271.932 275.47 -409.296 380.365c-78.4619 -6.00391 -148.374 8.84863 -209.47 44.29
c-207.023 -205.378 -389.411 -409.423 -429.399 -525.146c-2.41797 -7 -9.74805 -10.9355 -16.9004 -9.01562c-7.83594 2.10352 -12.3906 10.3877 -9.71777 18.0469c42.001 120.384 224.339 325.843 431.329 531.872c-20.8086 14.5898 -40.5312 31.6982 -59.0791 51.4932
c-67.0742 71.5674 -72.165 94.3008 -67.6787 108.206c2.4873 7.72949 8.87012 13.1299 17.5059 14.8203c29.4531 5.78027 108.097 -36.959 192.841 -92.5039c268.857 260.187 552.738 503.146 614.149 555.305c5.93262 5.03809 14.7881 4.26562 19.8066 -1.68164
l0.0253906 -0.0302734c4.99316 -5.91504 4.26855 -14.75 -1.62402 -19.7705c-57.9131 -49.3447 -340.176 -291.541 -607.931 -550.067c35.1963 -23.7344 70.7256 -49.0508 103.593 -73.4844c10.2783 -7.63965 20.501 -15.3408 30.6895 -23.0977
c63.3369 6.16309 132.644 26.4102 207.742 60.7549c146.007 66.7646 310.899 184.871 490.083 351.035c229.433 212.737 531.674 210.157 601.367 206.401c8.05176 -0.43457 14.0391 -7.53125 13.1738 -15.5488c-0.800781 -7.42285 -7.2334 -12.9434 -14.6875 -12.5342
c-65.3242 3.58691 -358.688 6.92773 -580.714 -198.957c-181.396 -168.197 -348.782 -287.974 -497.517 -355.989c-66.8066 -30.5518 -129.408 -50.4414 -187.675 -59.6816c153.33 -119.804 293.318 -250.978 390.91 -366.954
c295.83 -351.56 1207.94 -414.191 1331.44 -421.091z" />
    <glyph glyph-name="L" unicode="L" horiz-adv-x="858" 
d="M150.893 184.49c42.4443 8.14844 87.1406 24.7832 133.487 48.2109c-39.5107 70.2686 -66.7646 141.053 -89.9102 201.14c-29.8652 77.5312 -53.458 138.779 -85.3906 153.145c-5.2832 2.37695 -10.9854 3.54492 -17.0176 3.54492
c-21.957 0 -48.3389 -15.458 -75.0088 -44.5332c-72.9004 -79.4756 -121.026 -228.203 -76.3281 -308.29c30.8545 -55.2783 103.549 -73.6768 210.168 -53.2168zM2150.75 294.408c6.62305 -5.14746 7.33496 -14.8486 1.55566 -20.9268
c-22.624 -23.79 -84.7246 -80.8223 -211.174 -145.247c-149.071 -75.9434 -420.646 -177.211 -867.913 -228.325c-55.4844 -6.34082 -107.341 -9.31543 -155.728 -9.32227c-348.081 -0.0136719 -519.624 153.97 -618.988 317.887
c-49.2324 -25.0557 -96.8984 -42.8975 -142.317 -51.6162c-151.214 -29.0547 -213.994 20.4863 -240.039 67.1357c-51.8701 92.9199 0.611328 254.302 80.1553 341.019c43.3584 47.2812 87.5273 64.1963 124.311 47.6387
c42.4922 -19.1201 66.6553 -81.8594 100.106 -168.699c22.7539 -59.0703 49.6514 -128.858 88.9014 -197.918c212.669 117.021 457.126 367.291 678.17 593.604c220.549 225.798 428.869 439.078 573.076 486.448c64.2441 21.085 109.375 16.3652 134.122 -14.0703
c77.9551 -95.7979 -95.9209 -419.663 -138.676 -495.825c-3.83398 -6.8291 -12.4785 -9.18262 -19.2676 -5.27734c-6.68945 3.84863 -9.04395 12.3164 -5.26562 19.0479c65.0029 115.824 199.689 392.648 141.384 464.296
c-16.6602 20.4736 -51.4854 22.1777 -103.514 5.0918c-137.666 -45.2197 -343.65 -256.103 -561.726 -479.379c-221.909 -227.192 -467.143 -478.272 -684.058 -598.028c109.944 -178.854 310.191 -343.938 746.157 -294.067
c755.252 86.3154 1014.35 316.021 1061.92 365.227c5.01855 5.19043 13.1035 5.73828 18.8037 1.30762z" />
    <glyph glyph-name="M" unicode="M" horiz-adv-x="2974" 
d="M3000.51 455.002c3.58594 -6.9209 0.901367 -15.417 -6.03027 -18.9805c-126.735 -65.1533 -1074.21 -546.627 -1393.14 -546.673c-14.3936 0 -27.4678 0.975586 -39.168 3.02246c-34.4473 6.01172 -56.8789 22.335 -66.6689 48.5244
c-43.6396 116.726 196.901 412.683 429.528 698.897c125.719 154.684 244.464 300.786 296.376 394.002c5.64746 10.1475 7.67383 16.1035 8.38184 19.2705c-17.4844 0 -85.8711 -24.8359 -351.675 -206.479c-190.574 -130.232 -424.472 -300.423 -650.675 -465.007
c-411.068 -299.097 -645.763 -468.318 -689.21 -468.318c-13.8232 0 -18.9209 8.51953 -20.4668 12.1816c-11.7754 27.8242 43.9902 89.6357 268.806 321.267c249.102 256.659 590.258 608.162 633.815 783.629c1.0166 4.08105 3.93652 17.6494 -1.00293 20.9746
c-14.7158 9.89355 -89.2168 5.83301 -463.797 -243.997c-244.78 -163.271 -539.775 -378.125 -800.048 -567.689c-396.984 -289.128 -552.877 -400.233 -588.094 -400.233c-0.412109 0 -0.803711 0.0136719 -1.18164 0.0478516
c-8.42969 0.672852 -14.915 5.3584 -17.3613 12.5449c-8.64258 25.4062 40.0879 72.6396 271.011 281.633c280.636 253.986 704.729 637.807 782.467 853.753c6.05273 16.8184 3.61426 32.9424 -7.46094 49.2939c-56.5283 83.4531 -349.882 203.429 -1426.4 301.09
c-593.374 53.8301 -1172.64 76.917 -1269.06 80.5254c-7.75098 0.290039 -13.7422 6.79492 -13.4727 14.5459v0c0.269531 7.78125 6.74316 13.8672 14.5254 13.5752c96.7158 -3.62402 676.491 -26.7344 1270.45 -80.6094c873.147 -79.207 1360.08 -184.631 1447.26 -313.338
c16.248 -23.9912 19.8271 -49.0947 10.6416 -74.6182c-80.1211 -222.555 -507.354 -609.213 -790.059 -865.075c-109.814 -99.3916 -214.572 -194.201 -250.222 -236.611c75.7168 40.5068 316.574 215.932 550.396 386.225c260.485 189.722 555.734 404.761 801.003 568.349
c379.547 253.155 463.268 265.392 495.111 243.936c9.88672 -6.65039 20.1025 -20.9131 12.6143 -51.0938c-45.3916 -182.845 -389.605 -537.494 -640.94 -796.455c-114.85 -118.326 -233.21 -240.287 -257.874 -282.478c70.8809 29.6035 383.828 257.305 661.998 459.702
c232.043 168.837 471.986 343.417 665.15 474.894c310.446 211.295 355.172 212.318 374.408 195.314c17.3203 -15.3408 1.50488 -43.7422 -4.45117 -54.4326c-53.1074 -95.373 -172.608 -242.403 -299.124 -398.062c-206.279 -253.801 -463 -569.668 -425.008 -671.3
c6.13477 -16.3994 20.8994 -26.4229 45.1514 -30.6621c258.792 -45.0479 1289.26 476.827 1414.62 540.99c6.89746 3.5293 15.3154 0.804688 18.8789 -6.07422z" />
    <glyph glyph-name="N" unicode="N" horiz-adv-x="2002" 
d="M2212.82 648.973c4.03613 -6.68457 1.89746 -15.3506 -4.80762 -19.3555c-120.524 -71.9912 -1004.1 -591.239 -1410.71 -591.278c-45.5293 0 -85.0469 6.50586 -116.877 20.8857c-38.6729 17.4639 -60.9668 43.5713 -66.2637 77.6064
c-20.7686 133.476 234.221 363.011 480.808 584.988c184.109 165.725 374.471 337.09 368.728 407.331c-4.30078 27.5977 -17.3613 35.4434 -26.835 38.9404c-62.0518 22.9395 -219.546 -60.6094 -468.091 -248.325c-218.467 -164.996 -473.037 -384.714 -677.585 -561.259
c-252.544 -217.979 -386.163 -332.046 -425.633 -339.013c-2.92676 -0.515625 -5.58594 -0.749023 -7.99707 -0.749023c-13.1289 0 -18.8652 6.85645 -21.2285 11.4385c-8.97266 17.375 -3.13281 47.5693 164.516 223.833c103.878 109.224 243.18 246.505 377.892 379.266
c102.367 100.883 199.06 196.173 276.315 275.222c143.444 146.783 171.118 229.385 151.222 255.526c-37.1953 48.8818 -257.277 1.61426 -763.348 -277.676c-442.616 -244.258 -797.279 -357.013 -1016.87 -408.588c-196.385 -46.1338 -320.587 -52.9922 -361.47 -53.9434
c-8.02832 -0.186523 -14.5859 6.33008 -14.4316 14.3594c0.144531 7.50684 6.14941 13.6045 13.6553 13.8125c87.6729 2.42578 598.827 35.9023 1365.51 458.995c322.833 178.159 723.562 369.653 799.341 270.076c50.3242 -66.1191 -74.5635 -211.473 -153.482 -292.226
c-77.4414 -79.248 -174.223 -174.628 -276.692 -275.606c-130.054 -128.172 -264.539 -260.706 -366.947 -367.807c-125.753 -131.504 -159.245 -179.63 -167.229 -197.204c41.6885 14.9844 220.033 168.919 408.491 331.579
c533.743 460.685 1025.06 869.726 1173.82 814.681c17.2236 -6.36914 38.9951 -22.2119 44.959 -61.5439l0.0957031 -0.810547c7.78418 -84.0576 -170.938 -244.945 -377.877 -431.232c-229.796 -206.856 -490.254 -441.317 -471.828 -559.74
c3.79199 -24.3828 20.1572 -42.8018 50.0361 -56.2949c299.522 -135.217 1375.46 494.078 1501.56 568.942c6.6543 3.95215 15.2422 1.79492 19.2471 -4.83105z" />
    <glyph glyph-name="O" unicode="O" horiz-adv-x="1317" 
d="M411.411 228.066c11.8379 -23.4004 29.3965 -40.7178 52.5146 -51.8818c105.204 43.9629 222.582 106.345 345.855 185.181c363.505 232.462 734.849 586.047 707.065 783.464c-7.95605 56.542 -50.7852 96.7607 -127.285 119.536
c-97.4473 29.0127 -205.832 18.2266 -316.958 -28.4297c16.2754 -6.19727 28.8135 -15.9258 37.7451 -29.1992c59.3594 -88.2295 -85.3213 -298.828 -126.206 -355.034c-4.62402 -6.35547 -13.5449 -7.64746 -19.8213 -2.91602
c-6.14551 4.63184 -7.40918 13.3154 -2.88477 19.541c56.4219 77.6631 168.892 258.299 125.561 322.701c-10.1543 15.0938 -29.9199 23.3105 -58.4453 24.5957c-118.931 -59.668 -239.73 -159.41 -352.554 -294.479c-214.854 -257.229 -331.07 -561.664 -264.587 -693.078z
M55.1455 126.534c70.3926 -45.3916 205.46 -30.2422 376.083 36.4268c-21.7988 15.334 -35.8623 34.4883 -44.9307 52.3994c-72.3643 143.032 42.8984 454.207 268.099 723.83c94.6855 113.353 198.536 205.53 302.889 269.204
c-9.98242 -2.05469 -20.4736 -4.54199 -31.459 -7.45508c-324.99 -86.2832 -899.852 -587.544 -947.613 -890.097c-12.8066 -81.1309 13.0732 -143.135 76.9326 -184.309zM1402.69 690.541c6.77734 -4.17773 8.79199 -13.0977 4.3916 -19.7344
c-23.3379 -35.1963 -97.585 -140.491 -218.027 -249.947c-133.784 -121.597 -351.592 -270.152 -629.438 -287.362c-39.7998 -2.45996 -71.2383 2.71289 -96.1016 12.3311c-109.869 -45.1514 -214.394 -73.7861 -299.255 -73.7861
c-48.9023 0 -91.2646 9.50879 -124.365 30.8477c-74.0752 47.7549 -104.181 119.198 -89.4785 212.338c23.3311 147.793 163.175 346.962 383.669 546.439c200.797 181.656 430.236 325.506 584.521 366.467c40.5068 10.7588 75.0508 15.9668 103.246 15.9736
c133.021 65.9824 259.331 81.8799 375.733 47.2334c88.001 -26.1963 137.501 -74.1709 147.126 -142.592c29.7344 -211.281 -339.583 -567.957 -719.77 -811.089c-101.206 -64.7178 -212.133 -126.413 -319.721 -174.024c15.9043 -2.55566 33.4648 -3.25 52.6465 -2.05469
c269.39 16.6875 481.303 161.23 611.646 279.543c117.186 106.363 191.336 211.227 214.046 245.227c4.21875 6.31738 12.6621 8.17578 19.1309 4.19043z" />
    <glyph glyph-name="P" unicode="P" horiz-adv-x="820" 
d="M1507.69 1188.61c27.0967 -34.709 26.4277 -83.4697 -1.91895 -140.994c-93.2021 -189.138 -490.172 -466.298 -1048.79 -466.298h-0.130859c-7.10352 0 -12.8369 5.82422 -12.7822 12.9297l0.0205078 2.52637c0.0546875 7.04785 5.8291 12.6816 12.8779 12.6797
c305.727 -0.103516 537.43 84.4434 678.672 155.851c164 82.917 296.156 195.857 344.887 294.748c16.207 32.8945 30.2295 78.8906 4.98145 111.235c-32.3242 41.4004 -118.8 49.3701 -243.488 22.4521c-381.271 -82.3193 -761.773 -504.957 -1039.61 -813.555
c-179.726 -199.636 -281.914 -309.731 -343.65 -309.731c-4.60352 0 -8.96582 0.611328 -13.1357 1.84082c-11.7002 3.45605 -19.3604 11.666 -21.5791 23.1123c-4.17676 21.6074 -16.9072 87.3623 533.552 606.637c276.418 260.754 567.16 515.098 608.904 548.144
c18.8242 14.9014 28.0303 30.7578 27.3643 47.123c-0.978516 23.9014 -22.3936 46.9717 -37.5566 59.6982c-5.5 4.61719 -6.66797 12.5752 -2.68359 18.5498c4.62402 6.93457 14.2422 8.39941 20.625 3.04297c17.165 -14.4014 46.2471 -43.9922 47.7275 -80.1436
c1.05762 -25.8662 -11.7275 -49.5273 -38.0127 -70.3369c-43.2002 -34.2002 -340.71 -294.617 -620.872 -559.596c-160.895 -152.169 -286.469 -277.854 -373.24 -373.557c-152.107 -167.751 -138.614 -193.899 -137.955 -194.943
c0.00683594 0 0.412109 -0.364258 1.69727 -0.742188c45.9756 -13.459 182.852 138.614 327.903 299.729c280.402 311.449 664.422 737.996 1054.58 822.239c174.058 37.5869 243.784 2.99512 271.602 -32.6406z" />
    <glyph glyph-name="Q" unicode="Q" horiz-adv-x="1237" 
d="M495.111 320.468c159.568 61.9834 335.545 167.559 509.253 307.644c240.02 193.556 437.127 422.514 502.161 583.277c19.7793 48.8887 36.3438 115.042 2.96777 152.567c-37.5459 42.2109 -132.143 44.0312 -273.595 5.25586
c-34.75 -9.53613 -69.9805 -22.2529 -105.362 -37.917c6.45117 -5.15234 11.8926 -11.2119 16.3447 -18.1924c55.3809 -86.8213 -83.1924 -280.794 -123.521 -333.948c-4.76465 -6.28027 -13.7441 -7.44434 -19.9346 -2.5625v0
c-6.00488 4.73438 -7.15918 13.4004 -2.53906 19.4932c54.5459 71.9746 162.577 238.712 122.263 301.89c-5.1875 8.12793 -13.0947 14.4141 -23.6133 18.8594c-152.169 -74.5625 -305.657 -202.356 -436.186 -365.642c-154.018 -192.677 -243.777 -399.176 -228.67 -526.09
c5.74316 -48.2432 25.9834 -83.1992 60.4307 -104.635zM392.311 286.083c23.166 6.47656 46.752 13.8926 70.8086 22.4678c-37.209 30.9434 -51.7529 74.3564 -56.377 113.229c-16.2002 136.079 73.7041 345.67 234.633 546.989
c123.473 154.457 267.501 277.943 412.278 356.037v0.000976562c-25.4062 0.341797 -56.8105 -3.8418 -93.7656 -12.5879c-142.592 -33.7471 -384.466 -199.952 -601.875 -413.576c-229.274 -225.289 -361.019 -434.248 -343.802 -545.326
c9.71484 -62.708 68.0635 -94.9297 173.446 -96.2988c42.0049 19.0479 85.6445 32.416 128.027 34.7061c26.292 1.40039 51.8076 -0.710938 76.626 -5.64062zM1532.61 1200.84c-66.6963 -164.879 -267.109 -398.289 -510.584 -594.634
c-166.59 -134.341 -335.653 -237.463 -491.23 -301.631c18.0684 -5.49609 38.6104 -8.6084 61.6191 -9.31641c407.619 -12.6094 743.681 402.62 799.573 475.708c4.61719 6.03809 13.1572 7.28516 19.3408 2.86426c6.45508 -4.61426 7.83984 -13.6553 3.02734 -19.9639
c-26.2207 -34.3799 -110.392 -139.667 -232.013 -242.465c-133.091 -112.493 -339.013 -244.546 -571.941 -244.56c-6.2793 0 -12.5381 0.0957031 -18.8516 0.288086c-41.3311 1.27148 -73.752 9.5293 -99.1104 22.3076
c-16.8359 -6.33496 -33.4277 -12.0381 -49.8818 -17.4072c121.621 -44.1992 225.259 -154.243 316.028 -259.539c121.47 -140.9 442.664 -362.859 662.382 -317.488c7.28223 1.50391 14.4346 -3.03516 16.3066 -10.2344v0
c2.03711 -7.83984 -2.95117 -15.7471 -10.8867 -17.3877c-22.1465 -4.57812 -45.0518 -6.71582 -68.4551 -6.72168c-231.527 -0.0136719 -513.441 209.09 -620.658 333.462c-98.1377 113.839 -211.854 233.515 -344.072 263.022
c-51.1631 -13.9492 -100.093 -22.8691 -146.052 -26.3203c-18.3984 -1.38086 -35.8486 -2.0752 -52.3301 -2.0752c-0.319336 0 -0.615234 0.0185547 -0.93457 0.0185547c-105.991 -49.8252 -202.677 -138.141 -232.896 -167.156
c-5.47168 -5.25488 -14.125 -5.1875 -19.5488 0.116211l-0.0449219 0.0419922c-5.66406 5.53809 -5.68164 14.623 0.00683594 20.1357c27.3027 26.4551 104.827 97.8203 197.17 150.078c-90.626 10.8623 -141.785 49.9443 -152.177 117.022
c-18.8584 121.699 112.693 334.677 351.888 569.708c220.762 216.922 467.96 386.061 615.114 420.893c62.7256 14.8467 110.7 17.4707 144.756 7.7627c43.7363 20.7412 87.3486 37.2021 130.302 48.9844c154.656 42.4102 256.268 37.7832 302.058 -13.6924
c34.502 -38.7891 35.21 -99.9619 2.0957 -181.821z" />
    <glyph glyph-name="R" unicode="R" horiz-adv-x="1454" 
d="M585.937 718.072c21.7236 -14.9355 44.2373 -31.3086 67.1289 -48.7314c179.32 3.0918 424.039 55.251 643.146 144.187c228.745 92.8447 361.087 274.707 326.592 375.28c-25.6602 74.79 -144.33 90.2617 -317.475 41.3525
c-215.596 -60.8838 -484.738 -285.061 -719.392 -512.088zM541.843 674.995c19.6562 -2.69336 40.9121 -4.43848 63.5156 -5.25586c-4.10156 2.98145 -8.16895 5.91504 -12.2295 8.81445c-9.70117 6.93164 -18.9756 13.4033 -27.8447 19.4492
c-7.8457 -7.66699 -15.6777 -15.3477 -23.4414 -23.0078zM507.896 680.966c11.04 10.9443 22.2383 21.9766 33.4707 32.9551c-11.1367 7.2207 -21.5381 13.6855 -31.2041 19.457c-13.9395 -13.7676 -27.7832 -27.501 -41.4688 -41.1455
c11.8584 -4.39648 24.9805 -8.14746 39.2021 -11.2666zM200.032 361.045c77.9502 83.3086 175.981 188.087 284.545 296.692c-13.5967 3.67578 -26.1484 7.96289 -37.5322 12.8682c-210.442 -210.848 -383.463 -400.811 -414.091 -481.742
c32.167 27.9961 98.0869 98.4502 167.078 172.182zM400.987 750.025c5.33789 -17.7188 18.8525 -32.8662 40.2256 -45.1436c13.9951 13.9668 28.4775 28.3398 43.3721 43.0625c-40.7754 22.0332 -65.2334 29.041 -77.3115 29.041
c-3.3457 0 -5.73633 -0.536133 -7.26855 -1.43652c-2.83789 -1.66992 -3.63477 -10.21 0.982422 -25.5234zM2453.37 -143.021c7.71875 0.397461 14.3184 -5.44629 14.7783 -13.1611c0.459961 -7.79785 -5.50684 -14.5322 -13.3076 -14.9355
c-31.5928 -1.63184 -63.3955 -2.44336 -95.2803 -2.44336c-282.059 -0.00683594 -574.36 63.4121 -852.091 185.545c-237.059 104.242 -461.6 252.015 -600.667 395.294c-78.4102 80.7871 -173.515 165.133 -262.855 233.608
c-47.0479 -0.158203 -89.9111 2.86426 -126.853 9.58984c-113.27 -112.803 -215.753 -222.335 -296.52 -308.66c-168.5 -180.076 -190.052 -199.773 -209.604 -192.052c-6.87695 2.71387 -10.9785 9.27539 -10.9785 17.5605c0 24.8701 0 94.9814 420.734 517.062
c-24.1279 15.3623 -39.7988 34.6475 -46.6895 57.5186c-10.793 35.8281 0.405273 51.2588 11.7002 57.9023c21.5654 12.6689 64.9307 -1.0166 119.707 -31.3008c28.6562 28.1885 58.9609 57.751 90.9629 88.7012c261.881 253.328 526.822 492.659 582.069 542.362
c5.78125 5.20312 14.6572 4.68848 19.8447 -1.1084c5.17676 -5.78125 4.69922 -14.6562 -1.0752 -19.8369c-157.95 -141.67 -426.481 -388.909 -666.388 -624.85c10.1201 -6.11426 20.5557 -12.7031 31.2188 -19.6904c238.227 230.82 513.366 460.396 735.592 523.156
c272.694 77.0156 336.828 -15.8223 351.743 -59.3037c38.6523 -112.692 -92.5557 -308.989 -342.626 -410.49c-210.938 -85.6172 -440.088 -137.075 -618.652 -145.381c84.5039 -67.0674 171.035 -145.306 238.872 -215.197
c242.035 -249.361 846.597 -604.876 1526.36 -569.891z" />
    <glyph glyph-name="S" unicode="S" horiz-adv-x="1358" 
d="M1526.22 1231.69c3.51758 22.3691 -1.16211 39.9805 -14.3047 53.8408c-22.3008 23.5137 -42.5332 35.1377 -61.3711 35.1377c-5.72266 0 -11.3154 -1.0752 -16.7979 -3.21484c-67.1846 -26.2168 -115.908 -200.979 -144.008 -384.222
c132.672 118.265 224.892 224.65 236.481 298.458zM1233.68 620.047c0.65918 44.877 5.85938 138.498 18.5215 244.107c-133.956 -114.197 -297.427 -235.32 -458.851 -347.36c17.9385 -75.4883 4.78223 -143.064 -2.83984 -171.914
c-2.10938 -7.98242 -10.5459 -12.4512 -18.3369 -9.71387c-6.92188 2.43359 -10.8174 9.72754 -8.98633 16.835c6.31055 24.5078 17.5947 82.3701 4.95703 147.363c-184.728 -127.326 -364.543 -241.564 -491.732 -318.519
c28.2988 -24.3486 61.833 -45.3164 100.877 -61.585c157.074 -65.4395 356.332 -31.3564 546.673 93.5244c177.706 116.588 307.966 287.87 309.718 407.262zM174.014 576.675c-41.1387 -119.913 -20.6865 -272.028 80.9385 -375.714
c128.364 77.668 314.912 196.242 505.815 327.973c-4.72656 15.3828 -10.9648 30.9443 -19.0713 46.3477c-42.5479 80.8496 -125.609 138.614 -246.89 171.688c-30.3594 8.27832 -58.6104 12.0566 -84.7588 12.0566c-126.186 0 -203.641 -87.9531 -236.034 -182.351z
M1532.33 1304.89c19.2852 -20.333 26.583 -46.4307 21.6914 -77.5732c-13.1768 -83.8652 -119.975 -204.328 -270.337 -335.976c-13.3555 -98.3545 -20.748 -196.077 -21.8613 -271.712c-1.88281 -128.041 -137.481 -309.045 -322.422 -430.381
c-198.269 -130.088 -407.11 -165.058 -572.938 -95.9639c-47.2197 19.6768 -85.0059 44.9043 -115.235 72.3994c-46.6699 -27.9551 -84.8965 -50.0225 -111.801 -64.7246c-56.4941 -30.8887 -117.866 -46.333 -182.289 -46.333c-63.1172 0 -129.154 14.8262 -196.4 44.4854
c-79.0391 34.8623 -137.591 80.0488 -161.066 99.6611c-6.2002 5.17969 -6.81836 14.4648 -1.34277 20.4053c5.07031 5.5 13.5518 6.11621 19.3154 1.35059c50.7988 -41.9824 284.401 -217.253 508.289 -94.877c24.8975 13.6104 60.5957 34.2422 104.482 60.5273
c-38.9951 41.5791 -62.7666 86.2842 -77.2012 123.83c-33.7334 87.7334 -35.8564 188.259 -5.81934 275.8c54.3369 158.353 193.576 232.29 354.814 188.307c129.264 -35.2578 218.274 -97.8525 264.553 -186.053c7.41309 -14.1318 13.418 -28.3125 18.2275 -42.3623
c168.095 116.76 337.763 242.753 472.399 359.142c25.7227 190.375 75.7725 403.565 166.123 438.827c34.8799 13.627 71.5049 0.573242 108.817 -38.7793z" />
    <glyph glyph-name="T" unicode="T" horiz-adv-x="1088" 
d="M1771.91 1272.14c0.679688 5.67871 1.04492 15.6484 -4.14258 18.6475c-2.82324 1.63184 -30.9229 13.6992 -139.769 -67.6035c-54.7764 -40.9121 -108.79 -96.0459 -165.133 -160.695c46.5322 -2.39062 87.4854 -0.294922 121.081 9.5918
c92.2061 27.1172 181.038 142.174 187.963 200.06zM1781.85 1315.15c8.22363 -4.75391 21.499 -17.0947 18.002 -46.3516c-7.92871 -66.2705 -100.801 -192.195 -207.963 -223.716c-42.2793 -12.4355 -93.6689 -13.7061 -151.99 -9.30176
c-36.6523 -43.1455 -74.4316 -89.9521 -114.183 -139.198c-216.701 -268.476 -486.386 -602.604 -938.765 -797.148c-108.076 -46.4844 -211.123 -69.6924 -303.081 -69.6992c-96.1836 0 -180.248 25.3721 -245.398 76.0537
c-89.0664 69.2861 -131.325 179.307 -113.051 294.314c24.7295 155.639 153.615 291.025 345.883 364.255c7.32324 2.78906 15.5332 -1.07031 18.1885 -8.44434c2.61035 -7.25098 -1.14453 -15.1768 -8.34473 -17.9219
c-182.632 -69.5996 -304.823 -196.807 -327.938 -342.307c-16.6396 -104.724 21.6895 -204.796 102.539 -267.687c119.109 -92.6455 308.66 -93.6416 520.085 -2.7207c445.969 191.797 713.235 522.916 927.985 788.98c35.2783 43.709 69.0254 85.5215 101.872 124.641
c-43.2754 4.53418 -89.835 11.4043 -138.902 18.6455c-172.285 25.4268 -367.565 54.2471 -554.684 5.01465c-291.941 -76.8271 -471.764 -420.285 -505.524 -489.848c-3.31152 -6.82617 -11.4463 -9.7793 -18.3887 -6.71289
c-7.2793 3.2168 -10.4775 11.7715 -7.05273 18.958c35.207 73.8906 216.413 423.926 523.806 504.821c192.662 50.6816 390.979 21.4346 565.95 -4.39746c56.1982 -8.29199 109.044 -16.0898 156.943 -20.377c62.4717 72.8457 122.105 135.001 183.312 180.729
c85.3564 63.7559 141.185 86.4863 170.699 69.417z" />
    <glyph glyph-name="U" unicode="U" horiz-adv-x="1503" 
d="M1273.94 547.336c-2.5166 7.45703 1.5957 15.502 9.08398 17.9258c110.327 35.7158 170.938 36.1074 190.307 1.41309c40.2119 -72.0273 -149.421 -237.696 -208.498 -286.757c-151.599 -125.891 -338.834 -237.622 -452.523 -237.622
c-27.4746 0 -50.6553 6.51953 -68.0029 20.9541c-16.2891 13.5479 -24.7734 32.7021 -25.2197 56.9062c-2.91309 158.902 369.173 550.301 641.757 815.362c-132.96 -105.672 -297.173 -233.871 -464.457 -358.731c-228.017 -170.183 -417.141 -301.02 -562.124 -388.89
c-250.957 -152.08 -318.498 -144.522 -347.518 -125.622l-1.61426 1.23633c-23.7227 20.9062 -35.6357 47.0205 -35.4092 77.6133c0.975586 132.314 232.331 330.274 477.27 539.858c202.48 173.247 411.852 352.396 460.967 476.638
c3.75098 9.48828 7.01465 21.8613 1.23633 26.9111c-18.7285 16.3926 -126.406 22.1709 -719.77 -277.798c-358.435 -181.203 -758.854 -405.27 -951.282 -512.947c-41.7744 -23.376 -70.0967 -39.2256 -89.5029 -49.9766
c-8.68945 -4.81348 -19.4551 0.661133 -20.7471 10.5107v0c-0.751953 5.73633 2.04004 11.3252 7.10156 14.1279c22.7461 12.5957 54.0869 30.1299 89.4072 49.8916c192.594 107.773 593.363 332.039 952.327 513.51c604.418 305.562 718.079 302.635 750.994 273.862
c10.0029 -8.74609 19.2363 -25.9902 6.40918 -58.4385c-51.6914 -130.734 -254.315 -304.112 -468.846 -487.679c-229.363 -196.256 -466.545 -399.196 -467.424 -518.684c-0.165039 -22.0264 8.03125 -40.2119 25.0488 -55.5527
c20.6934 -12.3389 89.3408 -11.2256 316.739 126.592c144.2 87.3896 332.555 217.705 559.83 387.339c387.331 289.087 758.126 596.098 761.829 599.169l18.3711 -21.3115c-9.17188 -8.2168 -916.719 -824.025 -912.459 -1056.47
c0.295898 -15.8838 5.22852 -27.5908 15.0869 -35.7939c72.5635 -60.3486 303.81 66.5928 484.545 216.688c151.888 126.131 217.389 223.661 201.903 251.39c-2.92188 5.25195 -24.0537 28.501 -157.143 -14.5029c-7.31738 -2.36426 -15.2148 1.5957 -17.6738 8.88184v0z
" />
    <glyph glyph-name="V" unicode="V" horiz-adv-x="464" 
d="M1421.86 1439.08c7.99316 -0.47168 13.7158 -7.90918 12.0088 -15.7334l-0.470703 -2.14551c-1.39844 -6.39844 -7.33398 -10.502 -13.874 -10.123c-67.1641 3.89648 -184.57 -72.7305 -349.439 -228.112c-158.6 -149.49 -339.542 -349.834 -514.527 -543.589
c-331.105 -366.617 -542.854 -595.349 -641.586 -595.349c-3.47656 0 -6.81543 0.28125 -10.0166 0.851562c-12.1533 2.17773 -28.5938 9.66602 -37.9307 32.9971c-46.6904 116.726 94.9814 307.148 244.973 508.749c137.858 185.298 280.409 376.896 256.103 492.508
c-6.70508 31.9053 -25.9346 56.4873 -58.7812 75.1465c-180.351 102.497 -514.025 3.86816 -693.346 -98.8838c-66.7725 -38.2607 -84.5391 -61.9697 -86.1875 -68.7646c2.43848 -1.45605 12.208 -5.53711 43.1582 -3.07715
c236.869 18.9844 515.929 -80.3232 580.454 -104.826c7.37891 -2.80176 10.9717 -11.0996 8.02734 -18.4219c-2.8584 -7.10059 -10.8213 -10.6455 -17.9873 -7.95801c-62.3613 23.3955 -340.105 121.444 -568.256 103.162
c-26.1553 -2.11621 -62.0664 -2.30859 -71.6025 19.9443c-9.72168 22.6924 17.0586 46.6279 25.8594 54.4941c98.918 88.3994 550.493 287.021 793.782 148.803c39.7031 -22.5615 64.0723 -54.1299 72.4131 -93.8262c26.918 -128.021 -119.48 -324.799 -261.062 -515.098
c-138.766 -186.521 -282.258 -379.39 -241.414 -481.495c4.86426 -12.1738 11.5078 -14.8125 16.75 -15.7539c83.4326 -14.9219 359.102 290.386 625.764 585.655c351.386 389.07 714.32 791.042 887.189 780.846z" />
    <glyph glyph-name="W" unicode="W" horiz-adv-x="1440" 
d="M2529.21 1192.1c7.47461 -2.96973 11.0244 -11.5254 7.75098 -18.8701c-3.0293 -6.7959 -10.875 -10.1738 -17.79 -7.42773c-374.607 148.743 -983.209 -427.146 -1387.42 -809.613c-239.099 -226.237 -376.648 -353.042 -446.024 -353.062
c-6.93848 0 -13.1768 1.26367 -18.79 3.82617c-12.751 5.82617 -20.8994 16.1797 -23.5586 29.9404c-17.9658 93.1191 242.548 375.404 584.982 734.753c140.462 147.401 297.97 312.689 326.982 364.962c-44.5742 -19.6211 -209.351 -126.076 -805.27 -603.346
c-375.858 -301.021 -743.534 -605.724 -747.203 -608.768l-18.7695 20.9404c8.95898 8.67676 896.177 870.88 930.329 1139.57c2.97461 23.3584 -6.45801 33.1387 -13.8096 38.46c-128.849 93.3164 -949.182 -261.532 -1271.46 -413.944
c-7.00098 -3.31055 -15.3447 -0.316406 -18.6738 6.6748c-3.3457 7.0332 -0.374023 15.4297 6.6748 18.7402c58.5996 27.5137 310.422 144.492 575.126 248.742c413.761 162.956 650.833 216.132 724.833 162.582c13.9814 -10.1201 29.7002 -29.5801 25.2275 -64.8076
c-25.0283 -196.878 -465.604 -675.625 -734.541 -951.782c142.605 116.891 337.062 275.374 533.042 432.256c771.585 617.646 813.686 609.729 831.747 606.342c5.69531 -1.06836 10.3057 -4.30078 12.9785 -9.09961c16.5645 -29.7793 -52.7217 -108.777 -336.848 -406.943
c-133.187 -139.762 -284.14 -298.176 -397.836 -431.493c-157.466 -184.645 -184.733 -253.368 -179.883 -278.514c0.93457 -4.82324 3.13965 -7.62598 7.61914 -9.67285c13.582 -6.2041 50.1318 3.12598 147.223 82.6904c77.0635 63.1582 174.141 155.021 286.559 261.386
c209.433 198.173 470.09 444.809 724.248 618.578c293.617 200.756 520.397 265.293 692.556 196.898z" />
    <glyph glyph-name="X" unicode="X" horiz-adv-x="1325" 
d="M1381.22 683.268c173.907 265.006 260.609 503.907 206.163 568.048c-28.9033 34.0488 -98.3545 13.084 -151.51 -10.5088c-169.97 -75.4248 -426.532 -258.304 -708.096 -474.181c-49.2393 -253.636 -63.2275 -518.883 101.452 -568.837
c133.578 -40.5762 379.877 223.221 551.99 485.479zM411.53 873.74c63.8242 -4.04004 225.969 116.842 370.065 238.377c16.2617 61.873 29.9062 114.836 35.5264 148.552c1.5459 9.28906 2.97461 25.3789 -4.87793 28.7725
c-2.38379 1.02734 -5.2832 1.5293 -8.62891 1.5293c-56.9473 0 -247.569 -144.228 -356.483 -287.369c-53.7529 -70.6328 -61.4473 -110.034 -50.7295 -123.355c2.0127 -2.50098 5.77051 -5.89453 15.1279 -6.50586zM1608.84 1269.53
c74.3223 -87.5508 -48.9512 -365.294 -204.096 -601.699c-183.614 -279.805 -435.292 -541.987 -583.689 -496.974c-179.293 54.3916 -174.738 311.408 -127.348 569.586c-134.046 -103.273 -273.169 -213.294 -410.787 -322.119
c-530.397 -419.429 -869.582 -680.491 -989.558 -680.498c-6.37598 0 -12.1328 0.735352 -17.2646 2.22656c-7.42285 2.15527 -13.7402 5.78906 -18.7998 10.7559c-7.2959 7.16602 -4.09082 19.6445 5.56152 23.0254c4.99512 1.74902 10.4951 0.498047 14.3457 -3.12988
c1.75195 -1.64941 3.9541 -2.81348 6.74023 -3.62207c41.002 -11.9473 158.524 51.0869 349.332 187.173c177.514 126.599 398.365 301.24 632.188 486.146c146.329 115.709 294.294 232.724 436.24 341.686c19.876 99.2754 44.9932 197.163 67.2666 282.038
c-135.316 -112.178 -288.681 -223.188 -359.279 -218.461c-15.1074 0.989258 -26.9521 6.69141 -35.2031 16.9414c-23.8809 29.666 -6.97363 82.8418 50.249 158.044c103.137 135.543 327.485 325.393 398.668 294.628c13.3418 -5.76367 27.8926 -20.7168 21.4756 -59.2275
c-4.61035 -27.6523 -13.8301 -65.5244 -25.8604 -112.022c67.043 57.7559 127.659 113.111 169.204 152.42c5.62695 5.32324 14.4551 5.06445 19.8066 -0.538086c5.37988 -5.63574 5.17676 -14.5566 -0.484375 -19.9121
c-30.5283 -28.8848 -105.466 -98.8213 -193.687 -174.104c-2.89941 -4.59766 -7.14844 -11.335 -10.0508 -15.9326c-20.71 -78.6875 -46.3633 -176.109 -67.5752 -277.436c273.017 208.457 521.081 383.834 688.221 458.009c90.083 39.9678 152.128 40.9883 184.384 2.99609
z" />
    <glyph glyph-name="Y" unicode="Y" horiz-adv-x="1122" 
d="M-259.489 -1373.82c253.196 207.922 629.906 804.94 952.313 1367.81c-393.02 -114.451 -906.53 -316.45 -1257.3 -650.193c-372.643 -354.554 -414.098 -655.018 -289.87 -795.508c104.524 -118.203 342.414 -129.422 594.854 77.8877zM1550.45 184.001
c0.769531 -7.65137 -4.72266 -14.5078 -12.3623 -15.3867c-68.9912 -7.93262 -388.946 -48.3369 -774.976 -154.711c-10.1611 -2.7959 -20.4463 -5.66797 -30.8066 -8.58789c-428.388 -750.665 -756.003 -1221.92 -973.941 -1400.89
c-120.58 -99.0137 -247.109 -156.923 -365.917 -167.455c-12.916 -1.14746 -25.6328 -1.71094 -38.082 -1.71777c-94.7686 0 -175.384 32.8604 -229.796 94.3906c-71.6914 81.0762 -89.0527 201.43 -48.8965 338.89c45.4609 155.604 163.183 326.997 340.442 495.655
c363.155 345.519 897.201 550.994 1296.74 664.861c263.076 461.324 486.984 893.662 572.925 1061.88c-89.8906 -85.71 -268.991 -254.285 -454.227 -416.135c-154.045 -134.595 -282.203 -238.336 -380.908 -308.337
c-171.138 -121.377 -220.679 -118.595 -244.697 -102.573c-12.71 8.47754 -20.3906 20.9404 -22.2109 36.0547c-8.4502 70.248 115.235 204.815 258.46 360.633c144.626 157.35 308.55 335.694 334.712 451.781c6.95312 30.8408 -6.49902 40.7783 -18.9961 45.9893
c-66.167 27.6045 -269.334 -28.7314 -530.267 -146.976c-229.144 -103.837 -433.994 -224.863 -466.354 -275.518c-11.1094 -17.3887 -8.16895 -26.6289 -4.98145 -32.0635c26.959 -46.0674 211.467 -54.4736 330.848 -49.0264
c7.68457 0.350586 14.1738 -5.56641 14.6104 -13.2461c0.443359 -7.82129 -5.56445 -14.5049 -13.3936 -14.8447c-67.8262 -2.94824 -314.51 -8.59766 -356.35 62.9033c-7.35156 12.5518 -12.3535 33.4033 5.55078 61.4336c40.4043 63.2402 276.673 194.552 478.452 285.995
c130.549 59.1602 445.805 191.914 552.713 147.315c31.3838 -13.084 44.0322 -40.8398 35.623 -78.1484c-27.8105 -123.414 -187.256 -296.881 -341.452 -464.632c-126.907 -138.078 -258.136 -280.849 -251.231 -338.236c0.851562 -7.07617 3.89551 -12.0088 9.87988 -16
c10.6836 -7.10352 52.7432 -11.4111 212.807 102.113c97.9424 69.4512 225.345 172.602 378.668 306.571c261.399 228.395 510.535 470.196 513.022 472.611c11.3672 11.0459 29.4805 -2.21777 22.3838 -16.3887c-2.63867 -5.27246 -267.762 -533.739 -594.374 -1108.68
c-0.645508 -1.13379 -1.3252 -2.3291 -1.9707 -3.46289c1.33984 0.371094 2.7002 0.742188 4.02637 1.10645c387.386 106.708 708.697 147.344 778.746 155.407c7.80469 0.898438 14.792 -4.76074 15.5791 -12.5742z" />
    <glyph glyph-name="Z" unicode="Z" horiz-adv-x="1280" 
d="M1219.63 387.244c5.85352 4.9707 14.54 4.54492 19.6855 -1.15332c5.36523 -5.93848 4.66406 -15.0869 -1.44336 -20.2568c-105.084 -88.9385 -288.228 -165.736 -505.974 -211.774c-213.939 -45.2266 -439.277 -55.7793 -602.796 -28.25
c-326.158 54.9482 -548.934 -43.667 -551.152 -44.6631l-13.665 24.4854l1671.75 1126.2c-196.75 -67.7266 -392.979 -51.375 -597.836 -34.3164c-79.1934 6.5957 -161.08 13.4141 -243.221 15.042c-176.819 3.45215 -263.233 -39.6211 -304.503 -76.418
c-30.1162 -26.8506 -41.002 -53.7246 -44.8936 -68.2793c-1.71777 -6.42969 -7.81152 -10.6621 -14.4512 -10.2393c-8.7832 0.558594 -15.0215 8.95312 -12.792 17.4648c12.0811 46.1445 72.9482 171.514 377.204 165.605
c83.0273 -1.6416 165.367 -8.50195 244.993 -15.1318c264.677 -22.043 514.672 -42.874 767.133 121.892l15.5479 -23.4512l-1759.22 -1185.13c97.4756 24.8701 262.279 49.6514 469.788 14.7021c311.03 -52.4141 858.208 40.3018 1085.85 233.679z" />
    <glyph glyph-name="bracketleft" unicode="[" 
d="M-47.1592 0c-10.04 0 -20.3799 0.339844 -30.8525 1.1377c-6.66895 0.507812 -12.541 4.53809 -15.4346 10.5674c-7.27832 15.1689 -20.8389 43.3994 316.052 559.805c164.46 252.097 334.509 500.284 336.209 502.765l0.714844 0.955078
c21.4609 26.2236 101.827 15.9463 147.383 7.5957c7.74902 -1.41992 12.7852 -8.94824 11.2129 -16.668v0c-1.52441 -7.48438 -8.74219 -12.3955 -16.2607 -11.0469c-56.7891 10.1836 -111.7 11.585 -120.286 2.60742c-9.625 -14.0566 -170.402 -249.006 -328.257 -490.633
c-264.498 -404.878 -313.898 -511.051 -320.123 -538.456c45.4053 -2.26953 87.8145 4.15918 108.431 8.03906c7.375 1.3877 14.5156 -3.21875 16.2891 -10.5107v0c1.9082 -7.8457 -3.1123 -15.6611 -11.0449 -17.166
c-18.8311 -3.57227 -53.9941 -8.99121 -94.0322 -8.99121z" />
    <glyph glyph-name="backslash" unicode="\" horiz-adv-x="651" 
d="M572.233 9.62109l-568.672 1102.95c-3.56152 6.90723 -0.849609 15.3936 6.05762 18.9561v0c6.9082 3.56348 15.3975 0.850586 18.96 -6.05859l568.672 -1102.95c3.56152 -6.90723 0.849609 -15.3936 -6.05762 -18.9561v0
c-6.9082 -3.56348 -15.3975 -0.850586 -18.96 6.05859z" />
    <glyph glyph-name="bracketright" unicode="]" horiz-adv-x="535" 
d="M-92.3691 0c-29.2695 0 -53.0869 6.39062 -67.4189 11.4863c-8.03418 2.85645 -11.6416 12.1562 -7.73047 19.7334v0c3.23828 6.27246 10.5645 9.15918 17.2246 6.81934c18.333 -6.44043 56.9873 -16.0986 101.709 -4.18359
c21.1738 8.52637 124.561 146.88 350.327 509.341c158.683 254.756 297.585 491.821 310.759 522.655c-11.8398 5.92969 -58.0469 4.0957 -106.604 -4.12598c-7.53613 -1.27637 -14.7148 3.70312 -16.1611 11.209v0c-1.49121 7.73828 3.60938 15.2031 11.376 16.542
c41.5391 7.16309 113.231 15.8066 133.412 -5.26855c5.97754 -6.23828 8.12793 -14.4688 6.05664 -23.166c-5.79199 -24.3203 -177.194 -311.579 -315.249 -533.2c-316.296 -507.76 -354.216 -517.859 -366.675 -521.178
c-18.1514 -4.83691 -35.3721 -6.66406 -51.0264 -6.66406z" />
    <glyph glyph-name="underscore" unicode="_" horiz-adv-x="901" 
d="M837.182 0h-823.111c-7.77051 0 -14.0703 6.2998 -14.0703 14.0703v0c0 7.77051 6.2998 14.0703 14.0703 14.0703h823.111c7.77051 0 14.0703 -6.2998 14.0703 -14.0703v0c0 -7.77051 -6.2998 -14.0703 -14.0703 -14.0703z" />
    <glyph glyph-name="a" unicode="a" horiz-adv-x="448" 
d="M493.251 465.026l0.00195312 0.000976562c0 -3.96191 -1.66504 -7.73633 -4.60059 -10.3975c-77.4492 -70.208 -268.887 -239.305 -318.39 -241.458c-0.501953 -0.0205078 -1 -0.0341797 -1.49121 -0.0341797c-9.45996 0 -17.251 4.00488 -22.0537 11.3799
c-16.6367 25.5371 8.24414 86.2285 66.6758 204.314c1.74121 3.51758 3.44824 6.9668 5.10059 10.3125c-11.0713 -9.74219 -23.3447 -20.7793 -35.0068 -31.2666c-117.299 -105.489 -218.553 -192.055 -269.619 -182.77c-17.0586 3.10156 -28.0508 13.6338 -30.9502 29.6553
c-11.4873 63.4434 124.012 221.391 186.896 258.916c54.7568 32.6768 92.2412 23.3086 111.483 13.0693c8.49414 -4.51953 9.73242 -16.2822 2.50098 -22.7578c-4.40625 -3.94531 -11 -4.43066 -16.2695 -1.74414c-12.7471 6.49805 -40.0801 13.0576 -83.2949 -12.7305
c-63.5049 -37.8965 -181.502 -186.226 -173.625 -229.742c0.55957 -3.09473 1.56934 -5.75684 8.29492 -6.97949c41.6133 -7.57422 174.426 111.852 245.767 176.006c72.5254 65.2227 81.8516 73.6045 95.3203 64.3262c2.41504 -1.66309 9.90723 -8.10352 4.86816 -21.2012
c-4.38672 -11.4043 -14.0293 -30.8955 -26.2412 -55.5732c-20.7754 -41.9805 -75.1191 -151.812 -68.8398 -175.013c35.4229 3.52441 184.235 127.544 298.213 232.463l1.72949 1.58398c9.01172 8.25 23.5312 1.85742 23.5312 -10.3604z" />
    <glyph glyph-name="b" unicode="b" horiz-adv-x="392" 
d="M436.629 935.888c-27.708 -12.0332 -121.104 -114.32 -252.849 -292.954c130.565 132.331 241.187 256.302 252.849 292.954zM305.886 534.426c-61.0869 0 -238.156 -126.227 -334.738 -286.066c73.749 13.0059 207.97 55.6973 288.671 129.123
c49.0879 44.6631 70.417 93.4277 63.3955 144.938c-1.19922 7.33398 -4.51758 10.5938 -12.1953 11.6689c-1.60449 0.223633 -3.32227 0.336914 -5.13281 0.336914zM-63.8467 198.507l-3.7998 0.12793c-8.98926 0.308594 -14.5742 9.81738 -10.5986 17.8857
c0.0117188 0.0234375 0.0224609 0.0458984 0.0332031 0.0673828c-1.92676 0.226562 -3.67871 0.525391 -5.25586 0.896484c-8.27832 1.9375 -16.5264 9.57422 -14.8467 25.1973c6.11133 56.8613 155.446 274.501 242.719 394.136
c63.917 87.6162 126.299 167.312 175.654 224.407c89.4443 103.477 110.896 103.813 120.055 103.958c16.2822 0.154297 22.1113 -9.57031 23.8594 -13.8125c5.59961 -13.5752 16.0283 -38.8477 -182.113 -247.343c-90.0449 -94.751 -183.439 -185.256 -193.845 -195.313
c-93.7959 -136.186 -151.08 -235.32 -157.789 -264.611c1.82031 -0.0478516 3.83691 -0.0371094 6.04199 0.0419922c95.0225 169.057 296.729 329.268 378.661 317.814c19.7451 -2.77246 32.9082 -15.668 36.1133 -35.3818
c8.40234 -61.5918 -15.9355 -118.639 -72.2852 -169.908c-90.1963 -82.0654 -247.134 -131.16 -325.125 -139.411c-2.04102 -3.91309 -4.03027 -7.8418 -5.96387 -11.7852c-2.15137 -4.3877 -6.63086 -7.13379 -11.5146 -6.96582z" />
    <glyph glyph-name="c" unicode="c" horiz-adv-x="352" 
d="M397.333 465.396c0.000976562 -0.114258 0.000976562 -0.227539 0.00195312 -0.338867c0.0253906 -4.00195 -1.6377 -7.79297 -4.5918 -10.4922c-76.3574 -69.7676 -276.197 -242.415 -392.276 -250.389c-1.71387 -0.120117 -3.4248 -0.178711 -5.125 -0.178711
c-30.1162 0 -58.3115 18.168 -71.2725 46.4395c-24.0703 52.4883 -9.64941 111.645 41.6992 171.068c73.1885 84.6963 208.344 152.949 251.974 140.205c17.251 -5.03906 23.4893 -16.165 25.6875 -24.6084c8.82031 -33.8906 -36.791 -88.9551 -59.6475 -113.878
c-5.4209 -5.91113 -14.6387 -6.16113 -20.3535 -0.53418l-0.251953 0.248047c-5.2373 5.15723 -5.44531 13.5146 -0.469727 18.9248c30.1396 32.7705 57.4287 73.0332 53.4893 88.1523c-0.257812 0.996094 -0.796875 3.06445 -6.34766 4.68945
c-23.8809 6.97363 -148.724 -45.8857 -222.785 -131.596c-44.2373 -51.1934 -56.8232 -98.6123 -37.415 -140.943c8.8457 -19.2949 28.5361 -31.2393 48.8896 -29.917c101.025 6.94141 290.137 167.075 375.193 243.644c9.08301 8.17676 23.5244 1.72559 23.6016 -10.4961z
" />
    <glyph glyph-name="d" unicode="d" horiz-adv-x="624" 
d="M-94.5156 251.132c40.8398 11.7686 183.052 105.44 371.313 254.92c-1.49121 10.2471 -7.06348 16.1143 -17.7676 19.127c-9.96875 2.80273 -20.9375 4.17383 -32.6611 4.17383c-103.864 0 -267.129 -107.509 -320.885 -278.221zM705.795 921.499
c-33.6543 -17.0449 -131.885 -118.478 -227.453 -247.35c129.236 114.009 214.713 204.486 225.97 241.792c0.652344 2.16406 1.12988 4.00488 1.4834 5.55762zM661.92 465.338l0.000976562 0.000976562c0 -4.14355 -1.80078 -8.06152 -4.96973 -10.7324
c-33.666 -28.3721 -87.3496 -72.4053 -143.9 -113.956c-175.089 -128.652 -225.551 -123.496 -248.264 -108.423c-23.4795 15.5752 -25.6025 50.8467 -6.48926 107.828c20.7168 61.7812 53.2578 126.289 88.5088 186.143
c-7.4541 -6.06348 -14.877 -12.0645 -22.2793 -18.0205c-6.49902 -5.23145 -12.9883 -10.4287 -19.4668 -15.5947c-0.364258 -4.37988 -1.05469 -9.07227 -2.1123 -14.0947c-13.0605 -61.873 -75.71 -143.478 -102.037 -175.688
c-19.6523 -24.042 -84.7656 -100.879 -113.841 -100.886c-0.72168 0 -1.41895 0.0478516 -2.0957 0.143555c-8.50879 1.21582 -14.9189 6.21387 -17.5918 13.7197c-7.79102 21.8633 27.8594 68.9307 62.9492 108.208c5.23926 5.86523 14.2646 6.28223 20.0488 0.954102v0
c5.63867 -5.19434 6.07422 -13.9502 0.992188 -19.6895c-22.7979 -25.7461 -42.3184 -51.5381 -51.5264 -67.6494c41.3379 31.3906 142.434 148.947 170.207 227.292c-79.1113 -62.0654 -154.873 -118.023 -217.65 -160.65
c-132.847 -90.2031 -152.966 -84.2539 -162.629 -81.4199c-9.28516 2.73828 -18.3467 12.1338 -13.3174 29.5977c59.1387 200.161 267.466 334.354 390.192 299.849c11.0996 -3.12305 26.1631 -10.4062 33.8164 -27.3262c32.5605 26.127 63.8145 51.7754 93.5176 76.7021
c41.0225 62.1484 80.3721 113.991 104.456 144.533c46.1885 58.5791 93.0127 111.58 131.851 149.236c57.6445 55.8965 77.7197 59.5273 89.7842 55.6797c10.0859 -3.21191 20.2129 -13.3281 11.1748 -43.2793c-17.8418 -59.1387 -163.484 -196.918 -317.824 -326.566
c-53.9385 -82.3125 -101.471 -169.688 -128.45 -250.136c-19.9824 -59.5889 -8.59863 -72.8008 -4.63477 -75.4316c8.57422 -5.68555 49.459 -14.7373 215.915 107.55c56.0107 41.1475 109.242 84.8125 142.569 112.898c9.14648 7.70801 23.0957 1.1709 23.0957 -10.791z
" />
    <glyph glyph-name="e" unicode="e" horiz-adv-x="343" 
d="M95.0742 496.652c-33.5195 -27.9346 -93.626 -88.9268 -130.814 -144.933c59.9941 14.6025 167.242 51.8086 229.968 139.315c32.2627 45.0107 26.7051 56.2197 26.623 56.2949c-1.48438 1.38086 -4.31445 2.03711 -8.19238 2.03711
c-22.6309 0 -81.0586 -22.2764 -117.584 -52.7148zM388.39 464.53l0.00195312 -0.00195312c0 -3.75098 -1.48145 -7.34766 -4.1416 -9.99219c-69.8037 -69.4102 -261.737 -247.5 -393.357 -247.5c-7.12109 0 -14.0674 0.518555 -20.8066 1.60742
c-35.5674 5.74707 -57.1191 21.5039 -64.0586 46.8379c-6.02832 22.0127 1.0957 49.1885 15.4336 77.7344c1.83496 3.72754 5.83301 10.9922 5.83301 10.9922c40.6719 72.9072 122.617 151.435 149.765 174.062c34.1211 28.4395 130.71 79.6396 162.952 49.668
c23.6475 -21.9883 -1.75195 -63.7764 -22.9121 -93.2979c-79.3682 -110.728 -218.807 -146.209 -272.22 -156.061c-10.6562 -21.5996 -15.7158 -41.042 -11.7109 -55.6621c1.40527 -5.125 5.6748 -20.7168 41.4033 -26.4883
c117.269 -18.9844 318.812 167.913 389.803 238.178c8.91309 8.82227 24.0156 2.46484 24.0156 -10.0762z" />
    <glyph glyph-name="f" unicode="f" horiz-adv-x="511" 
d="M177.395 301.784c0.237305 4.8916 0.313477 9.68066 0.220703 14.3555c-278.733 -311.388 -575.655 -647.955 -639.61 -742.957c53.959 30.2842 182.134 128.437 326.952 272.152c193.789 192.319 307.67 358.686 312.438 456.449zM-24.9512 434.998
c46.1992 -17.9414 108.788 -42.2441 185.951 -51.3887c-14.1807 25.6738 -37.375 45.1816 -69.4766 58.3418c-60.3867 24.751 -131.262 17.2646 -155.791 7.69043c0.000976562 -0.00976562 0 -0.00195312 0.000976562 -0.0117188
c11.6094 -3.87012 24.4121 -8.84277 39.3154 -14.6318zM832.66 1077.31c4.02246 -3.31152 9.6377 -11.0029 2.04297 -25.3447c-6.83594 -12.916 -97.2207 -113.71 -334.712 -377.232c-76.8301 -85.2529 -168.765 -187.27 -265.089 -294.662
c88.3359 2.03711 191.575 27.1768 307.736 98.6045c9.42383 5.79492 21.5654 -0.907227 21.5654 -11.9707v0c0 -4.90918 -2.56738 -9.52246 -6.74805 -12.0967c-133.381 -82.1191 -250.402 -105.567 -348.373 -103.064
c-2.36133 -2.73535 -3.37988 -3.91504 -5.74121 -6.65039c2.13965 -13.499 2.95215 -28.2812 2.16113 -44.4844c-6.99023 -143.334 -203.943 -359.156 -320.724 -475.047c-140.747 -139.679 -323.125 -289.625 -370.286 -290.216h-0.229492
c-6.69141 0 -12.4766 3.62793 -15.1426 9.51562c-6.2832 13.8848 -13.4043 29.6211 338.095 430.556c103.047 117.543 219.604 248.401 335.674 377.927c-0.107422 0.266602 -0.125 0.310547 -0.232422 0.577148c-86.8916 8.08594 -156.873 35.2705 -207.795 55.0469
c-14.1221 5.48633 -26.3164 10.2236 -37.0371 13.8369c-27.2305 9.18164 -28.2236 23.4893 -26.3926 31.2012c7.39551 31.1943 87.7188 37.6318 140.414 30.1504c39.9746 -5.66797 120.608 -26.5117 151.514 -102.631c1.80371 -0.333984 2.30859 -0.427734 4.1123 -0.761719
c97.6953 108.925 194.354 216.184 281.614 313.007c124.063 137.659 235.966 261.836 292.521 326.316c-15.9043 -11.6602 -33.5703 -25.2051 -50.3926 -38.5947c-6.04297 -4.80957 -14.8242 -3.83008 -19.6846 2.17188v0
c-4.91406 6.06738 -3.91992 15.0078 2.17285 19.8896c110.859 88.8213 120.464 80.9404 128.956 73.9561z" />
    <glyph glyph-name="g" unicode="g" horiz-adv-x="497" 
d="M184.58 -303.87c108.44 202.975 84.9648 416.245 61.8838 523.819c-98.7803 -81.7354 -209.811 -175.587 -318.931 -271.897c-550.215 -485.638 -597.551 -629.133 -576.792 -671.443c9.10645 -18.5664 49.1221 -43.3477 214.712 -0.738281
c303.569 78.1045 511.872 219.501 619.127 420.26zM541.914 465.624c0 -4.30762 -1.96582 -8.37402 -5.34668 -11.043c-52.708 -41.6084 -149.54 -118.742 -265.825 -214.585c24.6543 -106.551 55.9521 -337.584 -61.3398 -557.13
c-111.123 -208 -325.42 -354.103 -636.935 -434.254c-63.7422 -16.3994 -114.647 -24.6338 -153.66 -24.6338c-49.7266 -0.00390625 -80.1514 13.3652 -93.332 40.2314c-25.4746 51.9326 23.4727 144.269 154.045 290.584c98.6191 110.508 243.118 249.943 429.478 414.428
c113.314 100.011 228.663 197.355 330.284 281.296c-5.98438 23.3213 -10.8486 37.5049 -11.7422 40.0508c-3.91992 11.168 -10.9072 18.918 -21.3604 23.6855c-49.7852 22.7305 -162.021 -21.6895 -252.193 -57.374c-47.2881 -18.7178 -88.1279 -34.8799 -117.23 -40.8057
c-30.1914 -6.12793 -37.5254 9.31641 -39.2773 16.252c-8.9043 35.207 72.0342 112.449 107.244 144.025c72.8555 65.333 146.783 113.569 197.754 129.034c43.7051 13.2734 76.1357 10.1543 96.3828 -9.25391c22.5488 -21.6104 22.2031 -56.9883 19.6914 -77.3438
c-1.07715 -8.7334 -9.79785 -14.4258 -18.3164 -11.6641c-6.59375 2.1377 -10.248 9.14648 -9.44434 16.0312c1.92383 16.4814 1.43164 40.4072 -11.4414 52.6992c-15.4033 14.7129 -45.8623 9.54004 -68.7021 2.6084c-102.164 -31.002 -274.157 -195.627 -285.253 -235.649
c1.42871 0.103516 3.31152 0.34375 5.75 0.841797c26.6699 5.42773 68.3555 21.9268 112.486 39.3945c100.093 39.6143 213.545 84.5117 274.233 56.8105c17.54 -8.00391 29.7314 -21.4521 36.2305 -39.9639c0.762695 -2.17773 4.32812 -12.5693 9.03809 -29.7109
c111.94 92.1104 204.79 166.061 256.031 206.51c9.22559 7.2832 22.751 0.682617 22.751 -11.0713v0z" />
    <glyph glyph-name="h" unicode="h" horiz-adv-x="463" 
d="M484.662 476.553c9.22266 7.3877 22.874 0.822266 22.874 -10.9941v0c0 -4.2666 -1.92188 -8.2959 -5.24902 -10.9668c-91.9512 -73.8164 -298.422 -235 -360.006 -244.772c-17.6016 -2.78906 -25.1143 5.19043 -28.0166 10.1992
c-13.4971 23.3213 18.3467 66.5801 105.994 175.236c29.9375 37.1133 60.665 75.2051 77.7275 101.191c-48.7822 -24.5645 -161.691 -100.529 -248.026 -158.617c-92.8516 -62.4678 -180.554 -121.477 -213.527 -135.812
c-4.08398 -1.7793 -7.57715 -2.4668 -10.5381 -2.4668c-7.37891 0 -11.4424 4.27637 -13.1289 6.65039c-12.7646 17.9658 -1.27734 43.3037 416.682 495.906c79.9834 86.6104 156.082 169.02 179.802 197.531c-10.791 -3.79199 -25.2148 -9.99219 -39.832 -17.2266
c-7.35059 -3.6377 -16.3662 -0.402344 -19.4775 7.45703c-2.74609 6.93652 0.913086 14.7812 7.57715 18.1338c68.5039 34.4629 79.5146 22.54 84.3789 17.2715c7.20312 -7.79785 6.49219 -18.5674 -2.11328 -32.0127c-9.66992 -15.1113 -75.0098 -86.0918 -189.66 -210.248
c-126.705 -137.202 -325.225 -352.18 -390.832 -436.577c41.665 25.0596 106.915 68.957 174.962 114.74c248.38 167.112 279.78 181.636 296.959 167.191c3.12598 -2.63086 9.71777 -10.2607 3.45215 -24.2969c-11.8066 -26.4473 -51.001 -75.041 -92.501 -126.489
c-37.3262 -46.2715 -91.9756 -114.022 -101.36 -139.391c54.125 12.7441 239 154.367 343.86 238.361z" />
    <glyph glyph-name="i" unicode="i" horiz-adv-x="282" 
d="M304.229 476.182c9.12109 7.85059 23.2188 1.26172 23.0889 -10.7715c-0.000976562 -0.114258 -0.00195312 -0.227539 -0.00292969 -0.339844c-0.0429688 -4.00391 -1.75879 -7.73047 -4.78809 -10.3486c-91.2178 -78.8262 -282.929 -234.871 -371.151 -234.879
c-2.72363 0 -5.34082 0.147461 -7.8623 0.453125c-22.1982 2.67578 -31.3154 14.9053 -35.0596 24.6924c-22.7412 59.4912 106.079 216.872 150.55 268.668c5.58301 6.50391 15.7764 6.59863 21.5137 -0.256836c4.48633 -5.36035 3.90527 -13.3242 -0.643555 -18.6318
c-71.0303 -82.8721 -158.219 -205.503 -145.135 -239.732c0.642578 -1.67285 2.14062 -5.5957 12.1475 -6.80469c67.04 -8.06543 251.472 136.832 357.343 227.951zM30.9004 577.127c-7.01953 3.97559 -9.30078 12.9932 -4.96387 19.7949
c4.0293 6.31934 12.2539 8.36914 18.7627 4.65527c39.7148 -22.6611 119.102 -57.2021 162.458 -31.9502c5.6084 3.26562 12.7646 1.93359 17.1191 -2.87891l0.0673828 -0.0742188c5.89355 -6.51367 4.54199 -16.9766 -3.04004 -21.4121
c-15.4688 -9.0498 -33.2832 -12.6348 -51.7988 -12.6348c-53.5391 0 -112.957 29.9756 -138.604 44.5z" />
    <glyph glyph-name="j" unicode="j" horiz-adv-x="364" 
d="M123.047 726.04c-7.01953 3.97559 -9.30078 12.9922 -4.96387 19.7939c4.0293 6.31934 12.2539 8.36914 18.7627 4.65527c39.7148 -22.6611 119.102 -57.2021 162.458 -31.9502c5.6084 3.26562 12.7646 1.93457 17.1191 -2.87793l0.0673828 -0.0742188
c5.89355 -6.51367 4.54199 -16.9766 -3.04004 -21.4121c-15.4688 -9.0498 -33.2832 -12.6348 -51.7988 -12.6348c-53.5391 0 -112.957 29.9756 -138.604 44.5zM-790.04 -465.133c61.5469 47.3467 202.889 205.228 358.136 387.522
c-280.344 -131.27 -675.631 -320.549 -690.858 -449.572c-4.97754 -42.1865 1.99219 -68.9668 20.7207 -79.5986c45.3779 -25.7598 164.931 28.5156 312.002 141.648zM387.064 476.981c9.25977 7.04883 22.5693 0.426758 22.5693 -11.2109v0
c0 -4.3916 -2.00488 -8.49805 -5.5 -11.1582c-136.473 -103.886 -422.938 -318.19 -577.024 -406.106c-43.3652 -24.7432 -114.672 -58.5518 -198.324 -97.7256c-171.853 -203.119 -334.076 -386.229 -401.669 -438.223
c-65.1338 -50.1045 -210.566 -153.402 -301.989 -153.409c-15.4482 0 -29.3467 2.94727 -41.0605 9.59766c-29.5078 16.7461 -41.208 52.873 -34.7773 107.368c17.6357 149.428 433.967 344.131 737.955 486.301c8.28516 3.875 16.4707 7.70215 24.543 11.4844
c231.758 274.236 480.413 584.085 535.368 654.203c-17.916 -4.6416 -45.25 -14.2441 -70.8203 -24.5527c-7.62598 -3.07422 -16.3623 0.995117 -18.7754 9.10645c-2.09668 7.04883 2.10449 14.5273 8.91211 17.3115c100.597 41.1553 110.592 28.541 116.072 21.6201
c3.33887 -4.21484 7.47852 -13.29 -2.31836 -26.6836c-15.8604 -21.6719 -264.419 -332.761 -507.997 -622.597c58.8818 27.8623 108.279 52.0117 140.934 70.6436c152.756 87.1562 437.928 300.518 573.902 404.03z" />
    <glyph glyph-name="k" unicode="k" horiz-adv-x="524" 
d="M104.103 427.5c60.791 11.1367 163.601 42.6123 180.67 79.6602c3.62109 7.85938 2.95117 15.5811 -2.11523 24.3066c-0.920898 1.58691 -2.3125 3.14648 -6.21094 3.80273c-1.49414 0.250977 -3.09863 0.375 -4.7959 0.375
c-34.7256 0 -110.917 -51.4307 -189.203 -112.14zM569.389 464.549l0.00195312 -0.00195312c0 -3.67969 -1.4082 -7.18848 -3.98633 -9.81348c-39.9268 -40.6553 -113.12 -111.023 -205.488 -181.255c-74.5283 -56.6621 -128.906 -75.459 -166.205 -57.4688
c-18.9346 9.13086 -41.7812 32.627 -43.1006 92.6934c-1.52539 69.4141 -47.7344 91.2129 -49.7031 92.1064l-30.04 13.6582c-67.583 -53.0352 -135.279 -111.415 -177.848 -148.133c-57.8408 -49.8818 -73.3711 -62.8701 -81.2168 -65.876l-10.3535 -3.9707
l-6.9668 9.14453c-8.27148 12.0332 -8.7666 12.7549 118.625 156.484c71.499 80.667 166.501 186.225 258.373 288.31c136.876 152.087 278.084 308.983 306.53 344.994c-17.5059 -2.18555 -50.8584 -12.1592 -81.6377 -23.6006
c-7.69922 -2.86133 -16.3184 1.48828 -18.4883 9.66699c-1.88281 7.09375 2.5166 14.4365 9.38184 17.0312c101.997 38.5459 114.99 22.9268 120.01 16.8936c3.64844 -4.38281 8.38574 -13.9561 -0.899414 -28.8096c-11.6895 -18.708 -126.419 -146.598 -313.98 -355
c-93.4111 -103.796 -200.041 -222.273 -275.459 -307.633c154.224 131.758 302.504 249.432 364.175 239.054c11.4287 -1.92383 20.377 -7.94531 25.8799 -17.4229c9.65918 -16.6367 10.8135 -34.0049 3.33496 -50.2256
c-22.0986 -47.9375 -118.653 -76.7305 -170.152 -88.9531c17.7148 -17.5156 37.4873 -47.9678 38.5664 -97.1006c0.556641 -25.2891 5.72266 -57.6104 27.1924 -67.9639c25.7393 -12.418 74.3701 6.94922 136.948 54.5254c91.1455 69.2988 163.274 138.661 202.427 178.534
c8.82715 8.98926 24.0801 2.72949 24.0801 -9.86816z" />
    <glyph glyph-name="l" unicode="l" horiz-adv-x="522" 
d="M586.802 994.608c-51.0635 -17.6768 -201.93 -122.043 -351.979 -281.776c162.165 119.157 313.736 237.879 351.979 281.776zM570.018 465.393l0.000976562 0.00292969c0 -4.17969 -1.85156 -8.13477 -5.06445 -10.8076
c-118.522 -98.6025 -533.562 -438.371 -624.751 -438.412h-0.351562c-18.498 0.178711 -33.6709 10.4014 -42.7158 28.7793c-39.9922 81.2578 33.9658 329.429 192.803 539.937c85.792 113.696 200.614 231.775 315.031 323.957
c51.0664 41.1426 173.766 134.499 209.972 112.751c5.27246 -3.16699 8.44336 -8.54688 8.69434 -14.7578c0.508789 -12.5625 1.36035 -33.5889 -238.841 -216.723c-109.371 -83.3877 -220.274 -163.172 -233.603 -172.738
c-13.1191 -16.0938 -26.0625 -32.5684 -38.79 -49.4385c-163.041 -216.08 -221.441 -446.715 -190.021 -510.561c5.6543 -11.4834 12.4492 -13.0156 17.7432 -13.0674c0.0791016 0 0.165039 -0.00390625 0.244141 -0.00390625c65.5127 0 388.686 250.293 606.612 431.902
c9.16113 7.63477 23.0361 1.10449 23.0361 -10.8203z" />
    <glyph glyph-name="m" unicode="m" horiz-adv-x="974" 
d="M1019.35 465.305v0.00292969c0 -4.10352 -1.78027 -8.05176 -4.88574 -10.7334c-138.303 -119.42 -304.947 -140.919 -484.71 -61.6738c-44.8418 19.7764 -98.6289 -23.0977 -141.847 -57.5449c-18.9102 -15.0732 -35.2441 -28.0889 -49.0254 -34.2139
c-9.71484 -4.31836 -22.3145 -8.53027 -33.5918 -2.74902c-13.5547 6.93945 -16.8975 22.9268 -21.957 47.1309c-4.17285 19.9766 -9.89258 47.3281 -23.0635 81.7705c-1.56445 4.0918 -4.82227 7.44629 -8.9707 8.85449
c-47.0596 15.9727 -200.468 -85.6924 -292.019 -146.356c-66.8955 -44.3301 -99.7598 -65.7236 -115.736 -67.623c-0.886719 -0.106445 -1.74219 -0.158203 -2.57031 -0.158203c-7.87012 0 -13.0088 4.55176 -15.2861 9.1377
c-5.86328 11.8232 -11.4004 22.9912 144.558 193.397c58.4658 63.8838 118.413 126.646 141.38 150.569c5.92676 6.17285 16.083 5.72168 21.4473 -1.42871c4.19336 -5.58984 3.17188 -13.5488 -1.67578 -18.582c-108.252 -112.4 -219.421 -234.303 -261.799 -289.845
c20.6172 12.5244 48.3906 30.9297 74.1367 47.9883c139.686 92.5703 259.847 167.728 315.729 149.841c12.8506 -4.11914 22.2041 -12.9814 27.0439 -25.6367c14.0049 -36.5879 19.9961 -65.2471 24.3691 -86.1709c2.32227 -11.1094 4.93262 -23.5928 7.31641 -27.5195
c1.27148 0.158203 4.05762 0.783203 9.25879 3.09473c10.4912 4.66113 26.2412 17.2129 42.915 30.5029c46.5527 37.1094 110.333 87.9014 170.736 61.2891c168.911 -74.4639 325.371 -54.4346 455.124 57.4355c9.05566 7.80762 23.1221 1.17773 23.1221 -10.7793z" />
    <glyph glyph-name="n" unicode="n" horiz-adv-x="689" 
d="M710.413 473.98c8.68555 9.38672 24.3223 3.2959 24.3223 -9.49219v0c0 -3.57129 -1.32422 -7.02539 -3.75684 -9.63965c-143.54 -154.302 -399.483 -243.012 -487.273 -243.015c-7.02148 0 -12.9609 0.566406 -17.6875 1.70996
c-9.73145 2.36035 -16.8389 8.26855 -20.0098 16.6436c-8.83887 23.3486 13.4756 57.0029 57.0225 119.409c36.2686 51.9668 81.3994 116.64 80.623 155.236v0.120117c-29.8652 3.58301 -169.122 -97.8291 -253.2 -158.857
c-112.827 -81.8936 -183.453 -132.129 -212.487 -132.933c-13.5752 -0.587891 -19.0684 8.1543 -20.7617 11.8438c-5.36523 11.6934 -14.3477 31.2598 126.884 201.086c52.6934 63.3652 107.231 124.547 128.659 148.379c5.20215 5.78516 14.1104 6.21875 19.8652 0.983398
l0.0214844 -0.0195312c5.73438 -5.21582 6.16699 -14.0586 0.967773 -19.8086c-115.464 -127.698 -231.53 -269.791 -248.238 -312.307c32.0674 11.9609 118.101 74.4082 188.562 125.551c167.905 121.871 250.637 177.465 283.758 161.007
c5.13184 -2.55566 13.8027 -9.13379 14.1123 -24.4814c0.955078 -47.7549 -45.0762 -113.709 -85.6865 -171.903c-22.0957 -31.666 -55.2119 -79.124 -53.9219 -92.4746l0.0078125 -0.0078125c48.2188 -12.6377 326.843 69.373 478.219 232.97z" />
    <glyph glyph-name="o" unicode="o" horiz-adv-x="411" 
d="M61.6074 280.734c78.5068 55.8623 170.363 169.028 174.184 227.775c1.14062 17.5156 -6.41699 22.8027 -13.9609 25.6611c-6.74707 2.55957 -14.2773 3.12305 -22.3701 1.80371l-0.536133 -0.97168c-0.124023 0.0683594 -0.583984 0.301758 -1.36719 0.62793
c-23.8604 -4.70605 -52.4268 -25.3926 -80.7324 -59.3252c-54.5771 -65.4424 -86.8604 -153.941 -67.7197 -185.668c2.7959 -4.63379 6.97266 -7.93457 12.5029 -9.90332zM0.916992 249.707c10.4355 2.46973 22.0195 7.36621 34.2832 14.1885
c-4.3623 3.79883 -7.67383 8.03809 -10.1953 12.208c-28.9785 48.0469 13.8848 150.686 70.2139 218.227c8.38867 10.0576 16.8525 19.0957 25.3164 27.0752c-39.6143 -24.7637 -132.672 -113.545 -155.076 -193.981c-7.65332 -27.4746 -5.97656 -50.9023 4.98828 -69.6377
c2.15039 -3.66504 7.83887 -13.4307 30.4697 -8.0791zM433.164 476.255c9.22363 7.68164 23.2129 1.14941 23.2129 -10.8545v0c0 -4.17773 -1.81934 -8.13184 -5.02344 -10.8135c-69.9541 -58.542 -220.137 -173.582 -350.101 -201.257
c-13.2393 -2.81641 -24.4238 -3.42773 -33.8086 -2.47266c-21.4287 -14.1523 -41.9844 -24.2617 -60.0459 -28.5352c-6.8291 -1.61426 -12.9844 -2.31836 -18.5215 -2.32227c-24.6846 0 -37.1064 13.9951 -42.7061 23.5723
c-14.9639 25.5576 -17.5947 56.3086 -7.81836 91.4023c25.915 93.0371 133.62 192.285 173.873 214.163c40.5615 22.0469 71.3887 19.5117 87.6436 15.2314c11.1777 1.18164 21.9023 -0.0859375 31.9395 -3.88477c22.3828 -8.48145 33.7734 -27.5908 32.0693 -53.8008
c-3.80566 -58.5068 -76.5137 -156.916 -151.908 -221.819c118.964 32.0332 255.906 137.02 321.194 191.391z" />
    <glyph glyph-name="p" unicode="p" 
d="M-566.577 -281.332c67.6924 77.1289 177.238 216.651 292.336 367.21c-21.7305 -25.293 -43.9902 -51.6064 -66.7236 -78.8887c-100.443 -120.553 -179.211 -223.047 -225.612 -288.321zM513.824 465.868l0.00488281 -0.00292969
c0 -4.45312 -2.09082 -8.62598 -5.66602 -11.2803c-93.7803 -69.6328 -350.446 -252.98 -428.478 -234.205c-18.7012 4.50391 -24.2041 16.3311 -25.8184 22.9814c-9.1582 37.7246 53.9043 100.584 181.396 210.786c24.3965 21.085 52.042 44.9863 55.8555 50.7227
c0.563477 1.18848 0.796875 6.30371 -4.01953 10.4941c-4.33496 3.77539 -47.2607 33.5273 -217.85 -83.4111c-35.4023 -24.2695 -82.8066 -66.25 -139.273 -122.898c-209.296 -279.279 -467.7 -616.427 -533.565 -668.568
c-6.86328 -5.4375 -14.1045 -10.5625 -21.5723 -10.5625c-2.0752 0 -4.16406 0.395508 -6.2666 1.28516c-5.33789 2.25684 -8.87598 7.16602 -9.48047 13.1299c-0.728516 7.24805 -1.94434 19.3779 80.5947 130.854c51.5752 69.6572 119.22 155.271 190.464 241.069
c57.4902 69.2354 171.688 203.693 277.895 310.649c132.462 176.737 245.228 330.155 276.072 372.201c5.05859 6.89551 15.1777 7.7959 21.4482 1.41992c4.90234 -4.98535 4.94922 -13.0205 0.81543 -18.6592c-24.8623 -33.915 -95.4023 -129.959 -185.424 -250.963
c11.3291 9.10645 22.1699 17.2578 32.3789 24.252c168.362 115.41 230.291 100.525 252.248 81.4229c15.0049 -13.0742 16.5986 -32.4316 10.4219 -44.7949c-4.10156 -8.19629 -18.584 -21.1094 -62.3408 -58.9336c-37.7861 -32.6611 -84.8135 -73.3086 -121.006 -110.449
c-56.9473 -58.4385 -51.4717 -72.3984 -51.4102 -72.5322c0.00683594 0 0.996094 -1.16406 5.0293 -2.13574c54.2002 -13.0791 265.103 125.349 405.098 229.407c9.28613 6.90234 22.4492 0.291992 22.4492 -11.2793z" />
    <glyph glyph-name="q" unicode="q" horiz-adv-x="552" 
d="M234.227 -113.989c26.2646 48.2227 33.8447 90.9932 22.5088 127.124c-34.6123 110.329 -74.3086 173.711 -102.807 209.828c-140.305 -208.059 -318.389 -461.798 -433.844 -588.42c-177.609 -194.796 -159.747 -237.89 -157.13 -242.163
c3.40723 -5.55762 16.2617 -6.20996 32.7705 -1.66895c54.0342 14.9082 516.726 271.77 638.501 495.3zM-0.535156 407.494c63.584 -11.501 180.646 46.3301 283.355 113.28c-4.76074 6.72559 -14.5371 10.1367 -29.0811 10.1367
c-72.1514 0 -261.859 -89.0283 -269.596 -118.368c1.4082 -1.02344 5.4209 -3.25586 15.3213 -5.04883zM170.926 246.759c30.2871 -36.8584 74.6748 -104.136 112.655 -225.2c13.7061 -43.6953 5.41406 -93.8271 -24.6436 -149.009
c-125.176 -229.772 -600.261 -493.662 -655.725 -508.962c-10.3809 -2.86523 -19.209 -4.04688 -26.7041 -4.04688c-22.3691 0 -32.874 10.5146 -37.5391 18.123c-24.6846 40.2256 27.7627 130.453 160.324 275.842c115.654 126.842 295.291 383.247 435.685 591.67
c-4.00488 4.34863 -7.50879 7.94824 -10.3945 10.9199c-9.625 9.90039 -16.5781 17.0557 -11.8516 27.4434c4.67871 10.2852 16.0488 9.66699 22.1699 9.33398c4.93945 -0.267578 10.6143 -1.26367 17.8008 -2.52734c3.41406 -0.597656 7.18555 -1.26074 11.3145 -1.91309
c41.9775 62.7354 79.4277 119.58 109.176 165.092c3.47656 6.81543 9.48145 21.126 12.3604 35.4707c-86.1807 -55.1162 -212.58 -123.413 -291.107 -109.185c-35.6221 6.45117 -39.4277 24.2207 -38.5273 34.2373c5.11133 56.9131 231.383 145.007 297.818 145.007
c24.6914 0 42.3408 -7.62598 52.5156 -22.6826c8.27832 5.62695 16.4404 11.291 24.417 16.9453c7.06348 5.02344 16.3965 4.30469 22.6279 -1.73828c6.22852 -6.04004 6.71094 -15.9268 2.01367 -23.2207c-25.0801 -38.9482 -84.543 -130.77 -159.69 -243.272
c68.7861 -3.35352 191.993 17.5322 378.497 190.217c9.02051 8.35156 23.6562 2.04492 23.6562 -10.248v0c0 -3.92285 -1.66406 -7.71289 -4.54297 -10.3779c-210.348 -194.686 -346.398 -203.966 -416.101 -196.41c-2.98926 -5.54395 -3.21582 -5.96387 -6.20508 -11.5078z
" />
    <glyph glyph-name="r" unicode="r" 
d="M514.854 465.68h-0.00195312c0 -4.33984 -1.99902 -8.43848 -5.41992 -11.1094l-26.4951 -20.6904c-58.0264 -46.3506 -324.013 -254.735 -422.003 -254.76c-5.13867 0 -9.74902 0.608398 -13.8164 1.87891c-12.3525 3.875 -20.6445 12.4082 -23.3447 24.0225
c-11.6035 49.9365 99.2891 168.394 178.544 245.375c-57.3457 -2.74121 -151.008 -4.21191 -191.947 12.0703c-17.7051 7.03906 -22.1709 17.6299 -22.8027 25.2764c-1.85449 22.5176 25.3242 40.6826 66.999 65.8242c4.62402 2.78613 9.92773 5.99121 14.8057 9.05566
c-7.17578 0 -15.7451 -0.384766 -24.5977 -1.13965c-7.45898 -0.635742 -14.1221 4.625 -15.0693 12.0508l-0.0634766 0.498047c-0.995117 7.80078 4.7207 14.8145 12.5498 15.5498c55.4004 5.20117 63.0586 -6.05664 66.0791 -10.5049
c3.94336 -5.79883 4.14258 -13.1777 0.529297 -19.7393c-4.6582 -8.47754 -16.1729 -15.6738 -39.6963 -29.8643c-15.7324 -9.49121 -47.5625 -28.6934 -52.8799 -38.6035c0.87207 -0.570312 2.29395 -1.36035 4.54785 -2.25391
c34.8525 -13.8535 129.092 -13.5791 205.647 -8.69043c8.37793 0.480469 15.752 -4.30957 18.6416 -12.2334c2.60254 -7.13867 0.107422 -15.1924 -5.39648 -20.4307c-117.346 -111.677 -194.812 -208.61 -188.477 -235.871
c0.240234 -1.04395 0.542969 -2.34277 4.35547 -3.53516c52.0488 -16.3311 289.354 151.678 426.705 261.382l9.92383 7.62207c9.27148 7.12012 22.6826 0.510742 22.6826 -11.1797z" />
    <glyph glyph-name="s" unicode="s" horiz-adv-x="380" 
d="M9.65137 250.024c-83.2129 -0.00390625 -127.033 34.5166 -130.75 37.584c-6.09375 5.02539 -7.47461 13.4824 -3.27734 20.1055c4.28711 6.76074 13.0332 9.26172 20.3711 5.81934c122.545 -57.5586 244.671 42.8877 288.606 128.921
c16.5645 32.4307 16.9424 54.6592 8.89062 59.1074c-19.6191 10.8613 -82.9131 5.57031 -126.393 -1.27148c-7.56738 -1.19043 -14.7148 3.81152 -16.0928 11.3467v0c-1.42383 7.78223 3.8252 15.1934 11.6416 16.4189c33.6367 5.27441 113.349 15.3418 144.461 -1.86719
c25.3174 -13.998 26.2725 -50.084 2.55664 -96.5303c-30.0439 -58.8369 -93.4561 -123.507 -170.176 -149.49c4.1084 0.432617 8.28516 0.958008 12.5381 1.57617c109.169 15.9023 230.99 86.1035 362.243 208.711c5.65332 5.28125 14.5039 5.09082 19.8369 -0.513672v0
c5.38184 -5.65625 5.12598 -14.6826 -0.580078 -20.0127c-189.506 -177.024 -331.152 -219.897 -423.877 -219.904z" />
    <glyph glyph-name="t" unicode="t" horiz-adv-x="427" 
d="M815.803 772.916c7.7627 -0.244141 14.0859 -6.80566 14.0859 -14.5723v0c0 -7.7207 -6.28809 -13.8271 -14.0049 -13.583c-163.45 5.1709 -331.245 5.98438 -491.503 3.93359c-66.9541 -64.9717 -145.215 -143.063 -221.124 -223.856
c-330.528 -351.798 -343.671 -460.513 -322.092 -494.002c7.08301 -10.9854 17.6221 -17.0488 32.2217 -18.5332c2.50098 -0.253906 5.10449 -0.380859 7.77734 -0.380859c132.142 -0.0195312 468.649 305.735 627.261 462.728
c8.86621 8.77539 23.8906 2.49121 23.8906 -9.9834v0c0 -3.74902 -1.46387 -7.31055 -4.13086 -9.94531c-117.069 -115.657 -489.497 -470.842 -647.954 -470.889c-3.33887 -0.00390625 -6.54688 0.154297 -9.68652 0.473633
c-23.3379 2.37402 -41.1797 12.8994 -53.0244 31.2842c-27.0068 41.9014 -4.00488 115.042 70.3105 223.603c56.2266 82.1406 142.029 184.765 255.024 305.021c68.2627 72.6514 138.397 143.104 200.589 203.885c-440.169 -7.00879 -814.646 -35.0293 -870.474 -52.3965
c-17.8145 -5.54102 -24.7188 -11.8652 -25.2344 -15.9326c-0.850586 -6.63184 8.64453 -17.2998 18.6621 -25.4658c6.47949 -5.28125 6.8457 -15.4531 0.212891 -21.4463c-5.22559 -4.72168 -13.249 -4.3125 -18.7041 0.142578
c-13.4248 10.9629 -30.7617 29.4619 -28.0859 50.3477c2.23926 17.4746 17.3057 30.6719 44.7939 39.2217c58.0586 18.0635 451.999 47.5703 908.081 53.9824c76.6357 74.1738 137.344 130.148 160.793 151.588c5.75879 5.26562 14.7021 4.83105 19.9307 -0.960938
h0.000976562c5.18262 -5.74219 4.7959 -14.5547 -0.911133 -19.7744c-21.0361 -19.2363 -72.5557 -66.7227 -138.744 -130.337c151.42 1.64746 308.691 0.677734 462.038 -4.15137z" />
    <glyph glyph-name="u" unicode="u" horiz-adv-x="542" 
d="M564.972 476.191c9.18262 7.66211 23.1221 1.14941 23.1221 -10.8105v0c0 -4.16895 -1.80273 -8.0918 -5 -10.7676c-98.834 -82.7139 -298.227 -243.198 -357.467 -243.221c-0.274414 0 -0.535156 0.00390625 -0.802734 0.0107422
c-10.4561 0.267578 -18.542 5.32031 -22.1973 13.8564c-5.07715 11.8545 -14.5234 33.918 110.034 187.454c8.51953 10.498 17.1006 20.9102 25.5508 31.0439c-122.435 -92.6523 -305.904 -220.391 -386.691 -220.415c-4.46582 0 -8.6084 0.391602 -12.4219 1.19922
c-20.1436 4.27344 -28.1201 16.7705 -31.2598 26.502c-22.126 68.5039 139.533 257.229 191.933 315.973c5.70312 6.39453 15.8965 6.30859 21.5098 -0.651367c4.39062 -5.44434 3.65723 -13.4111 -0.995117 -18.6338
c-83.0146 -93.1797 -199.611 -244.888 -185.673 -288.038c0.982422 -3.03027 2.90625 -6.0498 10.3262 -7.62305c2.61035 -0.552734 5.50293 -0.824219 8.62891 -0.824219c78.8994 -0.0205078 317.896 171.319 471.689 296.342
c6.81348 5.53906 17.0371 4.23926 22.1787 -3.3584c3.96289 -5.85547 2.88281 -13.7852 -1.8418 -19.0459c-104.097 -115.927 -210.554 -250.792 -216.681 -285.362c47.2686 6.36914 213.865 134.412 336.058 236.37z" />
    <glyph glyph-name="v" unicode="v" horiz-adv-x="315" 
d="M8.62891 196.467l-11.3408 10.7715c-4.21191 4.00488 -40.1436 43.1553 -3.92383 182.584c26.624 102.501 67.3857 152.048 88.0508 171.711c6.38965 6.08008 16.6943 4.85742 21.5137 -2.5293v0c3.71582 -5.69629 2.83887 -13.1826 -2.07227 -17.8867
c-17.0752 -16.3555 -55.1465 -61.6836 -80.2598 -158.371c-19.9443 -76.7822 -16.3096 -118.361 -10.7998 -138.729c77.3174 98.8252 442.307 554.797 609.329 574.13c22.4385 2.59668 41.3184 -2.24316 56.1377 -14.3662
c92.9688 -76.0811 213.858 -66.708 253.066 -61.1514c7.31738 1.03711 14.1709 -3.70117 15.7734 -10.916v0c1.77539 -7.99414 -3.54199 -15.8184 -11.6416 -17.0254c-43.4355 -6.47266 -172.402 -16.6748 -275.021 67.3135
c-8.82812 7.22754 -20.3359 9.90332 -35.0791 8.19238c-171.674 -19.8721 -599.91 -575.707 -604.218 -581.32z" />
    <glyph glyph-name="w" unicode="w" horiz-adv-x="855" 
d="M569.705 512.062c-0.631836 0 -1.32617 -0.0898438 -2.06836 -0.289062c-43.5303 -11.6729 -110.935 -39.9609 -184.879 -108.43c-24.3896 -22.5928 -29.8037 -37.0166 -26.7256 -42.9834c2.49414 -4.83984 8.65723 -8.72852 17.7676 -11.7373
c81.3779 49.0264 162.577 106.125 201.188 152.361c2.66602 3.19434 1.43652 6.2207 0.460938 7.73926c-0.701172 1.10645 -2.52832 3.33887 -5.74316 3.33887zM-85.8682 197.335c-2.47363 0 -4.8916 0.162109 -7.24805 0.488281
c-15.6367 2.16797 -26.1348 11.1885 -29.5635 25.4033c-20.1777 83.7275 250.984 379.791 275.518 396.963c16.4473 11.5215 30.5176 10.8174 39.4004 8.21387c12.1699 -3.57031 21.0283 -12.3242 26.8809 -20.2783c5.41211 -7.35547 2.4209 -17.8379 -6.01953 -21.3232v0
c-5.99121 -2.47461 -12.8701 -0.53418 -16.7129 4.68555c-3.16406 4.29883 -7.38672 8.56152 -12.125 9.92773c-1.61426 0.453125 -6.49219 1.875 -15.293 -4.28418c-37.1201 -25.9863 -278.287 -309.25 -264.292 -367.313
c0.418945 -1.74512 0.817383 -3.39355 6.06641 -4.12207c52.6465 -7.36133 182.157 133.489 251.705 209.12c67.0537 72.9209 78.6299 84.8135 93.6074 76.2227c5.37988 -3.07422 10.8281 -9.89258 6.24609 -24.9072c-7.99023 -26.1787 -28.3809 -66.7441 -49.9668 -109.693
c-22.0127 -43.7871 -57.9785 -115.334 -58.1777 -136.594c23.3936 3.2666 104.655 41.7607 191.393 92.082c-6.44434 4.31836 -11.3975 9.46387 -14.5371 15.5508c-16.1455 31.3486 20.5693 65.3428 32.6338 76.5137c78.1631 72.3818 150.108 102.47 196.702 114.963
c15.6035 4.19824 31.3018 -2.22949 39.5693 -16.3018c7.59961 -12.9355 5.42578 -29.3711 -4.26758 -40.8213c-34.8447 -41.1582 -104.786 -92.998 -179.619 -140.223c60.7812 -4.35938 156.326 4.40332 238.062 21.3418c102.507 21.2373 191.872 88.377 221.267 112.351
c5.8125 4.74023 14.3027 4.04883 19.3271 -1.51953v0c5.37695 -5.95898 4.72949 -15.208 -1.47266 -20.3037c-31.3066 -25.7188 -123.924 -95.3984 -233.406 -118.084c-2.34277 -0.480469 -188.155 -38.3975 -281.014 -16.6768
c-99.6807 -59.6992 -199.237 -107.021 -229.61 -107.032c-1.46289 0 -2.75488 0.110352 -3.88867 0.333984c-7.2002 1.41504 -12.9297 5.79785 -16.1309 12.3418c-11.0195 22.4971 10.2715 69.7168 58.0264 164.715c11.3564 22.5928 22.9326 45.6182 32.166 65.6865
c-11.3086 -11.9375 -24.0938 -25.8398 -36.1924 -38.9932c-105.96 -115.218 -206.245 -218.426 -269.032 -218.433z" />
    <glyph glyph-name="x" unicode="x" horiz-adv-x="566" 
d="M587.21 474.466c8.82715 8.91797 23.9922 2.64941 23.9922 -9.89746c0 -3.69238 -1.41504 -7.20508 -4.01074 -9.83008c-76.7725 -77.6465 -245.106 -236.305 -338.834 -236.311c-0.418945 0 -0.831055 0.00390625 -1.24316 0.0078125
c-62.6348 0.950195 -93.5752 59.5811 -110.559 126.544l-304.124 -204.249c-6.45117 -4.33203 -15.1914 -2.61523 -19.5244 3.83496c-4.33301 6.45117 -2.61621 15.1943 3.83496 19.5273l313.246 210.375c-6.64648 34.1504 -10.459 68.5996 -13.6094 97.1963
c-2.7002 24.5029 -5.0293 45.6631 -8.07324 56.6729c-8.24121 29.8057 -83.1953 34.3057 -128.838 31.792c-7.50586 -0.413086 -13.9541 5.18457 -14.6934 12.6641c-0.790039 7.98828 5.24512 14.9873 13.2588 15.4424c40.1064 2.27734 142.2 2.50098 157.396 -52.3984
c3.64844 -13.1875 5.97754 -34.3271 8.9248 -61.0938c2.70312 -24.5479 5.94629 -53.877 11.0625 -83.1992l232.433 156.102c6.45117 4.33203 15.1914 2.61523 19.5244 -3.83496c4.33301 -6.45117 2.61621 -15.1934 -3.83496 -19.5264l-242.147 -162.625
c13.8955 -60.8584 38.3027 -114.361 86.1455 -115.084c0.316406 -0.00683594 0.632812 -0.0107422 0.949219 -0.0107422c76.8691 0 231.598 139.878 318.725 227.901z" />
    <glyph glyph-name="y" unicode="y" horiz-adv-x="454" 
d="M115.881 -32.3916c46.8066 89.1074 82.3691 179.621 109.108 261.734c-347.752 -297.716 -738.401 -663.361 -752.218 -791.567c-1.12012 -10.3779 0.514648 -18.1074 4.9873 -23.6348c15.9111 -19.6484 37.6279 -27.8311 66.4414 -24.9834
c152.107 15.0146 441.482 330.617 571.681 578.451zM500.339 465.444c0 -4.20215 -1.85352 -8.15527 -5.10254 -10.8203c-27.0469 -22.1855 -155.217 -127.438 -230.104 -191.043c-28.3398 -94.2568 -68.4482 -202.659 -124.338 -309.056
c-117.962 -224.533 -414.963 -575.713 -593.823 -593.369c-4.6582 -0.457031 -9.19922 -0.6875 -13.624 -0.6875c-32.0977 -0.00390625 -58.1084 12.0635 -77.4619 35.9717c-9.2959 11.4805 -13.0264 26.4062 -11.0889 44.3545
c16.3379 151.575 480.032 569.637 795.604 838.105c26.4365 89.1172 42.0801 164.734 50.5508 212.424c-26.0176 -33.2275 -64.5049 -80.8105 -106.29 -127.099c-105.342 -116.708 -178.222 -167.754 -223.112 -155.872c-13.96 3.68555 -23.9355 12.4072 -28.834 25.2168
c-20.2607 52.9248 53.3193 171.818 137.164 299.393c21.1943 32.249 39.5039 60.0977 44.1416 70.915c0.316406 0.742188 0.549805 1.37109 0.714844 1.88965c-10.8525 2.6416 -44.873 -4.30176 -78.9785 -15.9609c-7.75195 -2.64941 -16.2598 1.7832 -18.291 9.9873
c-1.78809 7.2207 2.83496 14.4912 9.86035 16.9346c38.0146 13.2227 91.2988 26.9658 109.367 8.11035c4.36914 -4.55859 10.5869 -14.7852 3.1875 -32.0469c-5.61328 -13.1055 -22.7549 -39.1885 -46.4844 -75.2852c-52.832 -80.3955 -151.18 -230.036 -134.402 -273.879
c1.16113 -3.02246 3.22266 -6.34473 9.74219 -8.06934c60.9033 -16.1299 235.745 184.281 332.363 315.3c8.33984 11.3096 26.2568 5.37012 26.2568 -8.68262v-0.00195312c-0.199219 -1.67969 -11.7754 -96.9189 -48.4355 -230.617
c83.6465 70.6631 154.018 128.518 198.545 164.786c9.16602 7.46582 22.873 0.923828 22.873 -10.8984v0z" />
    <glyph glyph-name="z" unicode="z" horiz-adv-x="510" 
d="M-174.072 -642.388c179.403 92.6045 548.507 569.953 476.088 772.361c-12.5791 35.1582 -28.999 63.8242 -49.0947 85.8193c-293.648 -278.743 -464.587 -583.315 -499.206 -755.955c-9.98242 -49.7715 -7.99707 -87.8984 5.57812 -107.352
c12.4424 -17.79 43.1045 -7.02051 66.6348 5.12598zM273.503 235.099c22.6787 -24.7568 41.0742 -56.7031 55.0068 -95.6475c78.0186 -218.052 -299.028 -708.44 -489.671 -806.85c-24.8291 -12.8164 -44.2861 -17.7041 -59.5244 -17.7041
c-22.0332 0 -35.2383 10.2266 -43.0908 21.4766c-18.543 26.5605 -21.9365 69.96 -10.0986 128.996c35.3271 176.178 208.739 486.305 506.324 769.524c-13.2324 10.4395 -27.7285 18.5361 -43.4609 24.2588c-97.9287 35.6562 -213.699 -30.9746 -214.854 -31.6475
l-16.0146 23.0322c140.235 114.623 294.391 247.975 305.939 271.049c0.6875 5.09082 -2.54883 8.36816 -5.46191 10.2471c-11.4531 7.38184 -45.749 9.16504 -101.625 -30.9951c-89.1211 -64.0479 -130.061 -49.9365 -148.72 -26.8213
c-18.8105 23.3125 -17.1182 63.2344 -3.4873 88.6816c4.55371 8.5 16.207 9.84863 22.6719 2.69336v0c3.88867 -4.30273 4.99414 -10.6338 2.27734 -15.7578c-8.05664 -15.1963 -11.0508 -43.7051 0.439453 -57.9463c15.1279 -18.7588 56.3975 -6.79395 110.397 32.002
c54.0762 38.8652 103.906 50.7471 133.297 31.7959c14.0498 -9.05859 20.8242 -24.4307 17.6846 -40.1191c-4.85742 -24.2969 -134.904 -136.818 -245.275 -228.64c44.1895 11.9443 99.6113 18.0244 152.21 -1.07812c20.0332 -7.27246 38.2871 -17.7012 54.7275 -31.2393
c83.8545 77.9434 177.244 153.507 279.753 223.362c9.32715 6.35645 22.002 -0.407227 22.002 -11.6943v0c0 -4.55664 -2.20117 -8.82715 -5.91211 -11.4717c-32.1436 -22.9014 -187.66 -134.875 -275.535 -219.508z" />
    <glyph glyph-name="braceleft" unicode="{" horiz-adv-x="499" 
d="M825.081 1141.32c9.49512 0 17.6064 -0.572266 23.9795 -1.27832c8.45605 -0.936523 14.1055 -9.10059 11.9805 -17.3389v0c-1.74902 -6.78027 -8.22363 -11.2432 -15.168 -10.3457c-36.7266 4.74902 -149.435 5.89746 -236.363 -136.525
c-26.2002 -42.9258 -48.9443 -87.7959 -70.9395 -131.188c-60.1934 -118.752 -117.522 -231.85 -230.905 -268.495c5.00488 -3.46973 9.36035 -7.66016 12.5518 -12.7373c5.1084 -8.11328 9.38477 -21.7646 0.772461 -40.7129
c-36.3398 -79.9492 -110.467 -173.439 -220.325 -277.867c-103.758 -98.6367 -137.281 -171.304 -124.517 -197.074c6.54199 -13.2178 28.4512 -18.2803 62.2666 -14.582c7.49219 0.819336 14.3652 -4.26562 15.5635 -11.707v0
c1.27539 -7.92188 -4.36816 -15.374 -12.3438 -16.2461c-47.7607 -5.21973 -78.2334 4.86816 -90.7061 30.0508c-22.3555 45.1445 26.3721 131.105 130.35 229.948c107.228 101.934 179.259 192.477 214.095 269.114c4.14941 9.13086 1.88184 12.7305 1.02637 14.0908
c-6.56152 10.4287 -34.0566 15.8008 -50.5693 16.1445l-0.724609 28.1064c139.322 10.1133 199.124 128.089 268.366 264.69c22.2422 43.8799 45.2402 89.251 72.0205 133.124c79.8809 130.871 183.711 150.829 239.59 150.829z" />
    <glyph glyph-name="braceright" unicode="}" horiz-adv-x="527" 
d="M-190.487 0c-9.49512 0 -17.6064 0.571289 -23.9795 1.27734c-8.45605 0.936523 -14.1055 9.10059 -11.9805 17.3389v0c1.74902 6.78027 8.22363 11.2432 15.168 10.3457c36.7266 -4.74902 149.435 -5.89746 236.363 136.525
c26.2002 42.9258 48.9443 87.7959 70.9395 131.188c60.1934 118.752 117.522 231.85 230.905 268.495c-5.00488 3.46973 -9.36035 7.66016 -12.5518 12.7373c-5.1084 8.11426 -9.38477 21.7656 -0.772461 40.7139c36.3398 79.9492 110.467 173.439 220.325 277.867
c103.758 98.6367 137.281 171.304 124.517 197.074c-6.54199 13.2178 -28.4512 18.2803 -62.2666 14.582c-7.49219 -0.819336 -14.3652 4.26562 -15.5635 11.707v0c-1.27539 7.92188 4.36816 15.374 12.3438 16.2461c47.7607 5.21973 78.2334 -4.86816 90.7061 -30.0508
c22.3555 -45.1445 -26.3721 -131.105 -130.35 -229.948c-107.228 -101.934 -179.259 -192.477 -214.095 -269.114c-4.14941 -9.13086 -1.88184 -12.7305 -1.02637 -14.0908c6.56152 -10.4287 34.0566 -15.8008 50.5693 -16.1445l0.724609 -28.1064
c-139.322 -10.1133 -199.124 -128.089 -268.366 -264.69c-22.2422 -43.8799 -45.2402 -89.251 -72.0205 -133.124c-79.8809 -130.871 -183.711 -150.829 -239.59 -150.829z" />
    <glyph glyph-name="nonbreakingspace" unicode="&#xa0;" horiz-adv-x="241" 
 />
  </font>
</defs>
</svg>
